<svg width="241" height="282" viewBox="0 0 241 282" fill="none" xmlns="http://www.w3.org/2000/svg">
<g id="aux-PERRITO-end">
<g id="aux-group-oreja-der-end">
<g id="aux-oreja-out-der-end" filter="url(#filter0_dd_278_51)">
<path d="M158.559 41.6218L150.344 58.0515C150.344 58.0515 164.333 65.0381 170.881 69.0046C181.249 75.2854 186.417 81.6008 191.418 86.8034C197.064 92.678 202.341 99.7345 207.848 108.71C214.415 119.413 221.539 137.462 221.539 137.462C221.539 137.462 223.048 129.913 224.277 125.139C225.248 121.37 226.045 119.325 227.016 115.555C228.245 110.781 228.685 108.045 229.754 103.233C230.823 98.4209 231.471 95.7335 232.492 90.9108C233.621 85.5762 234.446 82.6154 235.23 77.2194C236.31 69.7928 236.353 65.5521 236.6 58.0515C236.81 51.6387 237.196 48.0102 236.6 41.6218C236.044 35.6697 235.121 32.331 233.861 26.5612C232.779 21.6056 231.393 21.4726 229 17C225.607 10.6572 221.159 9.72175 214.5 7C210.51 5.36896 202.558 5.64801 198.264 6.02419C194.386 6.36388 192.276 7.27338 188.68 8.76247C184.697 10.4115 182.633 11.7754 179.096 14.239C179.096 14.239 172.038 21.4352 168.143 26.5612C163.924 32.1116 158.559 41.6218 158.559 41.6218Z" fill="url(#paint0_radial_278_51)"/>
</g>
<path id="aux-oreja-in-der-end" d="M173.619 48.4671C169.808 54.3047 164.035 63.5277 164.035 63.5277C164.035 63.5277 171.877 68.0858 176.357 71.7425C181.044 75.5673 184.402 78.4182 188.68 82.6956C193.492 87.5078 195.268 89.7964 199.633 95.0179C203.819 100.026 209.217 108.709 209.217 108.709C209.217 108.709 213.263 104.634 214.693 101.864C217.565 96.3035 218.801 93.6494 220.17 86.8034C221.539 79.9573 222.168 74.4116 222.908 66.2662C223.538 59.3438 223.169 55.4337 222.908 48.4671C222.645 41.4393 223.242 38.2469 221.539 32.0377C220.147 26.9591 217.825 28.7815 215 25.1918C212.907 22.5323 210.43 22.0994 207.115 21.52L207 21.4999C203.669 20.9173 198 21.4999 198 21.4999C198 21.4999 194.939 21.7418 191.418 25.1918C187.358 29.1696 185.292 31.6339 181.834 36.1449C178.316 40.735 176.781 43.6243 173.619 48.4671Z" fill="url(#paint1_radial_278_51)"/>
</g>
<g id="aux-cara-end" filter="url(#filter1_d_278_51)">
<path d="M81.6115 58.66C63.5274 64.9432 55.7801 73.7628 41.9057 87.412C33.8021 95.3839 28.74 101.033 22.7385 110.687C16.919 120.049 21.8957 131.513 18.4995 142C15.7825 150.389 13.0852 166.825 11.4999 175.5C8.80162 190.265 9.35724 191.611 9.0469 202C8.89832 206.974 12.1467 214.509 15.4998 222C17.9129 227.391 19.3173 230.465 22.7385 235.279C27.5566 242.059 31.3708 245.061 37.799 250.34C42.8431 254.481 45.9534 256.468 51.4904 259.924C58.188 264.103 61.916 266.687 69.2893 269.508C74.8285 271.627 78.1961 272.33 83.8694 273.515L84.3498 273.615C94.349 275.704 100.159 275.882 110.363 276.353C118.375 276.723 122.914 277.084 130.901 276.353C137.378 275.761 140.948 274.873 147.33 273.615C154.329 272.236 158.49 272.116 165.129 269.508C172.043 266.791 175.218 265.163 181.559 261.293C187.509 257.661 191.139 254.649 196.619 250.34C203.157 245.198 206.514 241.798 211.68 235.279C217.489 227.949 220.323 223.341 224.002 214.742L224.031 214.674C226.871 208.036 228.114 205.13 229.479 196.943C230.848 188.728 229.479 182.757 229.479 173.668L226.74 158.607C226.74 158.607 223.981 145.09 221.264 136.701C217.868 126.214 215.982 120.139 210.311 110.687C204.64 101.235 200.573 96.7958 192.512 88.7811C179.01 75.3573 170.797 64.8934 152.807 58.66C144.085 55.6382 141.294 54.5526 129.531 54.5526C117.768 54.5526 108.995 53.1835 99.4104 54.5526C89.8256 55.9217 88.35 56.3188 81.6115 58.66Z" fill="url(#paint2_radial_278_51)"/>
</g>
<path id="aux-lengua-end" d="M109.278 207.242C109.278 207.242 106.541 202.614 106.54 199.027C106.539 196.289 128.446 182.598 128.446 182.598C128.446 182.598 146.245 193.551 148.983 199.027C150.496 202.052 147.614 207.242 147.614 207.242C147.614 207.242 145.337 210.77 143.507 212.719C141.163 215.214 139.762 216.744 136.661 218.195C135.13 218.912 134.207 219.21 132.554 219.564C129.417 220.237 127.476 220.237 124.339 219.564C122.686 219.21 121.763 218.912 120.231 218.195C117.131 216.744 115.73 215.214 113.386 212.719C111.555 210.77 109.278 207.242 109.278 207.242Z" fill="url(#paint3_radial_278_51)"/>
<g id="aux-cara-orange-izq-end">
<path d="M93.3769 54.168L93.284 54C93.284 54 82.2063 58.5973 75.8122 62.7776C68.8295 67.3428 59.5034 76.5941 59.5034 76.5941C59.5034 76.5941 44.2269 90.2943 36.5006 100.814C31.347 107.831 27.1317 114.953 24.8527 119.832C21.4744 127.066 20.2626 134.265 17.2799 143.889C13.1357 157.262 10 179 10 179C10 179 20.2574 170.404 27.4718 165.834C32.4236 162.696 35.0999 160.599 40.5757 158.519C44.9614 156.853 47.5641 156.119 52.2235 155.593C59.0275 154.825 62.4767 155.458 69.6953 157.056C73.2072 157.833 76.3286 157.998 79.8872 158.519C84.9824 159.264 88.2036 158.96 92.9911 157.056C96.7875 155.546 98.4538 154.081 101.686 151.24L101.727 151.204C103.183 149.924 106.745 144.804 109.007 140.964C111.481 136.763 112.299 134.02 113.375 129.26C115.137 121.46 115.285 114.741 114.673 106.836C113.945 97.43 110.463 89.7606 109.007 85.3718C107.551 80.983 105.753 77.7438 104.639 75.1312C103.529 72.5297 100.589 67.2121 93.3769 54.168Z" fill="url(#paint4_radial_278_51)"/>
<path d="M93.3769 54.168L93.284 54C93.284 54 82.2063 58.5973 75.8122 62.7776C68.8295 67.3428 59.5034 76.5941 59.5034 76.5941C59.5034 76.5941 44.2269 90.2943 36.5006 100.814C31.347 107.831 27.1317 114.953 24.8527 119.832C21.4744 127.066 20.2626 134.265 17.2799 143.889C13.1357 157.262 10 179 10 179C10 179 20.2574 170.404 27.4718 165.834C32.4236 162.696 35.0999 160.599 40.5757 158.519C44.9614 156.853 47.5641 156.119 52.2235 155.593C59.0275 154.825 62.4767 155.458 69.6953 157.056C73.2072 157.833 76.3286 157.998 79.8872 158.519C84.9824 159.264 88.2036 158.96 92.9911 157.056C96.7875 155.546 98.4538 154.081 101.686 151.24L101.727 151.204C103.183 149.924 106.745 144.804 109.007 140.964C111.481 136.763 112.299 134.02 113.375 129.26C115.137 121.46 115.285 114.741 114.673 106.836C113.945 97.43 110.463 89.7606 109.007 85.3718C107.551 80.983 105.753 77.7438 104.639 75.1312C103.529 72.5297 100.589 67.2121 93.3769 54.168Z" fill="url(#paint5_radial_278_51)"/>
</g>
<path id="aux-cara-orange-der-end" d="M148 73.5C149.159 67.4287 151.201 58 151.201 58C151.201 58 159.213 58.9798 170.5 68C181.904 77.1141 195.63 88.1832 206.5 104.5C215.613 118.179 220.909 130.69 223.248 141.892C228.281 161.242 229 175 229 175C229 175 218.35 161.998 209.551 157.163C205.904 155.159 203.838 153.72 199.826 153.047C197.008 152.573 195.38 153.047 192.532 153.047C186.361 153.047 182.793 153.464 176.635 153.918C172.345 154.234 170.081 154.683 165.789 154.419C162.905 154.241 161.199 154.19 158.495 153.047C155.289 151.691 153.699 150.201 151.201 147.558C148.222 144.406 146.82 142.146 145.123 137.953C143.496 133.935 143.277 131.346 142.692 126.977C141.769 120.089 141.769 116.027 142.692 109.14C143.277 104.771 143.489 97.3551 145.123 90C146.293 84.7376 146.774 79.9249 148 73.5Z" fill="url(#paint6_radial_278_51)"/>
<path id="aux-ojo-der-end" d="M152 127.909C152 134.336 156.713 141 164.445 141C172.177 141 180 134.336 180 127.909C180 123.467 174.165 132.645 169.464 133.451C165.972 134.05 165.092 134.563 161.51 133.953C157.624 133.291 152 121.482 152 127.909Z" fill="url(#paint7_radial_278_51)"/>
<path id="aux-ojo-izq-end" d="M101.645 130.894C101.645 137.154 97.4967 143.645 90.691 143.645C83.8854 143.645 77 136.212 77 129.953C77 127.309 78.1931 124.988 79.7383 123.107C80.7207 121.912 82.4084 121.077 83.8457 120.369C86.5543 119.035 88.5887 119 90.691 119C97.4967 119 101.645 124.635 101.645 130.894Z" fill="url(#paint8_radial_278_51)"/>
<path id="aux-nariz-end" d="M150.353 163.43C150.353 168.736 148.983 171.645 143.507 175.752C139.87 177.274 132.127 178.49 127.473 178.49C120.972 178.49 114.755 177.121 112.017 175.752C105.171 171.645 105.171 167.541 105.171 163.43C105.171 158.688 106.54 153.846 114.755 149.738C119.632 147.3 122.92 147 128.446 147C134.005 147 138.791 147.244 143.507 151.107C146.849 153.846 150.353 158.709 150.353 163.43Z" fill="url(#paint9_radial_278_51)"/>
<path id="aux-parte-boca-end" d="M88.7401 189.444C85.8725 186.225 83.2603 179.86 83.2625 178.49C83.2642 177.421 82.6703 178.011 83.2635 177.121C84.1533 175.786 85.9985 175.753 87.3699 177.121C88.7395 178.488 89.5733 180.155 90.1084 181.224L90.1104 181.228C91.7153 184.436 92.2701 185.953 94.2179 188.074C95.522 189.494 95.2676 189.88 96.9549 190.812C99.475 192.205 100.979 192.977 103.801 193.551C106.944 194.19 108.92 194.395 112.015 193.551C115.735 192.536 120.23 188.074 120.23 188.074C120.23 188.074 122.126 186.073 122.969 183.967C123.763 181.981 124.338 178.49 124.338 178.49H132.553C132.553 178.49 133.127 181.981 133.922 183.967C134.764 186.073 136.66 188.074 136.66 188.074L140.767 192.182C140.767 192.182 145.73 193.551 148.982 193.551C152.235 193.551 154.15 193.318 157.197 192.182C160.118 191.093 161.903 190.342 164.043 188.074C165.366 186.672 169.521 179.859 169.521 179.859C169.521 179.859 171.126 176.153 173.628 178.49C174.502 179.306 174.422 181.981 173.628 183.967C172.785 186.073 171.163 187.878 169.521 189.443C165.951 192.844 164.346 194.085 159.937 196.289C155.992 198.261 152.235 199.027 148.982 199.027C145.73 199.027 143.726 199.008 140.767 197.658C138.335 196.548 137.181 195.441 135.291 193.551C133.4 191.66 132.51 190.395 131.183 188.074C130.59 187.036 129.814 185.336 129.814 185.336L128.445 183.967L127.076 185.336C127.076 185.336 126.336 187.058 125.707 188.074C124.115 190.646 122.659 191.748 120.23 193.551C117.35 195.688 115.434 196.574 112.015 197.658C108.915 198.641 103.33 198.243 98.3252 196.289C93.3441 194.345 91.7999 192.878 88.7401 189.444Z" fill="url(#paint10_radial_278_51)" stroke="black"/>
<g id="aux-group-oreja-izq-end">
<g id="aux-oreja-out-izq-end" filter="url(#filter2_dd_278_51)">
<path d="M88.5 43.5001L93.5 54.5001C93.5 54.5001 76.422 63.5297 68.7529 70.0001C60.2073 77.2101 56.2972 82.2446 49.138 90.8036L48.9456 91.0336C42.2171 99.0776 38.251 103.819 32.8391 112.71C26.3237 123.413 19.2567 141.462 19.2567 141.462C19.2567 141.462 17.7595 133.913 16.5402 129.14C15.5774 125.37 14.7865 123.325 13.8237 119.556C12.6044 114.782 12.168 112.045 11.1072 107.233C10.0463 102.421 9.40328 99.7337 8.3907 94.911C7.27065 89.5765 6.45233 86.6156 5.67422 81.2196C4.60329 73.793 4.5606 69.5522 4.31597 62.0517C4.10682 55.6389 3.72414 52.0103 4.31597 45.6219C4.86738 39.6699 5.78242 36.3312 7.03246 30.5614C8.10611 25.6058 8.73341 22.7118 11.1072 18.2392C14.4735 11.8964 16.7258 7.26953 23.3314 4.54778C27.2899 2.91673 29.7576 2.48742 34 2.50002C38.1777 2.51244 40.5817 3.48925 44.5 4.54778C48.3792 5.59572 50.1854 6.87817 54 8.50011C58.7847 10.5345 60.9021 12.8001 65 16.0001C70.0106 19.9128 71.7521 22.3677 77 27.0001C82.8884 32.1979 86.5474 39.2043 88.5 43.5001Z" fill="url(#paint11_radial_278_51)"/>
<path d="M88.5 43.5001L93.5 54.5001C93.5 54.5001 76.422 63.5297 68.7529 70.0001C60.2073 77.2101 56.2972 82.2446 49.138 90.8036L48.9456 91.0336C42.2171 99.0776 38.251 103.819 32.8391 112.71C26.3237 123.413 19.2567 141.462 19.2567 141.462C19.2567 141.462 17.7595 133.913 16.5402 129.14C15.5774 125.37 14.7865 123.325 13.8237 119.556C12.6044 114.782 12.168 112.045 11.1072 107.233C10.0463 102.421 9.40328 99.7337 8.3907 94.911C7.27065 89.5765 6.45233 86.6156 5.67422 81.2196C4.60329 73.793 4.5606 69.5522 4.31597 62.0517C4.10682 55.6389 3.72414 52.0103 4.31597 45.6219C4.86738 39.6699 5.78242 36.3312 7.03246 30.5614C8.10611 25.6058 8.73341 22.7118 11.1072 18.2392C14.4735 11.8964 16.7258 7.26953 23.3314 4.54778C27.2899 2.91673 29.7576 2.48742 34 2.50002C38.1777 2.51244 40.5817 3.48925 44.5 4.54778C48.3792 5.59572 50.1854 6.87817 54 8.50011C58.7847 10.5345 60.9021 12.8001 65 16.0001C70.0106 19.9128 71.7521 22.3677 77 27.0001C82.8884 32.1979 86.5474 39.2043 88.5 43.5001Z" fill="url(#paint12_radial_278_51)"/>
</g>
<path id="aux-oreja-in-izq-end" d="M63.3585 48.2971C67.1391 54.1347 72.8662 63.3576 72.8662 63.3576C72.8662 63.3576 65.0871 67.9158 60.642 71.5725C55.9927 75.3972 52.6612 78.2481 48.4178 82.5256C43.644 87.3377 41.8816 89.6263 37.5518 94.8478C33.3994 99.8555 28.0441 108.539 28.0441 108.539C28.0441 108.539 24.0305 104.464 22.6112 101.694C19.7619 96.1335 18.5364 93.4793 17.1782 86.6333C15.8199 79.7873 15.1963 74.2415 14.4617 66.0962C13.8374 59.1737 14.2029 55.2636 14.4617 48.2971C14.7228 41.2692 14.131 38.0768 15.8199 31.8677C17.2014 26.789 18.45 23.1348 21.2529 19.5451C23.3536 16.8549 24.6985 14.6584 28.0441 14.0686C31.3487 13.486 36.1936 16.8069 36.1936 16.8069C36.1936 16.8069 42.2082 21.5717 45.7013 25.0217C49.7288 28.9995 51.7788 31.4638 55.209 35.9748C58.6994 40.565 60.2221 43.4542 63.3585 48.2971Z" fill="url(#paint13_radial_278_51)"/>
</g>
</g>
<defs>
<filter id="filter0_dd_278_51" x="146.344" y="3.73535" width="94.5742" height="139.726" filterUnits="userSpaceOnUse" color-interpolation-filters="sRGB">
<feFlood flood-opacity="0" result="BackgroundImageFix"/>
<feColorMatrix in="SourceAlpha" type="matrix" values="0 0 0 0 0 0 0 0 0 0 0 0 0 0 0 0 0 0 127 0" result="hardAlpha"/>
<feOffset/>
<feGaussianBlur stdDeviation="1"/>
<feComposite in2="hardAlpha" operator="out"/>
<feColorMatrix type="matrix" values="0 0 0 0 0 0 0 0 0 0 0 0 0 0 0 0 0 0 0.2 0"/>
<feBlend mode="normal" in2="BackgroundImageFix" result="effect1_dropShadow_278_51"/>
<feColorMatrix in="SourceAlpha" type="matrix" values="0 0 0 0 0 0 0 0 0 0 0 0 0 0 0 0 0 0 127 0" result="hardAlpha"/>
<feOffset dy="2"/>
<feGaussianBlur stdDeviation="2"/>
<feComposite in2="hardAlpha" operator="out"/>
<feColorMatrix type="matrix" values="0 0 0 0 0.890196 0 0 0 0 0.478431 0 0 0 0 0.0862745 0 0 0 0.3 0"/>
<feBlend mode="normal" in2="effect1_dropShadow_278_51" result="effect2_dropShadow_278_51"/>
<feBlend mode="normal" in="SourceGraphic" in2="effect2_dropShadow_278_51" result="shape"/>
</filter>
<filter id="filter1_d_278_51" x="5.04199" y="50.9441" width="229.045" height="230.832" filterUnits="userSpaceOnUse" color-interpolation-filters="sRGB">
<feFlood flood-opacity="0" result="BackgroundImageFix"/>
<feColorMatrix in="SourceAlpha" type="matrix" values="0 0 0 0 0 0 0 0 0 0 0 0 0 0 0 0 0 0 127 0" result="hardAlpha"/>
<feOffset dy="1"/>
<feGaussianBlur stdDeviation="2"/>
<feComposite in2="hardAlpha" operator="out"/>
<feColorMatrix type="matrix" values="0 0 0 0 0 0 0 0 0 0 0 0 0 0 0 0 0 0 0.25 0"/>
<feBlend mode="normal" in2="BackgroundImageFix" result="effect1_dropShadow_278_51"/>
<feBlend mode="normal" in="SourceGraphic" in2="effect1_dropShadow_278_51" result="shape"/>
</filter>
<filter id="filter2_dd_278_51" x="0" y="0.499756" width="97.5" height="146.962" filterUnits="userSpaceOnUse" color-interpolation-filters="sRGB">
<feFlood flood-opacity="0" result="BackgroundImageFix"/>
<feColorMatrix in="SourceAlpha" type="matrix" values="0 0 0 0 0 0 0 0 0 0 0 0 0 0 0 0 0 0 127 0" result="hardAlpha"/>
<feOffset/>
<feGaussianBlur stdDeviation="1"/>
<feComposite in2="hardAlpha" operator="out"/>
<feColorMatrix type="matrix" values="0 0 0 0 0 0 0 0 0 0 0 0 0 0 0 0 0 0 0.2 0"/>
<feBlend mode="normal" in2="BackgroundImageFix" result="effect1_dropShadow_278_51"/>
<feColorMatrix in="SourceAlpha" type="matrix" values="0 0 0 0 0 0 0 0 0 0 0 0 0 0 0 0 0 0 127 0" result="hardAlpha"/>
<feOffset dy="2"/>
<feGaussianBlur stdDeviation="2"/>
<feComposite in2="hardAlpha" operator="out"/>
<feColorMatrix type="matrix" values="0 0 0 0 0.890196 0 0 0 0 0.478431 0 0 0 0 0.0862745 0 0 0 0.3 0"/>
<feBlend mode="normal" in2="effect1_dropShadow_278_51" result="effect2_dropShadow_278_51"/>
<feBlend mode="normal" in="SourceGraphic" in2="effect2_dropShadow_278_51" result="shape"/>
</filter>
<radialGradient id="paint0_radial_278_51" cx="0" cy="0" r="1" gradientUnits="userSpaceOnUse" gradientTransform="translate(194.156 36.1453) rotate(127.482) scale(104.499 85.3873)">
<stop stop-color="#E27915"/>
<stop offset="0.450907" stop-color="#FDB454"/>
<stop offset="0.93654" stop-color="#FFB858"/>
</radialGradient>
<radialGradient id="paint1_radial_278_51" cx="0" cy="0" r="1" gradientUnits="userSpaceOnUse" gradientTransform="translate(193.645 61.4398) rotate(90) scale(47.2696 29.6101)">
<stop stop-color="#EECAAA"/>
<stop offset="0.422877" stop-color="#EEBC90"/>
<stop offset="1" stop-color="#D99C69"/>
</radialGradient>
<radialGradient id="paint2_radial_278_51" cx="0" cy="0" r="1" gradientUnits="userSpaceOnUse" gradientTransform="translate(61.3496 96.3875) rotate(56.1254) scale(235.814 209.516)">
<stop offset="0.0364311" stop-color="#FDFDFD"/>
<stop offset="0.450506" stop-color="#FAFAFA"/>
<stop offset="0.834873" stop-color="#E5E5E5"/>
</radialGradient>
<radialGradient id="paint3_radial_278_51" cx="0" cy="0" r="1" gradientUnits="userSpaceOnUse" gradientTransform="translate(115.03 199.788) rotate(37.304) scale(36.1463 41.5013)">
<stop offset="0.139423" stop-color="#F74F27"/>
<stop offset="1" stop-color="#B7310D"/>
</radialGradient>
<radialGradient id="paint4_radial_278_51" cx="0" cy="0" r="1" gradientTransform="matrix(-80.0791 -27.7959 19.5414 -56.8374 114.831 151.204)" gradientUnits="userSpaceOnUse">
<stop stop-color="#E3882B"/>
<stop offset="0.575292" stop-color="#FBB360"/>
<stop offset="1" stop-color="#FDB664"/>
</radialGradient>
<radialGradient id="paint5_radial_278_51" cx="0" cy="0" r="1" gradientTransform="matrix(-101.919 -98.017 80.231 -85.2281 147.155 203.029)" gradientUnits="userSpaceOnUse">
<stop offset="0.149938" stop-color="#E3882B"/>
<stop offset="0.369598" stop-color="#E79034"/>
<stop offset="0.841905" stop-color="#F3A44D"/>
<stop offset="1" stop-color="#FDB664"/>
</radialGradient>
<radialGradient id="paint6_radial_278_51" cx="0" cy="0" r="1" gradientTransform="matrix(-79.015 -32.9302 -24.3123 74.3217 200.07 139.909)" gradientUnits="userSpaceOnUse">
<stop offset="0.149938" stop-color="#E3882B"/>
<stop offset="0.369598" stop-color="#E79034"/>
<stop offset="0.841905" stop-color="#F3A44D"/>
<stop offset="1" stop-color="#FDB664"/>
</radialGradient>
<radialGradient id="paint7_radial_278_51" cx="0" cy="0" r="1" gradientTransform="matrix(5.4846 17.8587 19.7617 -4.73306 158.079 120.133)" gradientUnits="userSpaceOnUse">
<stop stop-color="#666666"/>
<stop offset="0.75" stop-color="#111111"/>
<stop offset="1"/>
</radialGradient>
<radialGradient id="paint8_radial_278_51" cx="0" cy="0" r="1" gradientTransform="matrix(-4.82733 17.3935 -17.3935 -4.60976 94.1496 126.251)" gradientUnits="userSpaceOnUse">
<stop stop-color="#666666"/>
<stop offset="0.75" stop-color="#111111"/>
<stop offset="1"/>
</radialGradient>
<radialGradient id="paint9_radial_278_51" cx="0" cy="0" r="1" gradientUnits="userSpaceOnUse" gradientTransform="translate(122.97 156.584) rotate(60.6823) scale(29.619 28.3352)">
<stop stop-color="#666666"/>
<stop offset="0.407116" stop-color="#222222"/>
<stop offset="1"/>
</radialGradient>
<radialGradient id="paint10_radial_278_51" cx="0" cy="0" r="1" gradientTransform="matrix(29.006 17.9655 -49.412 9.65173 118.862 183.788)" gradientUnits="userSpaceOnUse">
<stop stop-color="#222222"/>
<stop offset="0.407116" stop-color="#222222"/>
<stop offset="1"/>
</radialGradient>
<radialGradient id="paint11_radial_278_51" cx="0" cy="0" r="1" gradientTransform="matrix(72.0329 69.8261 53.8373 -54.2546 20.623 85.1485)" gradientUnits="userSpaceOnUse">
<stop stop-color="#E27915"/>
<stop offset="0.450907" stop-color="#FDB454"/>
<stop offset="0.93654" stop-color="#FFB858"/>
</radialGradient>
<radialGradient id="paint12_radial_278_51" cx="0" cy="0" r="1" gradientTransform="matrix(63.0835 82.9246 67.2192 -51.9596 46.4216 40.1453)" gradientUnits="userSpaceOnUse">
<stop offset="0.00643931" stop-color="#E27915"/>
<stop offset="0.450907" stop-color="#FDB454"/>
<stop offset="0.93654" stop-color="#FFB858"/>
</radialGradient>
<radialGradient id="paint13_radial_278_51" cx="0" cy="0" r="1" gradientUnits="userSpaceOnUse" gradientTransform="translate(43.4918 61.2696) rotate(90) scale(47.2696 29.3744)">
<stop stop-color="#EECAAA"/>
<stop offset="0.422877" stop-color="#EEBC90"/>
<stop offset="1" stop-color="#D99C69"/>
</radialGradient>
</defs>
</svg>
