<svg width="248" height="285" viewBox="0 0 248 285" fill="none" xmlns="http://www.w3.org/2000/svg">
<g id="aux-PERRITO-start">
<g id="aux-group-oreja-der">
<g id="aux-oreja-out-der" filter="url(#filter0_dd_275_15)">
<path d="M165.559 44.6219L157.344 61.0516C157.344 61.0516 171.333 68.0381 177.881 72.0047C188.249 78.2855 193.417 84.601 198.418 89.8035C204.064 95.6782 209.341 102.735 214.848 111.71C221.415 122.413 228.539 140.462 228.539 140.462C228.539 140.462 230.048 132.913 231.277 128.139C232.248 124.37 233.045 122.325 234.016 118.555C235.245 113.782 235.685 111.045 236.754 106.233C237.823 101.421 238.471 98.7336 239.492 93.9109C240.621 88.5764 241.446 85.6155 242.23 80.2195C243.31 72.7929 243.353 68.5521 243.6 61.0516C243.81 54.6388 244.196 51.0102 243.6 44.6218C243.044 38.6698 242.121 35.3311 240.861 29.5613C239.779 24.6057 239.147 21.7117 236.754 17.2391C233.361 10.8963 231.09 6.26942 224.432 3.54767C220.441 1.91663 217.773 1.80235 213.478 2.17853C209.601 2.51822 207.491 3.42772 203.895 4.91681C199.912 6.56589 197.848 7.92975 194.311 10.3934C190.884 12.78 186.096 17.2391 186.096 17.2391C186.096 17.2391 179.038 24.4353 175.143 29.5613C170.924 35.1117 165.559 44.6219 165.559 44.6219Z" fill="url(#paint0_radial_275_15)"/>
</g>
<path id="aux-oreja-in-der" d="M180.619 51.4672C176.808 57.3048 171.035 66.5278 171.035 66.5278C171.035 66.5278 178.877 71.0859 183.357 74.7426C188.044 78.5674 191.402 81.4183 195.68 85.6957C200.492 90.5079 202.268 92.7965 206.633 98.018C210.819 103.026 216.217 111.709 216.217 111.709C216.217 111.709 220.263 107.634 221.693 104.864C224.565 99.3036 225.801 96.6495 227.17 89.8034C228.539 82.9574 229.168 77.4117 229.908 69.2663C230.538 62.3439 230.169 58.4338 229.908 51.4672C229.645 44.4394 230.242 41.247 228.539 35.0378C227.147 29.9592 225.888 26.305 223.062 22.7153C220.945 20.025 219.589 17.8285 216.217 17.2387C212.886 16.6562 208.002 19.977 208.002 19.977C208.002 19.977 201.939 24.7419 198.418 28.1919C194.358 32.1697 192.292 34.634 188.834 39.145C185.316 43.7351 183.781 46.6244 180.619 51.4672Z" fill="url(#paint1_radial_275_15)"/>
</g>
<g id="aux-cara" filter="url(#filter1_d_275_15)">
<path d="M88.612 61.66C70.5279 67.9432 62.7806 76.7628 48.9062 90.412C40.8026 98.3839 35.7405 104.033 29.739 113.687C23.9195 123.049 22.1821 129.214 18.7859 139.701C16.0689 148.09 14.8946 152.933 13.3093 161.607C10.611 176.372 7.90685 185.172 10.571 199.943C11.8619 207.1 13.0632 211.11 16.0476 217.742C20.0032 226.532 23.5738 230.869 29.739 238.279C35.0591 244.673 38.3713 248.061 44.7995 253.34C49.8436 257.481 52.9539 259.468 58.4909 262.924C65.1885 267.103 68.9165 269.687 76.2898 272.508C81.8289 274.627 85.1965 275.33 90.8695 276.515L91.3503 276.615C101.349 278.704 107.16 278.882 117.364 279.353C125.376 279.723 129.914 280.084 137.901 279.353C144.379 278.761 147.949 277.873 154.331 276.615C161.33 275.236 165.49 275.116 172.13 272.508C179.043 269.791 182.219 268.163 188.559 264.293C194.51 260.661 198.14 257.649 203.62 253.34C210.158 248.198 213.514 244.798 218.68 238.279C224.489 230.949 227.324 226.341 231.003 217.742L231.032 217.674C233.872 211.036 235.115 208.13 236.479 199.943C237.848 191.728 236.479 185.757 236.479 176.668L233.741 161.607C233.741 161.607 230.981 148.09 228.264 139.701C224.868 129.214 222.982 123.139 217.311 113.687C211.64 104.235 207.574 99.7958 199.512 91.7811C186.01 78.3573 177.798 67.8934 159.807 61.66C151.086 58.6382 148.295 57.5526 136.532 57.5526C124.769 57.5526 115.996 56.1835 106.411 57.5526C96.8261 58.9217 95.3505 59.3188 88.612 61.66Z" fill="url(#paint2_radial_275_15)"/>
</g>
<path id="aux-lengua" d="M105.041 209.527C105.041 209.527 102.304 204.899 102.303 201.312C102.302 198.574 124.209 184.883 124.209 184.883C124.209 184.883 142.008 195.836 144.746 201.312C146.258 204.337 143.377 209.527 143.377 209.527C143.377 209.527 141.1 213.055 139.27 215.004C136.925 217.499 135.524 219.028 132.424 220.48C130.893 221.197 129.97 221.495 128.316 221.849C125.18 222.522 123.238 222.522 120.102 221.849C118.448 221.495 117.525 221.197 115.994 220.48C112.894 219.028 111.493 217.499 109.148 215.004C107.318 213.055 105.041 209.527 105.041 209.527Z" fill="url(#paint3_radial_275_15)"/>
<g id="aux-cara-orange-izq">
<path d="M88.9738 61.2082L88.8867 61.0515C88.8867 61.0515 78.4698 65.3541 72.457 69.2664C65.8908 73.5388 57.1211 82.197 57.1211 82.197C57.1211 82.197 42.7557 95.0187 35.4903 104.864C30.6441 111.431 26.6802 118.096 24.5371 122.663C21.3603 129.433 20.2208 136.17 17.416 145.177C13.519 157.693 10.5703 178.037 10.5703 178.037C10.5703 178.037 20.2159 169.992 27 165.715C31.6564 162.778 34.1731 160.816 39.3223 158.869C43.4464 157.31 45.8938 156.623 50.2754 156.131C56.6735 155.412 59.917 156.004 66.705 157.5C70.0075 158.227 72.9427 158.382 76.289 158.869C81.0803 159.566 84.1094 159.282 88.6113 157.5C92.1813 156.087 93.7482 154.716 96.7878 152.057L96.8261 152.023C98.1953 150.825 101.545 146.033 103.672 142.439C105.998 138.508 106.768 135.941 107.779 131.486C109.436 124.186 109.575 117.898 109 110.5C108.316 101.697 105.041 94.5192 103.672 90.4118C102.303 86.3044 100.612 83.2729 99.5644 80.8278C98.521 78.3931 95.7561 73.4163 88.9738 61.2082Z" fill="url(#paint4_radial_275_15)"/>
<path d="M88.9738 61.2082L88.8867 61.0515C88.8867 61.0515 78.4698 65.3541 72.457 69.2664C65.8908 73.5388 57.1211 82.197 57.1211 82.197C57.1211 82.197 42.7557 95.0187 35.4903 104.864C30.6441 111.431 26.6802 118.096 24.5371 122.663C21.3603 129.433 20.2208 136.17 17.416 145.177C13.519 157.693 10.5703 178.037 10.5703 178.037C10.5703 178.037 20.2159 169.992 27 165.715C31.6564 162.778 34.1731 160.816 39.3223 158.869C43.4464 157.31 45.8938 156.623 50.2754 156.131C56.6735 155.412 59.917 156.004 66.705 157.5C70.0075 158.227 72.9427 158.382 76.289 158.869C81.0803 159.566 84.1094 159.282 88.6113 157.5C92.1813 156.087 93.7482 154.716 96.7878 152.057L96.8261 152.023C98.1953 150.825 101.545 146.033 103.672 142.439C105.998 138.508 106.768 135.941 107.779 131.486C109.436 124.186 109.575 117.898 109 110.5C108.316 101.697 105.041 94.5192 103.672 90.4118C102.303 86.3044 100.612 83.2729 99.5644 80.8278C98.521 78.3931 95.7561 73.4163 88.9738 61.2082Z" fill="url(#paint5_radial_275_15)"/>
</g>
<path id="aux-cara-orange-der" d="M148.854 82.197C152.274 73.5078 158.438 60.2908 158.438 60.2908C158.438 60.2908 176.941 67.1721 189 80C199.61 91.286 206.083 95.6108 214 107.5C222.853 120.795 227.366 133.823 230 145C235.669 164.308 236.479 178.037 236.479 178.037C236.479 178.037 224.483 165.063 214.573 160.238C210.466 158.238 208.138 156.803 203.62 156.131C200.447 155.659 198.613 156.131 195.405 156.131C188.454 156.131 184.436 156.547 177.5 157C172.669 157.316 170.118 157.763 165.284 157.5C162.036 157.323 160.115 157.271 157.069 156.131C153.458 154.778 151.667 153.291 148.854 150.654C145.499 147.508 143.92 145.254 142.008 141.07C140.176 137.06 139.929 134.476 139.27 130.117C138.231 123.244 138.231 119.191 139.27 112.318C139.929 107.959 140.79 105.602 142.008 101.365C144.205 93.7258 145.943 89.5935 148.854 82.197Z" fill="url(#paint6_radial_275_15)"/>
<path id="aux-ojo-der" d="M149.13 133.976C149.13 140.382 153.277 147.023 160.083 147.023C166.888 147.023 173.773 140.382 173.773 133.976C173.773 129.55 168.231 125.31 162.5 124C159.835 123.391 158.057 123.033 155.5 124C151.176 125.635 149.13 127.571 149.13 133.976Z" fill="url(#paint7_radial_275_15)"/>
<path id="aux-ojo-izq" d="M100.934 135.166C100.934 141.425 96.7857 147.916 89.9801 147.916C83.1745 147.916 76.2891 140.484 76.2891 134.224C76.2891 131.58 77.4822 129.259 79.0273 127.379C80.0097 126.183 81.6974 125.348 83.1348 124.64C85.8434 123.306 87.8778 123.271 89.9801 123.271C96.7857 123.271 100.934 128.906 100.934 135.166Z" fill="url(#paint8_radial_275_15)"/>
<path id="aux-nariz" d="M146.115 165.715C146.115 171.021 144.746 173.929 139.27 178.037C135.633 179.559 127.889 180.775 123.236 180.775C116.734 180.775 110.518 179.406 107.779 178.037C100.934 173.929 100.934 169.826 100.934 165.715C100.934 160.973 102.303 156.131 110.518 152.023C115.395 149.585 118.683 149.285 124.209 149.285C129.768 149.285 134.554 149.529 139.27 153.392C142.611 156.131 146.115 160.994 146.115 165.715Z" fill="url(#paint9_radial_275_15)"/>
<path id="aux-parte-boca" d="M84.5028 191.729C81.6352 188.51 79.023 182.145 79.0252 180.775C79.0269 179.706 78.433 180.296 79.0262 179.406C79.916 178.071 81.7612 178.038 83.1326 179.406C84.5022 180.773 85.336 182.44 85.8711 183.509L85.8731 183.513C87.478 186.721 88.0328 188.238 89.9806 190.359C91.2847 191.779 91.0303 192.165 92.7176 193.097C95.2377 194.49 96.7417 195.262 99.5633 195.836C102.707 196.475 104.683 196.68 107.778 195.836C111.498 194.821 115.993 190.359 115.993 190.359C115.993 190.359 117.889 188.358 118.731 186.251C119.526 184.266 120.1 180.775 120.1 180.775H128.315C128.315 180.775 128.89 184.266 129.684 186.251C130.527 188.358 132.423 190.359 132.423 190.359L136.53 194.466C136.53 194.466 141.493 195.836 144.745 195.836C147.997 195.836 149.912 195.602 152.96 194.466C155.881 193.378 157.666 192.627 159.805 190.359C161.128 188.957 165.283 182.144 165.283 182.144C165.283 182.144 166.889 178.437 169.391 180.775C170.264 181.591 170.185 184.266 169.391 186.252C168.548 188.358 166.926 190.163 165.283 191.728C161.714 195.129 160.108 196.37 155.699 198.574C151.755 200.546 147.997 201.312 144.745 201.312C141.493 201.312 139.489 201.293 136.53 199.943C134.098 198.833 132.944 197.726 131.054 195.836C129.163 193.945 128.272 192.68 126.946 190.359C126.353 189.321 125.577 187.621 125.577 187.621L124.208 186.252L122.839 187.621C122.839 187.621 122.099 189.342 121.47 190.359C119.878 192.931 118.422 194.033 115.993 195.836C113.112 197.973 111.197 198.859 107.778 199.943C104.678 200.926 99.093 200.528 94.0879 198.574C89.1068 196.629 87.5626 195.163 84.5028 191.729Z" fill="url(#paint10_radial_275_15)" stroke="black"/>
<g id="aux-group-oreja-izq">
<g id="aux-oreja-out-izq" filter="url(#filter2_dd_275_15)">
<path d="M80.832 44.6219L88.8867 61.0516C88.8867 61.0516 75.1701 68.0381 68.75 72.0047C58.584 78.2855 53.5162 84.601 48.6132 89.8035C43.0767 95.6782 37.9035 102.735 32.5038 111.71C26.0642 122.413 19.0793 140.462 19.0793 140.462C19.0793 140.462 17.5995 132.913 16.3944 128.139C15.4427 124.37 14.6611 122.325 13.7095 118.555C12.5043 113.782 12.0731 111.045 11.0246 106.233C9.97604 101.421 9.34046 98.7336 8.33965 93.9109C7.23263 88.5764 6.42382 85.6155 5.65475 80.2195C4.59628 72.7929 4.55408 68.5521 4.3123 61.0516C4.10558 54.6388 3.72734 51.0102 4.3123 44.6218C4.8573 38.6698 5.7617 35.3311 6.9972 29.5613C8.05837 24.6057 8.67838 21.7117 11.0246 17.2391C14.3517 10.8963 16.5778 6.26942 23.1066 3.54767C27.0191 1.91663 29.6356 1.80235 33.8462 2.17853C37.6483 2.51822 39.717 3.42772 43.2434 4.91681C47.1486 6.56589 49.1721 7.92975 52.6405 10.3934C56.0006 12.78 60.6952 17.2391 60.6952 17.2391C60.6952 17.2391 67.615 24.4353 71.4349 29.5613C75.5709 35.1117 80.832 44.6219 80.832 44.6219Z" fill="url(#paint11_radial_275_15)"/>
<path d="M80.832 44.6219L88.8867 61.0516C88.8867 61.0516 75.1701 68.0381 68.75 72.0047C58.584 78.2855 53.5162 84.601 48.6132 89.8035C43.0767 95.6782 37.9035 102.735 32.5038 111.71C26.0642 122.413 19.0793 140.462 19.0793 140.462C19.0793 140.462 17.5995 132.913 16.3944 128.139C15.4427 124.37 14.6611 122.325 13.7095 118.555C12.5043 113.782 12.0731 111.045 11.0246 106.233C9.97604 101.421 9.34046 98.7336 8.33965 93.9109C7.23263 88.5764 6.42382 85.6155 5.65475 80.2195C4.59628 72.7929 4.55408 68.5521 4.3123 61.0516C4.10558 54.6388 3.72734 51.0102 4.3123 44.6218C4.8573 38.6698 5.7617 35.3311 6.9972 29.5613C8.05837 24.6057 8.67838 21.7117 11.0246 17.2391C14.3517 10.8963 16.5778 6.26942 23.1066 3.54767C27.0191 1.91663 29.6356 1.80235 33.8462 2.17853C37.6483 2.51822 39.717 3.42772 43.2434 4.91681C47.1486 6.56589 49.1721 7.92975 52.6405 10.3934C56.0006 12.78 60.6952 17.2391 60.6952 17.2391C60.6952 17.2391 67.615 24.4353 71.4349 29.5613C75.5709 35.1117 80.832 44.6219 80.832 44.6219Z" fill="url(#paint12_radial_275_15)"/>
</g>
<path id="aux-oreja-in-izq" d="M66.0657 51.4672C69.8024 57.3048 75.4629 66.5278 75.4629 66.5278C75.4629 66.5278 67.7742 71.0859 63.3808 74.7426C58.7855 78.5674 55.4928 81.4183 51.2988 85.6957C46.5804 90.5079 44.8386 92.7965 40.5592 98.018C36.455 103.026 31.162 111.709 31.162 111.709C31.162 111.709 27.1951 107.634 25.7922 104.864C22.9761 99.3036 21.7648 96.6495 20.4224 89.8034C19.0799 82.9574 18.4636 77.4117 17.7375 69.2663C17.1204 62.3439 17.4817 58.4338 17.7375 51.4672C17.9956 44.4394 17.4106 41.247 19.0799 35.0378C20.4453 29.9592 21.6794 26.305 24.4497 22.7153C26.526 20.025 27.8553 17.8285 31.162 17.2387C34.4281 16.6562 39.2167 19.977 39.2167 19.977C39.2167 19.977 45.1614 24.7419 48.6139 28.1919C52.5945 32.1697 54.6207 34.634 58.011 39.145C61.4608 43.7351 62.9658 46.6244 66.0657 51.4672Z" fill="url(#paint13_radial_275_15)"/>
</g>
</g>
<defs>
<filter id="filter0_dd_275_15" x="153.344" y="0" width="94.5742" height="146.462" filterUnits="userSpaceOnUse" color-interpolation-filters="sRGB">
<feFlood flood-opacity="0" result="BackgroundImageFix"/>
<feColorMatrix in="SourceAlpha" type="matrix" values="0 0 0 0 0 0 0 0 0 0 0 0 0 0 0 0 0 0 127 0" result="hardAlpha"/>
<feOffset/>
<feGaussianBlur stdDeviation="1"/>
<feComposite in2="hardAlpha" operator="out"/>
<feColorMatrix type="matrix" values="0 0 0 0 0 0 0 0 0 0 0 0 0 0 0 0 0 0 0.2 0"/>
<feBlend mode="normal" in2="BackgroundImageFix" result="effect1_dropShadow_275_15"/>
<feColorMatrix in="SourceAlpha" type="matrix" values="0 0 0 0 0 0 0 0 0 0 0 0 0 0 0 0 0 0 127 0" result="hardAlpha"/>
<feOffset dy="2"/>
<feGaussianBlur stdDeviation="2"/>
<feComposite in2="hardAlpha" operator="out"/>
<feColorMatrix type="matrix" values="0 0 0 0 0.890196 0 0 0 0 0.478431 0 0 0 0 0.0862745 0 0 0 0.3 0"/>
<feBlend mode="normal" in2="effect1_dropShadow_275_15" result="effect2_dropShadow_275_15"/>
<feBlend mode="normal" in="SourceGraphic" in2="effect2_dropShadow_275_15" result="shape"/>
</filter>
<filter id="filter1_d_275_15" x="5.47656" y="53.9441" width="235.611" height="230.832" filterUnits="userSpaceOnUse" color-interpolation-filters="sRGB">
<feFlood flood-opacity="0" result="BackgroundImageFix"/>
<feColorMatrix in="SourceAlpha" type="matrix" values="0 0 0 0 0 0 0 0 0 0 0 0 0 0 0 0 0 0 127 0" result="hardAlpha"/>
<feOffset dy="1"/>
<feGaussianBlur stdDeviation="2"/>
<feComposite in2="hardAlpha" operator="out"/>
<feColorMatrix type="matrix" values="0 0 0 0 0 0 0 0 0 0 0 0 0 0 0 0 0 0 0.25 0"/>
<feBlend mode="normal" in2="BackgroundImageFix" result="effect1_dropShadow_275_15"/>
<feBlend mode="normal" in="SourceGraphic" in2="effect1_dropShadow_275_15" result="shape"/>
</filter>
<filter id="filter2_dd_275_15" x="0" y="0" width="92.8867" height="146.462" filterUnits="userSpaceOnUse" color-interpolation-filters="sRGB">
<feFlood flood-opacity="0" result="BackgroundImageFix"/>
<feColorMatrix in="SourceAlpha" type="matrix" values="0 0 0 0 0 0 0 0 0 0 0 0 0 0 0 0 0 0 127 0" result="hardAlpha"/>
<feOffset/>
<feGaussianBlur stdDeviation="1"/>
<feComposite in2="hardAlpha" operator="out"/>
<feColorMatrix type="matrix" values="0 0 0 0 0 0 0 0 0 0 0 0 0 0 0 0 0 0 0.2 0"/>
<feBlend mode="normal" in2="BackgroundImageFix" result="effect1_dropShadow_275_15"/>
<feColorMatrix in="SourceAlpha" type="matrix" values="0 0 0 0 0 0 0 0 0 0 0 0 0 0 0 0 0 0 127 0" result="hardAlpha"/>
<feOffset dy="2"/>
<feGaussianBlur stdDeviation="2"/>
<feComposite in2="hardAlpha" operator="out"/>
<feColorMatrix type="matrix" values="0 0 0 0 0.890196 0 0 0 0 0.478431 0 0 0 0 0.0862745 0 0 0 0.3 0"/>
<feBlend mode="normal" in2="effect1_dropShadow_275_15" result="effect2_dropShadow_275_15"/>
<feBlend mode="normal" in="SourceGraphic" in2="effect2_dropShadow_275_15" result="shape"/>
</filter>
<radialGradient id="paint0_radial_275_15" cx="0" cy="0" r="1" gradientUnits="userSpaceOnUse" gradientTransform="translate(201.156 39.1453) rotate(127.482) scale(104.499 85.3873)">
<stop stop-color="#E27915"/>
<stop offset="0.450907" stop-color="#FDB454"/>
<stop offset="0.93654" stop-color="#FFB858"/>
</radialGradient>
<radialGradient id="paint1_radial_275_15" cx="0" cy="0" r="1" gradientUnits="userSpaceOnUse" gradientTransform="translate(200.645 64.4398) rotate(90) scale(47.2696 29.6101)">
<stop stop-color="#EECAAA"/>
<stop offset="0.422877" stop-color="#EEBC90"/>
<stop offset="1" stop-color="#D99C69"/>
</radialGradient>
<radialGradient id="paint2_radial_275_15" cx="0" cy="0" r="1" gradientUnits="userSpaceOnUse" gradientTransform="translate(68.3496 99.3874) rotate(56.1254) scale(235.814 209.516)">
<stop offset="0.0364311" stop-color="#FDFDFD"/>
<stop offset="0.450506" stop-color="#FAFAFA"/>
<stop offset="0.834873" stop-color="#E5E5E5"/>
</radialGradient>
<radialGradient id="paint3_radial_275_15" cx="0" cy="0" r="1" gradientUnits="userSpaceOnUse" gradientTransform="translate(110.793 202.073) rotate(37.304) scale(36.1463 41.5013)">
<stop offset="0.139423" stop-color="#F74F27"/>
<stop offset="1" stop-color="#B7310D"/>
</radialGradient>
<radialGradient id="paint4_radial_275_15" cx="0" cy="0" r="1" gradientUnits="userSpaceOnUse" gradientTransform="translate(109.148 152.023) rotate(-160.942) scale(79.6693 56.2777)">
<stop stop-color="#E3882B"/>
<stop offset="0.575292" stop-color="#FBB360"/>
<stop offset="1" stop-color="#FDB664"/>
</radialGradient>
<radialGradient id="paint5_radial_275_15" cx="0" cy="0" r="1" gradientTransform="matrix(-95.8398 -91.7324 75.4455 -79.7635 139.545 200.525)" gradientUnits="userSpaceOnUse">
<stop offset="0.149938" stop-color="#E3882B"/>
<stop offset="0.369598" stop-color="#E79034"/>
<stop offset="0.841905" stop-color="#F3A44D"/>
<stop offset="1" stop-color="#FDB664"/>
</radialGradient>
<radialGradient id="paint6_radial_275_15" cx="0" cy="0" r="1" gradientUnits="userSpaceOnUse" gradientTransform="translate(203.895 143.021) rotate(-159.734) scale(94.8667 79.0556)">
<stop offset="0.149938" stop-color="#E3882B"/>
<stop offset="0.369598" stop-color="#E79034"/>
<stop offset="0.841905" stop-color="#F3A44D"/>
<stop offset="1" stop-color="#FDB664"/>
</radialGradient>
<radialGradient id="paint7_radial_275_15" cx="0" cy="0" r="1" gradientUnits="userSpaceOnUse" gradientTransform="translate(154.48 126.227) rotate(74.8258) scale(18.4416 18.0212)">
<stop stop-color="#666666"/>
<stop offset="0.75" stop-color="#111111"/>
<stop offset="1"/>
</radialGradient>
<radialGradient id="paint8_radial_275_15" cx="0" cy="0" r="1" gradientTransform="matrix(-4.82733 17.3935 -17.3935 -4.60976 93.4387 130.522)" gradientUnits="userSpaceOnUse">
<stop stop-color="#666666"/>
<stop offset="0.75" stop-color="#111111"/>
<stop offset="1"/>
</radialGradient>
<radialGradient id="paint9_radial_275_15" cx="0" cy="0" r="1" gradientUnits="userSpaceOnUse" gradientTransform="translate(118.732 158.869) rotate(60.6823) scale(29.619 28.3352)">
<stop stop-color="#666666"/>
<stop offset="0.407116" stop-color="#222222"/>
<stop offset="1"/>
</radialGradient>
<radialGradient id="paint10_radial_275_15" cx="0" cy="0" r="1" gradientTransform="matrix(29.006 17.9655 -49.412 9.65173 114.625 186.073)" gradientUnits="userSpaceOnUse">
<stop stop-color="#222222"/>
<stop offset="0.407116" stop-color="#222222"/>
<stop offset="1"/>
</radialGradient>
<radialGradient id="paint11_radial_275_15" cx="0" cy="0" r="1" gradientUnits="userSpaceOnUse" gradientTransform="translate(20.4297 84.1484) rotate(44.4438) scale(99.7219 75.9934)">
<stop stop-color="#E27915"/>
<stop offset="0.450907" stop-color="#FDB454"/>
<stop offset="0.93654" stop-color="#FFB858"/>
</radialGradient>
<radialGradient id="paint12_radial_275_15" cx="0" cy="0" r="1" gradientTransform="matrix(62.35 82.9246 66.4376 -51.9596 45.9283 39.1453)" gradientUnits="userSpaceOnUse">
<stop offset="0.00643931" stop-color="#E27915"/>
<stop offset="0.450907" stop-color="#FDB454"/>
<stop offset="0.93654" stop-color="#FFB858"/>
</radialGradient>
<radialGradient id="paint13_radial_275_15" cx="0" cy="0" r="1" gradientUnits="userSpaceOnUse" gradientTransform="translate(46.43 64.4398) rotate(90) scale(47.2696 29.0329)">
<stop stop-color="#EECAAA"/>
<stop offset="0.422877" stop-color="#EEBC90"/>
<stop offset="1" stop-color="#D99C69"/>
</radialGradient>
</defs>
</svg>
