<svg width="153" height="181" viewBox="0 0 153 181" fill="none" xmlns="http://www.w3.org/2000/svg">
<g id="aux-luna" opacity="0.5" filter="url(#filter0_diii_285_16)">
<g clip-path="url(#paint0_diamond_285_16_clip_path)" data-figma-skip-parse="true"><g transform="matrix(0.0531359 -0.0867661 0.0366298 0.0224322 104.572 142.095)"><rect x="0" y="0" width="1436.33" height="3771.87" fill="url(#paint0_diamond_285_16)" opacity="1" shape-rendering="crispEdges"/><rect x="0" y="0" width="1436.33" height="3771.87" transform="scale(1 -1)" fill="url(#paint0_diamond_285_16)" opacity="1" shape-rendering="crispEdges"/><rect x="0" y="0" width="1436.33" height="3771.87" transform="scale(-1 1)" fill="url(#paint0_diamond_285_16)" opacity="1" shape-rendering="crispEdges"/><rect x="0" y="0" width="1436.33" height="3771.87" transform="scale(-1)" fill="url(#paint0_diamond_285_16)" opacity="1" shape-rendering="crispEdges"/></g></g><path id="Vector" d="M60.1804 2.52888C60.8556 2.16767 71.7247 1.54544 79.0134 2.52888C88.7272 3.83951 94.0904 5.94798 102.891 10.2638C108.553 13.0408 111.719 14.7759 116.679 18.6714C120.989 22.0563 123.069 24.381 126.768 28.4242C129.981 31.9354 131.731 33.9726 134.503 37.8407C137.418 41.9077 138.915 44.4412 141.229 48.7461C143.51 52.9884 144.466 55.2362 146.274 59.7004C147.989 63.9346 149.048 66.0713 150.31 70.4621C151.337 74.0377 151.713 76.3839 152.294 80.008L152.327 80.2149C153.015 84.5021 152.931 86.9476 153 91.3128C153 91.3128 152.717 101.476 151.318 107.792C150.276 112.496 149.577 114.689 147.955 119.226C146.191 124.164 144.957 127.334 142.575 132.006C140.108 136.842 138.065 139.179 135.176 143.776C132.287 148.373 127.105 152.856 127.105 152.856C127.105 152.856 121.355 158.415 117.352 161.6C113.816 164.414 111.874 166.111 107.935 168.326C104.913 170.026 102.876 171.046 99.5 172.5C96.1665 173.935 94.3734 174.392 90.784 175.725C86.8907 177.171 84.7326 178.116 80.6949 179.088C76.0541 180.205 73.356 180.544 68.588 180.769C66.1754 180.884 64.7837 180.844 62.4351 180.776L62.1982 180.769C57.4557 180.634 54.7864 180.443 50.0913 179.761C45.5797 179.105 43.0428 178.651 38.657 177.406C33.9983 176.084 31.4567 174.994 27.0533 173.106L26.8864 173.034C22.7295 171.252 20.2802 170.413 16.461 167.99C13.3777 166.034 11.8354 164.648 9.0624 162.273C6.16993 159.795 2 155.547 2 155.547V154.201C2 154.201 5.47965 154.656 7.71715 154.874C13.6052 155.448 16.9354 155.622 22.8508 155.547C27.4546 155.488 30.0588 155.492 34.6214 154.874C39.0118 154.28 41.4735 153.785 45.7194 152.52C50.7444 151.022 53.4224 149.717 58.1626 147.475C62.1993 145.566 64.4783 144.482 68.2517 142.095C71.9807 139.735 73.8999 138.143 77.3318 135.369C80.7333 132.619 82.7565 131.169 85.7394 127.97C88.3555 125.165 89.6212 123.397 91.7929 120.235C94.2924 116.596 95.5082 114.417 97.51 110.482C99.27 107.023 100.304 105.078 101.546 101.402C102.84 97.5688 103.319 95.3168 103.9 91.3128C104.481 87.3089 104.151 77.2469 102.555 68.4443C101.537 62.8337 98.855 54.3195 98.855 54.3195C98.855 54.3195 95.6721 46.5856 93.1381 41.8763C90.8754 37.6712 89.435 35.3986 86.7483 31.4509C84.1621 27.6508 82.7146 25.4924 79.686 22.0344C76.3201 18.1915 74.2603 16.1434 70.2695 12.9543C66.5702 9.99812 64.2619 8.62912 60.1804 6.22821C59.2677 5.69135 57.8263 4.88299 57.8263 4.88299C57.8263 4.88299 58.1166 3.98373 58.4989 3.53778C58.7871 3.20151 59.5051 2.8901 60.1804 2.52888Z" data-figma-gradient-fill="{&#34;type&#34;:&#34;GRADIENT_DIAMOND&#34;,&#34;stops&#34;:[{&#34;color&#34;:{&#34;r&#34;:0.62307697534561157,&#34;g&#34;:0.51337373256683350,&#34;b&#34;:0.097655259072780609,&#34;a&#34;:1.0},&#34;position&#34;:0.0},{&#34;color&#34;:{&#34;r&#34;:0.91153848171234131,&#34;g&#34;:0.74562656879425049,&#34;b&#34;:0.0026293308474123478,&#34;a&#34;:1.0},&#34;position&#34;:1.0}],&#34;stopsVar&#34;:[{&#34;color&#34;:{&#34;r&#34;:0.62307697534561157,&#34;g&#34;:0.51337373256683350,&#34;b&#34;:0.097655259072780609,&#34;a&#34;:1.0},&#34;position&#34;:0.0},{&#34;color&#34;:{&#34;r&#34;:0.91153848171234131,&#34;g&#34;:0.74562656879425049,&#34;b&#34;:0.0026293308474123478,&#34;a&#34;:1.0},&#34;position&#34;:1.0}],&#34;transform&#34;:{&#34;m00&#34;:106.27171325683594,&#34;m01&#34;:73.259544372558594,&#34;m02&#34;:14.80676269531250,&#34;m10&#34;:-173.53228759765625,&#34;m11&#34;:44.864376068115234,&#34;m12&#34;:206.42857360839844},&#34;opacity&#34;:1.0,&#34;blendMode&#34;:&#34;NORMAL&#34;,&#34;visible&#34;:true}"/>
<g clip-path="url(#paint1_diamond_285_16_clip_path)" data-figma-skip-parse="true"><g transform="matrix(0.0615434 0.0867662 -0.0366298 0.0259816 116.679 56.0011)"><rect x="0" y="0" width="1167.87" height="3722.19" fill="url(#paint1_diamond_285_16)" opacity="1" shape-rendering="crispEdges"/><rect x="0" y="0" width="1167.87" height="3722.19" transform="scale(1 -1)" fill="url(#paint1_diamond_285_16)" opacity="1" shape-rendering="crispEdges"/><rect x="0" y="0" width="1167.87" height="3722.19" transform="scale(-1 1)" fill="url(#paint1_diamond_285_16)" opacity="1" shape-rendering="crispEdges"/><rect x="0" y="0" width="1167.87" height="3722.19" transform="scale(-1)" fill="url(#paint1_diamond_285_16)" opacity="1" shape-rendering="crispEdges"/></g></g><path id="Vector_2" d="M60.1804 2.52888C60.8556 2.16767 71.7247 1.54544 79.0134 2.52888C88.7272 3.83951 94.0904 5.94798 102.891 10.2638C108.553 13.0408 111.719 14.7759 116.679 18.6714C120.989 22.0563 123.069 24.381 126.768 28.4242C129.981 31.9354 131.731 33.9726 134.503 37.8407C137.418 41.9077 138.915 44.4412 141.229 48.7461C143.51 52.9884 144.466 55.2362 146.274 59.7004C147.989 63.9346 149.048 66.0713 150.31 70.4621C151.337 74.0377 151.713 76.3839 152.294 80.008L152.327 80.2149C153.015 84.5021 152.931 86.9476 153 91.3128C153 91.3128 152.717 101.476 151.318 107.792C150.276 112.496 149.577 114.689 147.955 119.226C146.191 124.164 144.957 127.334 142.575 132.006C140.108 136.842 138.065 139.179 135.176 143.776C132.287 148.373 127.105 152.856 127.105 152.856C127.105 152.856 121.355 158.415 117.352 161.6C113.816 164.414 111.874 166.111 107.935 168.326C104.913 170.026 102.876 171.046 99.5 172.5C96.1665 173.935 94.3734 174.392 90.784 175.725C86.8907 177.171 84.7326 178.116 80.6949 179.088C76.0541 180.205 73.356 180.544 68.588 180.769C66.1754 180.884 64.7837 180.844 62.4351 180.776L62.1982 180.769C57.4557 180.634 54.7864 180.443 50.0913 179.761C45.5797 179.105 43.0428 178.651 38.657 177.406C33.9983 176.084 31.4567 174.994 27.0533 173.106L26.8864 173.034C22.7295 171.252 20.2802 170.413 16.461 167.99C13.3777 166.034 11.8354 164.648 9.0624 162.273C6.16993 159.795 2 155.547 2 155.547V154.201C2 154.201 5.47965 154.656 7.71715 154.874C13.6052 155.448 16.9354 155.622 22.8508 155.547C27.4546 155.488 30.0588 155.492 34.6214 154.874C39.0118 154.28 41.4735 153.785 45.7194 152.52C50.7444 151.022 53.4224 149.717 58.1626 147.475C62.1993 145.566 64.4783 144.482 68.2517 142.095C71.9807 139.735 73.8999 138.143 77.3318 135.369C80.7333 132.619 82.7565 131.169 85.7394 127.97C88.3555 125.165 89.6212 123.397 91.7929 120.235C94.2924 116.596 95.5082 114.417 97.51 110.482C99.27 107.023 100.304 105.078 101.546 101.402C102.84 97.5688 103.319 95.3168 103.9 91.3128C104.481 87.3089 104.151 77.2469 102.555 68.4443C101.537 62.8337 98.855 54.3195 98.855 54.3195C98.855 54.3195 95.6721 46.5856 93.1381 41.8763C90.8754 37.6712 89.435 35.3986 86.7483 31.4509C84.1621 27.6508 82.7146 25.4924 79.686 22.0344C76.3201 18.1915 74.2603 16.1434 70.2695 12.9543C66.5702 9.99812 64.2619 8.62912 60.1804 6.22821C59.2677 5.69135 57.8263 4.88299 57.8263 4.88299C57.8263 4.88299 58.1166 3.98373 58.4989 3.53778C58.7871 3.20151 59.5051 2.8901 60.1804 2.52888Z" data-figma-gradient-fill="{&#34;type&#34;:&#34;GRADIENT_DIAMOND&#34;,&#34;stops&#34;:[{&#34;color&#34;:{&#34;r&#34;:0.76826918125152588,&#34;g&#34;:0.62467342615127563,&#34;b&#34;:0.080520473420619965,&#34;a&#34;:1.0},&#34;position&#34;:0.0},{&#34;color&#34;:{&#34;r&#34;:0.91153848171234131,&#34;g&#34;:0.74562656879425049,&#34;b&#34;:0.0026293308474123478,&#34;a&#34;:0.50},&#34;position&#34;:1.0}],&#34;stopsVar&#34;:[{&#34;color&#34;:{&#34;r&#34;:0.76826918125152588,&#34;g&#34;:0.62467342615127563,&#34;b&#34;:0.080520473420619965,&#34;a&#34;:1.0},&#34;position&#34;:0.0},{&#34;color&#34;:{&#34;r&#34;:0.91153848171234131,&#34;g&#34;:0.74562656879425049,&#34;b&#34;:0.0026293308474123478,&#34;a&#34;:0.50},&#34;position&#34;:1.0}],&#34;transform&#34;:{&#34;m00&#34;:123.08686828613281,&#34;m01&#34;:-73.259552001953125,&#34;m02&#34;:91.765632629394531,&#34;m10&#34;:173.53230285644531,&#34;m11&#34;:51.963161468505859,&#34;m12&#34;:-56.746646881103516},&#34;opacity&#34;:1.0,&#34;blendMode&#34;:&#34;NORMAL&#34;,&#34;visible&#34;:true}"/>
<path id="Vector_3" d="M60.1804 2.52888C60.8556 2.16767 71.7247 1.54544 79.0134 2.52888C88.7272 3.83951 94.0904 5.94798 102.891 10.2638C108.553 13.0408 111.719 14.7759 116.679 18.6714C120.989 22.0563 123.069 24.381 126.768 28.4242C129.981 31.9354 131.731 33.9726 134.503 37.8407C137.418 41.9077 138.915 44.4412 141.229 48.7461C143.51 52.9884 144.466 55.2362 146.274 59.7004C147.989 63.9346 149.048 66.0713 150.31 70.4621C151.337 74.0377 151.713 76.3839 152.294 80.008L152.327 80.2149C153.015 84.5021 152.931 86.9476 153 91.3128C153 91.3128 152.717 101.476 151.318 107.792C150.276 112.496 149.577 114.689 147.955 119.226C146.191 124.164 144.957 127.334 142.575 132.006C140.108 136.842 138.065 139.179 135.176 143.776C132.287 148.373 127.105 152.856 127.105 152.856C127.105 152.856 121.355 158.415 117.352 161.6C113.816 164.414 111.874 166.111 107.935 168.326C104.913 170.026 102.876 171.046 99.5 172.5C96.1665 173.935 94.3734 174.392 90.784 175.725C86.8907 177.171 84.7326 178.116 80.6949 179.088C76.0541 180.205 73.356 180.544 68.588 180.769C66.1754 180.884 64.7837 180.844 62.4351 180.776L62.1982 180.769C57.4557 180.634 54.7864 180.443 50.0913 179.761C45.5797 179.105 43.0428 178.651 38.657 177.406C33.9983 176.084 31.4567 174.994 27.0533 173.106L26.8864 173.034C22.7295 171.252 20.2802 170.413 16.461 167.99C13.3777 166.034 11.8354 164.648 9.0624 162.273C6.16993 159.795 2 155.547 2 155.547V154.201C2 154.201 5.47965 154.656 7.71715 154.874C13.6052 155.448 16.9354 155.622 22.8508 155.547C27.4546 155.488 30.0588 155.492 34.6214 154.874C39.0118 154.28 41.4735 153.785 45.7194 152.52C50.7444 151.022 53.4224 149.717 58.1626 147.475C62.1993 145.566 64.4783 144.482 68.2517 142.095C71.9807 139.735 73.8999 138.143 77.3318 135.369C80.7333 132.619 82.7565 131.169 85.7394 127.97C88.3555 125.165 89.6212 123.397 91.7929 120.235C94.2924 116.596 95.5082 114.417 97.51 110.482C99.27 107.023 100.304 105.078 101.546 101.402C102.84 97.5688 103.319 95.3168 103.9 91.3128C104.481 87.3089 104.151 77.2469 102.555 68.4443C101.537 62.8337 98.855 54.3195 98.855 54.3195C98.855 54.3195 95.6721 46.5856 93.1381 41.8763C90.8754 37.6712 89.435 35.3986 86.7483 31.4509C84.1621 27.6508 82.7146 25.4924 79.686 22.0344C76.3201 18.1915 74.2603 16.1434 70.2695 12.9543C66.5702 9.99812 64.2619 8.62912 60.1804 6.22821C59.2677 5.69135 57.8263 4.88299 57.8263 4.88299C57.8263 4.88299 58.1166 3.98373 58.4989 3.53778C58.7871 3.20151 59.5051 2.8901 60.1804 2.52888Z" fill="url(#paint2_radial_285_16)" fill-opacity="0.2"/>
<g clip-path="url(#paint3_diamond_285_16_clip_path)" data-figma-skip-parse="true"><g transform="matrix(-0.0808809 0.0389396 -0.0155836 -0.0323685 158.381 141.902)"><rect x="0" y="0" width="1772.69" height="5434.31" fill="url(#paint3_diamond_285_16)" opacity="1" shape-rendering="crispEdges"/><rect x="0" y="0" width="1772.69" height="5434.31" transform="scale(1 -1)" fill="url(#paint3_diamond_285_16)" opacity="1" shape-rendering="crispEdges"/><rect x="0" y="0" width="1772.69" height="5434.31" transform="scale(-1 1)" fill="url(#paint3_diamond_285_16)" opacity="1" shape-rendering="crispEdges"/><rect x="0" y="0" width="1772.69" height="5434.31" transform="scale(-1)" fill="url(#paint3_diamond_285_16)" opacity="1" shape-rendering="crispEdges"/></g></g><path id="Vector_4" d="M60.1804 2.52888C60.8556 2.16767 71.7247 1.54544 79.0134 2.52888C88.7272 3.83951 94.0904 5.94798 102.891 10.2638C108.553 13.0408 111.719 14.7759 116.679 18.6714C120.989 22.0563 123.069 24.381 126.768 28.4242C129.981 31.9354 131.731 33.9726 134.503 37.8407C137.418 41.9077 138.915 44.4412 141.229 48.7461C143.51 52.9884 144.466 55.2362 146.274 59.7004C147.989 63.9346 149.048 66.0713 150.31 70.4621C151.337 74.0377 151.713 76.3839 152.294 80.008L152.327 80.2149C153.015 84.5021 152.931 86.9476 153 91.3128C153 91.3128 152.717 101.476 151.318 107.792C150.276 112.496 149.577 114.689 147.955 119.226C146.191 124.164 144.957 127.334 142.575 132.006C140.108 136.842 138.065 139.179 135.176 143.776C132.287 148.373 127.105 152.856 127.105 152.856C127.105 152.856 121.355 158.415 117.352 161.6C113.816 164.414 111.874 166.111 107.935 168.326C104.913 170.026 102.876 171.046 99.5 172.5C96.1665 173.935 94.3734 174.392 90.784 175.725C86.8907 177.171 84.7326 178.116 80.6949 179.088C76.0541 180.205 73.356 180.544 68.588 180.769C66.1754 180.884 64.7837 180.844 62.4351 180.776L62.1982 180.769C57.4557 180.634 54.7864 180.443 50.0913 179.761C45.5797 179.105 43.0428 178.651 38.657 177.406C33.9983 176.084 31.4567 174.994 27.0533 173.106L26.8864 173.034C22.7295 171.252 20.2802 170.413 16.461 167.99C13.3777 166.034 11.8354 164.648 9.0624 162.273C6.16993 159.795 2 155.547 2 155.547V154.201C2 154.201 5.47965 154.656 7.71715 154.874C13.6052 155.448 16.9354 155.622 22.8508 155.547C27.4546 155.488 30.0588 155.492 34.6214 154.874C39.0118 154.28 41.4735 153.785 45.7194 152.52C50.7444 151.022 53.4224 149.717 58.1626 147.475C62.1993 145.566 64.4783 144.482 68.2517 142.095C71.9807 139.735 73.8999 138.143 77.3318 135.369C80.7333 132.619 82.7565 131.169 85.7394 127.97C88.3555 125.165 89.6212 123.397 91.7929 120.235C94.2924 116.596 95.5082 114.417 97.51 110.482C99.27 107.023 100.304 105.078 101.546 101.402C102.84 97.5688 103.319 95.3168 103.9 91.3128C104.481 87.3089 104.151 77.2469 102.555 68.4443C101.537 62.8337 98.855 54.3195 98.855 54.3195C98.855 54.3195 95.6721 46.5856 93.1381 41.8763C90.8754 37.6712 89.435 35.3986 86.7483 31.4509C84.1621 27.6508 82.7146 25.4924 79.686 22.0344C76.3201 18.1915 74.2603 16.1434 70.2695 12.9543C66.5702 9.99812 64.2619 8.62912 60.1804 6.22821C59.2677 5.69135 57.8263 4.88299 57.8263 4.88299C57.8263 4.88299 58.1166 3.98373 58.4989 3.53778C58.7871 3.20151 59.5051 2.8901 60.1804 2.52888Z" data-figma-gradient-fill="{&#34;type&#34;:&#34;GRADIENT_DIAMOND&#34;,&#34;stops&#34;:[{&#34;color&#34;:{&#34;r&#34;:0.67692303657531738,&#34;g&#34;:0.51902884244918823,&#34;b&#34;:0.056627094745635986,&#34;a&#34;:0.250},&#34;position&#34;:0.0},{&#34;color&#34;:{&#34;r&#34;:0.0,&#34;g&#34;:0.0,&#34;b&#34;:0.0,&#34;a&#34;:0.0},&#34;position&#34;:1.0}],&#34;stopsVar&#34;:[{&#34;color&#34;:{&#34;r&#34;:0.67692303657531738,&#34;g&#34;:0.51902884244918823,&#34;b&#34;:0.056627094745635986,&#34;a&#34;:0.250},&#34;position&#34;:0.0},{&#34;color&#34;:{&#34;r&#34;:0.0,&#34;g&#34;:0.0,&#34;b&#34;:0.0,&#34;a&#34;:0.0},&#34;position&#34;:1.0}],&#34;transform&#34;:{&#34;m00&#34;:-161.76170349121094,&#34;m01&#34;:-31.167184829711914,&#34;m02&#34;:254.84526062011719,&#34;m10&#34;:77.879119873046875,&#34;m11&#34;:-64.736968994140625,&#34;m12&#34;:135.33094787597656},&#34;opacity&#34;:1.0,&#34;blendMode&#34;:&#34;NORMAL&#34;,&#34;visible&#34;:true}"/>
<g clip-path="url(#paint4_diamond_285_16_clip_path)" data-figma-skip-parse="true"><g transform="matrix(-0.0860935 0.0215234 -0.00723524 -0.028941 88.0935 185.958)"><rect x="0" y="0" width="1225.98" height="6723.01" fill="url(#paint4_diamond_285_16)" opacity="1" shape-rendering="crispEdges"/><rect x="0" y="0" width="1225.98" height="6723.01" transform="scale(1 -1)" fill="url(#paint4_diamond_285_16)" opacity="1" shape-rendering="crispEdges"/><rect x="0" y="0" width="1225.98" height="6723.01" transform="scale(-1 1)" fill="url(#paint4_diamond_285_16)" opacity="1" shape-rendering="crispEdges"/><rect x="0" y="0" width="1225.98" height="6723.01" transform="scale(-1)" fill="url(#paint4_diamond_285_16)" opacity="1" shape-rendering="crispEdges"/></g></g><path id="Vector_5" d="M60.1804 2.52888C60.8556 2.16767 71.7247 1.54544 79.0134 2.52888C88.7272 3.83951 94.0904 5.94798 102.891 10.2638C108.553 13.0408 111.719 14.7759 116.679 18.6714C120.989 22.0563 123.069 24.381 126.768 28.4242C129.981 31.9354 131.731 33.9726 134.503 37.8407C137.418 41.9077 138.915 44.4412 141.229 48.7461C143.51 52.9884 144.466 55.2362 146.274 59.7004C147.989 63.9346 149.048 66.0713 150.31 70.4621C151.337 74.0377 151.713 76.3839 152.294 80.008L152.327 80.2149C153.015 84.5021 152.931 86.9476 153 91.3128C153 91.3128 152.717 101.476 151.318 107.792C150.276 112.496 149.577 114.689 147.955 119.226C146.191 124.164 144.957 127.334 142.575 132.006C140.108 136.842 138.065 139.179 135.176 143.776C132.287 148.373 127.105 152.856 127.105 152.856C127.105 152.856 121.355 158.415 117.352 161.6C113.816 164.414 111.874 166.111 107.935 168.326C104.913 170.026 102.876 171.046 99.5 172.5C96.1665 173.935 94.3734 174.392 90.784 175.725C86.8907 177.171 84.7326 178.116 80.6949 179.088C76.0541 180.205 73.356 180.544 68.588 180.769C66.1754 180.884 64.7837 180.844 62.4351 180.776L62.1982 180.769C57.4557 180.634 54.7864 180.443 50.0913 179.761C45.5797 179.105 43.0428 178.651 38.657 177.406C33.9983 176.084 31.4567 174.994 27.0533 173.106L26.8864 173.034C22.7295 171.252 20.2802 170.413 16.461 167.99C13.3777 166.034 11.8354 164.648 9.0624 162.273C6.16993 159.795 2 155.547 2 155.547V154.201C2 154.201 5.47965 154.656 7.71715 154.874C13.6052 155.448 16.9354 155.622 22.8508 155.547C27.4546 155.488 30.0588 155.492 34.6214 154.874C39.0118 154.28 41.4735 153.785 45.7194 152.52C50.7444 151.022 53.4224 149.717 58.1626 147.475C62.1993 145.566 64.4783 144.482 68.2517 142.095C71.9807 139.735 73.8999 138.143 77.3318 135.369C80.7333 132.619 82.7565 131.169 85.7394 127.97C88.3555 125.165 89.6212 123.397 91.7929 120.235C94.2924 116.596 95.5082 114.417 97.51 110.482C99.27 107.023 100.304 105.078 101.546 101.402C102.84 97.5688 103.319 95.3168 103.9 91.3128C104.481 87.3089 104.151 77.2469 102.555 68.4443C101.537 62.8337 98.855 54.3195 98.855 54.3195C98.855 54.3195 95.6721 46.5856 93.1381 41.8763C90.8754 37.6712 89.435 35.3986 86.7483 31.4509C84.1621 27.6508 82.7146 25.4924 79.686 22.0344C76.3201 18.1915 74.2603 16.1434 70.2695 12.9543C66.5702 9.99812 64.2619 8.62912 60.1804 6.22821C59.2677 5.69135 57.8263 4.88299 57.8263 4.88299C57.8263 4.88299 58.1166 3.98373 58.4989 3.53778C58.7871 3.20151 59.5051 2.8901 60.1804 2.52888Z" data-figma-gradient-fill="{&#34;type&#34;:&#34;GRADIENT_DIAMOND&#34;,&#34;stops&#34;:[{&#34;color&#34;:{&#34;r&#34;:0.67692303657531738,&#34;g&#34;:0.51902884244918823,&#34;b&#34;:0.056627094745635986,&#34;a&#34;:0.250},&#34;position&#34;:0.0},{&#34;color&#34;:{&#34;r&#34;:0.0,&#34;g&#34;:0.0,&#34;b&#34;:0.0,&#34;a&#34;:0.0},&#34;position&#34;:1.0}],&#34;stopsVar&#34;:[{&#34;color&#34;:{&#34;r&#34;:0.67692303657531738,&#34;g&#34;:0.51902884244918823,&#34;b&#34;:0.056627094745635986,&#34;a&#34;:0.250},&#34;position&#34;:0.0},{&#34;color&#34;:{&#34;r&#34;:0.0,&#34;g&#34;:0.0,&#34;b&#34;:0.0,&#34;a&#34;:0.0},&#34;position&#34;:1.0}],&#34;transform&#34;:{&#34;m00&#34;:-172.18707275390625,&#34;m01&#34;:-14.470487594604492,&#34;m02&#34;:181.42231750488281,&#34;m10&#34;:43.046756744384766,&#34;m11&#34;:-57.88195800781250,&#34;m12&#34;:193.37527465820312},&#34;opacity&#34;:1.0,&#34;blendMode&#34;:&#34;NORMAL&#34;,&#34;visible&#34;:true}"/>
</g>
<defs>
<filter id="filter0_diii_285_16" x="0" y="0" width="153" height="184.842" filterUnits="userSpaceOnUse" color-interpolation-filters="sRGB">
<feFlood flood-opacity="0" result="BackgroundImageFix"/>
<feColorMatrix in="SourceAlpha" type="matrix" values="0 0 0 0 0 0 0 0 0 0 0 0 0 0 0 0 0 0 127 0" result="hardAlpha"/>
<feOffset dx="-1" dy="-1"/>
<feGaussianBlur stdDeviation="0.5"/>
<feComposite in2="hardAlpha" operator="out"/>
<feColorMatrix type="matrix" values="0 0 0 0 0 0 0 0 0 0 0 0 0 0 0 0 0 0 0.25 0"/>
<feBlend mode="normal" in2="BackgroundImageFix" result="effect1_dropShadow_285_16"/>
<feBlend mode="normal" in="SourceGraphic" in2="effect1_dropShadow_285_16" result="shape"/>
<feColorMatrix in="SourceAlpha" type="matrix" values="0 0 0 0 0 0 0 0 0 0 0 0 0 0 0 0 0 0 127 0" result="hardAlpha"/>
<feOffset dy="4"/>
<feGaussianBlur stdDeviation="2"/>
<feComposite in2="hardAlpha" operator="arithmetic" k2="-1" k3="1"/>
<feColorMatrix type="matrix" values="0 0 0 0 0 0 0 0 0 0 0 0 0 0 0 0 0 0 0.25 0"/>
<feBlend mode="normal" in2="shape" result="effect2_innerShadow_285_16"/>
<feColorMatrix in="SourceAlpha" type="matrix" values="0 0 0 0 0 0 0 0 0 0 0 0 0 0 0 0 0 0 127 0" result="hardAlpha"/>
<feOffset dy="-2"/>
<feGaussianBlur stdDeviation="0.5"/>
<feComposite in2="hardAlpha" operator="arithmetic" k2="-1" k3="1"/>
<feColorMatrix type="matrix" values="0 0 0 0 0 0 0 0 0 0 0 0 0 0 0 0 0 0 0.25 0"/>
<feBlend mode="normal" in2="effect2_innerShadow_285_16" result="effect3_innerShadow_285_16"/>
<feColorMatrix in="SourceAlpha" type="matrix" values="0 0 0 0 0 0 0 0 0 0 0 0 0 0 0 0 0 0 127 0" result="hardAlpha"/>
<feOffset dy="4"/>
<feGaussianBlur stdDeviation="2"/>
<feComposite in2="hardAlpha" operator="arithmetic" k2="-1" k3="1"/>
<feColorMatrix type="matrix" values="0 0 0 0 0.730769 0 0 0 0 0.1848 0 0 0 0 0.1848 0 0 0 0.25 0"/>
<feBlend mode="normal" in2="effect3_innerShadow_285_16" result="effect4_innerShadow_285_16"/>
</filter>
<clipPath id="paint0_diamond_285_16_clip_path"><path id="Vector" d="M60.1804 2.52888C60.8556 2.16767 71.7247 1.54544 79.0134 2.52888C88.7272 3.83951 94.0904 5.94798 102.891 10.2638C108.553 13.0408 111.719 14.7759 116.679 18.6714C120.989 22.0563 123.069 24.381 126.768 28.4242C129.981 31.9354 131.731 33.9726 134.503 37.8407C137.418 41.9077 138.915 44.4412 141.229 48.7461C143.51 52.9884 144.466 55.2362 146.274 59.7004C147.989 63.9346 149.048 66.0713 150.31 70.4621C151.337 74.0377 151.713 76.3839 152.294 80.008L152.327 80.2149C153.015 84.5021 152.931 86.9476 153 91.3128C153 91.3128 152.717 101.476 151.318 107.792C150.276 112.496 149.577 114.689 147.955 119.226C146.191 124.164 144.957 127.334 142.575 132.006C140.108 136.842 138.065 139.179 135.176 143.776C132.287 148.373 127.105 152.856 127.105 152.856C127.105 152.856 121.355 158.415 117.352 161.6C113.816 164.414 111.874 166.111 107.935 168.326C104.913 170.026 102.876 171.046 99.5 172.5C96.1665 173.935 94.3734 174.392 90.784 175.725C86.8907 177.171 84.7326 178.116 80.6949 179.088C76.0541 180.205 73.356 180.544 68.588 180.769C66.1754 180.884 64.7837 180.844 62.4351 180.776L62.1982 180.769C57.4557 180.634 54.7864 180.443 50.0913 179.761C45.5797 179.105 43.0428 178.651 38.657 177.406C33.9983 176.084 31.4567 174.994 27.0533 173.106L26.8864 173.034C22.7295 171.252 20.2802 170.413 16.461 167.99C13.3777 166.034 11.8354 164.648 9.0624 162.273C6.16993 159.795 2 155.547 2 155.547V154.201C2 154.201 5.47965 154.656 7.71715 154.874C13.6052 155.448 16.9354 155.622 22.8508 155.547C27.4546 155.488 30.0588 155.492 34.6214 154.874C39.0118 154.28 41.4735 153.785 45.7194 152.52C50.7444 151.022 53.4224 149.717 58.1626 147.475C62.1993 145.566 64.4783 144.482 68.2517 142.095C71.9807 139.735 73.8999 138.143 77.3318 135.369C80.7333 132.619 82.7565 131.169 85.7394 127.97C88.3555 125.165 89.6212 123.397 91.7929 120.235C94.2924 116.596 95.5082 114.417 97.51 110.482C99.27 107.023 100.304 105.078 101.546 101.402C102.84 97.5688 103.319 95.3168 103.9 91.3128C104.481 87.3089 104.151 77.2469 102.555 68.4443C101.537 62.8337 98.855 54.3195 98.855 54.3195C98.855 54.3195 95.6721 46.5856 93.1381 41.8763C90.8754 37.6712 89.435 35.3986 86.7483 31.4509C84.1621 27.6508 82.7146 25.4924 79.686 22.0344C76.3201 18.1915 74.2603 16.1434 70.2695 12.9543C66.5702 9.99812 64.2619 8.62912 60.1804 6.22821C59.2677 5.69135 57.8263 4.88299 57.8263 4.88299C57.8263 4.88299 58.1166 3.98373 58.4989 3.53778C58.7871 3.20151 59.5051 2.8901 60.1804 2.52888Z"/></clipPath><clipPath id="paint1_diamond_285_16_clip_path"><path id="Vector_2" d="M60.1804 2.52888C60.8556 2.16767 71.7247 1.54544 79.0134 2.52888C88.7272 3.83951 94.0904 5.94798 102.891 10.2638C108.553 13.0408 111.719 14.7759 116.679 18.6714C120.989 22.0563 123.069 24.381 126.768 28.4242C129.981 31.9354 131.731 33.9726 134.503 37.8407C137.418 41.9077 138.915 44.4412 141.229 48.7461C143.51 52.9884 144.466 55.2362 146.274 59.7004C147.989 63.9346 149.048 66.0713 150.31 70.4621C151.337 74.0377 151.713 76.3839 152.294 80.008L152.327 80.2149C153.015 84.5021 152.931 86.9476 153 91.3128C153 91.3128 152.717 101.476 151.318 107.792C150.276 112.496 149.577 114.689 147.955 119.226C146.191 124.164 144.957 127.334 142.575 132.006C140.108 136.842 138.065 139.179 135.176 143.776C132.287 148.373 127.105 152.856 127.105 152.856C127.105 152.856 121.355 158.415 117.352 161.6C113.816 164.414 111.874 166.111 107.935 168.326C104.913 170.026 102.876 171.046 99.5 172.5C96.1665 173.935 94.3734 174.392 90.784 175.725C86.8907 177.171 84.7326 178.116 80.6949 179.088C76.0541 180.205 73.356 180.544 68.588 180.769C66.1754 180.884 64.7837 180.844 62.4351 180.776L62.1982 180.769C57.4557 180.634 54.7864 180.443 50.0913 179.761C45.5797 179.105 43.0428 178.651 38.657 177.406C33.9983 176.084 31.4567 174.994 27.0533 173.106L26.8864 173.034C22.7295 171.252 20.2802 170.413 16.461 167.99C13.3777 166.034 11.8354 164.648 9.0624 162.273C6.16993 159.795 2 155.547 2 155.547V154.201C2 154.201 5.47965 154.656 7.71715 154.874C13.6052 155.448 16.9354 155.622 22.8508 155.547C27.4546 155.488 30.0588 155.492 34.6214 154.874C39.0118 154.28 41.4735 153.785 45.7194 152.52C50.7444 151.022 53.4224 149.717 58.1626 147.475C62.1993 145.566 64.4783 144.482 68.2517 142.095C71.9807 139.735 73.8999 138.143 77.3318 135.369C80.7333 132.619 82.7565 131.169 85.7394 127.97C88.3555 125.165 89.6212 123.397 91.7929 120.235C94.2924 116.596 95.5082 114.417 97.51 110.482C99.27 107.023 100.304 105.078 101.546 101.402C102.84 97.5688 103.319 95.3168 103.9 91.3128C104.481 87.3089 104.151 77.2469 102.555 68.4443C101.537 62.8337 98.855 54.3195 98.855 54.3195C98.855 54.3195 95.6721 46.5856 93.1381 41.8763C90.8754 37.6712 89.435 35.3986 86.7483 31.4509C84.1621 27.6508 82.7146 25.4924 79.686 22.0344C76.3201 18.1915 74.2603 16.1434 70.2695 12.9543C66.5702 9.99812 64.2619 8.62912 60.1804 6.22821C59.2677 5.69135 57.8263 4.88299 57.8263 4.88299C57.8263 4.88299 58.1166 3.98373 58.4989 3.53778C58.7871 3.20151 59.5051 2.8901 60.1804 2.52888Z"/></clipPath><clipPath id="paint3_diamond_285_16_clip_path"><path id="Vector_4" d="M60.1804 2.52888C60.8556 2.16767 71.7247 1.54544 79.0134 2.52888C88.7272 3.83951 94.0904 5.94798 102.891 10.2638C108.553 13.0408 111.719 14.7759 116.679 18.6714C120.989 22.0563 123.069 24.381 126.768 28.4242C129.981 31.9354 131.731 33.9726 134.503 37.8407C137.418 41.9077 138.915 44.4412 141.229 48.7461C143.51 52.9884 144.466 55.2362 146.274 59.7004C147.989 63.9346 149.048 66.0713 150.31 70.4621C151.337 74.0377 151.713 76.3839 152.294 80.008L152.327 80.2149C153.015 84.5021 152.931 86.9476 153 91.3128C153 91.3128 152.717 101.476 151.318 107.792C150.276 112.496 149.577 114.689 147.955 119.226C146.191 124.164 144.957 127.334 142.575 132.006C140.108 136.842 138.065 139.179 135.176 143.776C132.287 148.373 127.105 152.856 127.105 152.856C127.105 152.856 121.355 158.415 117.352 161.6C113.816 164.414 111.874 166.111 107.935 168.326C104.913 170.026 102.876 171.046 99.5 172.5C96.1665 173.935 94.3734 174.392 90.784 175.725C86.8907 177.171 84.7326 178.116 80.6949 179.088C76.0541 180.205 73.356 180.544 68.588 180.769C66.1754 180.884 64.7837 180.844 62.4351 180.776L62.1982 180.769C57.4557 180.634 54.7864 180.443 50.0913 179.761C45.5797 179.105 43.0428 178.651 38.657 177.406C33.9983 176.084 31.4567 174.994 27.0533 173.106L26.8864 173.034C22.7295 171.252 20.2802 170.413 16.461 167.99C13.3777 166.034 11.8354 164.648 9.0624 162.273C6.16993 159.795 2 155.547 2 155.547V154.201C2 154.201 5.47965 154.656 7.71715 154.874C13.6052 155.448 16.9354 155.622 22.8508 155.547C27.4546 155.488 30.0588 155.492 34.6214 154.874C39.0118 154.28 41.4735 153.785 45.7194 152.52C50.7444 151.022 53.4224 149.717 58.1626 147.475C62.1993 145.566 64.4783 144.482 68.2517 142.095C71.9807 139.735 73.8999 138.143 77.3318 135.369C80.7333 132.619 82.7565 131.169 85.7394 127.97C88.3555 125.165 89.6212 123.397 91.7929 120.235C94.2924 116.596 95.5082 114.417 97.51 110.482C99.27 107.023 100.304 105.078 101.546 101.402C102.84 97.5688 103.319 95.3168 103.9 91.3128C104.481 87.3089 104.151 77.2469 102.555 68.4443C101.537 62.8337 98.855 54.3195 98.855 54.3195C98.855 54.3195 95.6721 46.5856 93.1381 41.8763C90.8754 37.6712 89.435 35.3986 86.7483 31.4509C84.1621 27.6508 82.7146 25.4924 79.686 22.0344C76.3201 18.1915 74.2603 16.1434 70.2695 12.9543C66.5702 9.99812 64.2619 8.62912 60.1804 6.22821C59.2677 5.69135 57.8263 4.88299 57.8263 4.88299C57.8263 4.88299 58.1166 3.98373 58.4989 3.53778C58.7871 3.20151 59.5051 2.8901 60.1804 2.52888Z"/></clipPath><clipPath id="paint4_diamond_285_16_clip_path"><path id="Vector_5" d="M60.1804 2.52888C60.8556 2.16767 71.7247 1.54544 79.0134 2.52888C88.7272 3.83951 94.0904 5.94798 102.891 10.2638C108.553 13.0408 111.719 14.7759 116.679 18.6714C120.989 22.0563 123.069 24.381 126.768 28.4242C129.981 31.9354 131.731 33.9726 134.503 37.8407C137.418 41.9077 138.915 44.4412 141.229 48.7461C143.51 52.9884 144.466 55.2362 146.274 59.7004C147.989 63.9346 149.048 66.0713 150.31 70.4621C151.337 74.0377 151.713 76.3839 152.294 80.008L152.327 80.2149C153.015 84.5021 152.931 86.9476 153 91.3128C153 91.3128 152.717 101.476 151.318 107.792C150.276 112.496 149.577 114.689 147.955 119.226C146.191 124.164 144.957 127.334 142.575 132.006C140.108 136.842 138.065 139.179 135.176 143.776C132.287 148.373 127.105 152.856 127.105 152.856C127.105 152.856 121.355 158.415 117.352 161.6C113.816 164.414 111.874 166.111 107.935 168.326C104.913 170.026 102.876 171.046 99.5 172.5C96.1665 173.935 94.3734 174.392 90.784 175.725C86.8907 177.171 84.7326 178.116 80.6949 179.088C76.0541 180.205 73.356 180.544 68.588 180.769C66.1754 180.884 64.7837 180.844 62.4351 180.776L62.1982 180.769C57.4557 180.634 54.7864 180.443 50.0913 179.761C45.5797 179.105 43.0428 178.651 38.657 177.406C33.9983 176.084 31.4567 174.994 27.0533 173.106L26.8864 173.034C22.7295 171.252 20.2802 170.413 16.461 167.99C13.3777 166.034 11.8354 164.648 9.0624 162.273C6.16993 159.795 2 155.547 2 155.547V154.201C2 154.201 5.47965 154.656 7.71715 154.874C13.6052 155.448 16.9354 155.622 22.8508 155.547C27.4546 155.488 30.0588 155.492 34.6214 154.874C39.0118 154.28 41.4735 153.785 45.7194 152.52C50.7444 151.022 53.4224 149.717 58.1626 147.475C62.1993 145.566 64.4783 144.482 68.2517 142.095C71.9807 139.735 73.8999 138.143 77.3318 135.369C80.7333 132.619 82.7565 131.169 85.7394 127.97C88.3555 125.165 89.6212 123.397 91.7929 120.235C94.2924 116.596 95.5082 114.417 97.51 110.482C99.27 107.023 100.304 105.078 101.546 101.402C102.84 97.5688 103.319 95.3168 103.9 91.3128C104.481 87.3089 104.151 77.2469 102.555 68.4443C101.537 62.8337 98.855 54.3195 98.855 54.3195C98.855 54.3195 95.6721 46.5856 93.1381 41.8763C90.8754 37.6712 89.435 35.3986 86.7483 31.4509C84.1621 27.6508 82.7146 25.4924 79.686 22.0344C76.3201 18.1915 74.2603 16.1434 70.2695 12.9543C66.5702 9.99812 64.2619 8.62912 60.1804 6.22821C59.2677 5.69135 57.8263 4.88299 57.8263 4.88299C57.8263 4.88299 58.1166 3.98373 58.4989 3.53778C58.7871 3.20151 59.5051 2.8901 60.1804 2.52888Z"/></clipPath><linearGradient id="paint0_diamond_285_16" x1="0" y1="0" x2="500" y2="500" gradientUnits="userSpaceOnUse">
<stop stop-color="#9F8319"/>
<stop offset="1" stop-color="#E8BE01"/>
</linearGradient>
<linearGradient id="paint1_diamond_285_16" x1="0" y1="0" x2="500" y2="500" gradientUnits="userSpaceOnUse">
<stop stop-color="#C49F15"/>
<stop offset="1" stop-color="#E8BE01" stop-opacity="0.5"/>
</linearGradient>
<radialGradient id="paint2_radial_285_16" cx="0" cy="0" r="1" gradientUnits="userSpaceOnUse" gradientTransform="translate(88.4298 146.274) rotate(-51.0524) scale(115.024 97.1173)">
<stop stop-opacity="0"/>
<stop offset="1" stop-color="#A4831A"/>
</radialGradient>
<linearGradient id="paint3_diamond_285_16" x1="0" y1="0" x2="500" y2="500" gradientUnits="userSpaceOnUse">
<stop stop-color="#AD840E" stop-opacity="0.25"/>
<stop offset="1" stop-opacity="0"/>
</linearGradient>
<linearGradient id="paint4_diamond_285_16" x1="0" y1="0" x2="500" y2="500" gradientUnits="userSpaceOnUse">
<stop stop-color="#AD840E" stop-opacity="0.25"/>
<stop offset="1" stop-opacity="0"/>
</linearGradient>
</defs>
</svg>
