<svg width="41" height="40" viewBox="0 0 41 40" fill="none" xmlns="http://www.w3.org/2000/svg">
<g id="estrella-2" filter="url(#filter0_di_153_18)">
<path d="M13.8978 12.2144C13.8978 12.2144 5.45313 13.7073 4.72978 14.5222C4.40035 14.8933 4.47838 15.5843 4.64263 16.0207C4.80688 16.4571 12.6023 21.8216 12.6023 21.8216C12.6023 21.8216 12.4013 26.7405 13.4083 29.6341C13.6201 30.2428 14.026 31.166 14.026 31.166C14.026 31.166 14.8296 30.9846 15.3357 30.8364C19.1267 29.7258 23.7049 25.3547 23.7049 25.3547C23.7049 25.3547 29.0061 26.9674 32.5619 27.3439C33.2996 27.422 34.458 27.4994 34.458 27.4994C34.458 27.4994 34.3999 26.6167 34.3267 26.0559C33.8466 22.377 30.7201 17.2609 30.7201 17.2609C30.7201 17.2609 34.3301 12.6707 35.9391 9.40827C36.1226 9.0362 36.3943 8.44997 36.3943 8.44997C36.0605 8.20449 35.8929 8.04329 35.5397 7.82137C34.7126 7.30174 25.0305 9.41209 25.0305 9.41209C25.0305 9.41209 21.4477 4.55427 18.5177 1.98144C17.8493 1.39462 16.7585 0.525861 16.7585 0.525861C16.7585 0.525861 16.2057 1.80658 15.8982 2.64081C14.562 6.26649 13.8978 12.2144 13.8978 12.2144Z" fill="url(#paint0_radial_153_18)"/>
</g>
<defs>
<filter id="filter0_di_153_18" x="0.500977" y="-0.474121" width="39.8936" height="39.6401" filterUnits="userSpaceOnUse" colorInterpolationFilters="sRGB">
<feFlood floodOpacity="0" result="BackgroundImageFix"/>
<feColorMatrix in="SourceAlpha" type="matrix" values="0 0 0 0 0 0 0 0 0 0 0 0 0 0 0 0 0 0 127 0" result="hardAlpha"/>
<feOffset dy="4"/>
<feGaussianBlur stdDeviation="2"/>
<feComposite in2="hardAlpha" operator="out"/>
<feColorMatrix type="matrix" values="0 0 0 0 0 0 0 0 0 0 0 0 0 0 0 0 0 0 0.25 0"/>
<feBlend mode="normal" in2="BackgroundImageFix" result="effect1_dropShadow_153_18"/>
<feBlend mode="normal" in="SourceGraphic" in2="effect1_dropShadow_153_18" result="shape"/>
<feColorMatrix in="SourceAlpha" type="matrix" values="0 0 0 0 0 0 0 0 0 0 0 0 0 0 0 0 0 0 127 0" result="hardAlpha"/>
<feOffset dx="0.2" dy="-2"/>
<feGaussianBlur stdDeviation="0.5"/>
<feComposite in2="hardAlpha" operator="arithmetic" k2="-1" k3="1"/>
<feColorMatrix type="matrix" values="0 0 0 0 0 0 0 0 0 0 0 0 0 0 0 0 0 0 0.15 0"/>
<feBlend mode="normal" in2="shape" result="effect2_innerShadow_153_18"/>
</filter>
<radialGradient id="paint0_radial_153_18" cx="0" cy="0" r="1" gradientTransform="matrix(-19.5315 35.3962 -22.7641 -9.89217 21.2359 15.1132)" gradientUnits="userSpaceOnUse">
<stop stopColor="#EEDD93"/>
<stop offset="1" stopColor="#DBC732"/>
</radialGradient>
</defs>
</svg>
