<svg width="49" height="49" viewBox="0 0 49 49" fill="none" xmlns="http://www.w3.org/2000/svg">
<g clipPath="url(#clip0_29_253)">
<path d="M24.6577 0.585449C11.403 0.585449 0.657715 11.3307 0.657715 24.5854C0.657715 35.8405 8.40684 45.285 18.8603 47.8789V31.9198H13.9115V24.5854H18.8603V21.4251C18.8603 13.2565 22.5572 9.47025 30.5771 9.47025C32.0977 9.47025 34.7214 9.76881 35.7947 10.0664V16.7144C35.2283 16.6549 34.2443 16.6251 33.0222 16.6251C29.0872 16.6251 27.5665 18.116 27.5665 21.9915V24.5854H35.4059L34.059 31.9198H27.5665V48.4098C39.4504 46.9746 48.6587 36.8562 48.6587 24.5854C48.6577 11.3307 37.9124 0.585449 24.6577 0.585449Z" fill="black"/>
</g>
<defs>
<clipPath id="clip0_29_253">
<rect width="48" height="48" fill="white" transform="translate(0.657715 0.585449)"/>
</clipPath>
</defs>
</svg>
