<svg width="67" height="67" viewBox="0 0 67 67" fill="none" xmlns="http://www.w3.org/2000/svg">
<path d="M42.6316 0.358471C42.4653 0.555631 42.3175 0.842408 42.3175 0.985797C42.3175 1.34427 42.0773 1.32634 41.0796 0.878255C40.1558 0.466013 39.4722 0.537707 38.9549 1.07541C38.7702 1.27257 38.6224 1.46973 38.6224 1.54143C38.6224 1.61312 38.4191 1.84613 38.1605 2.06121C37.8094 2.40176 37.717 2.63477 37.754 3.26209C37.7725 3.7998 37.6431 4.24789 37.366 4.69598C36.7748 5.61008 36.8302 6.3091 37.5508 7.02604C37.8833 7.34867 38.1974 7.63545 38.2528 7.63545C38.3083 7.65337 38.53 7.72506 38.7332 7.79676L39.1212 7.92222L38.7702 8.65709C38.5669 9.05141 38.2898 9.4995 38.142 9.64289C37.9942 9.76835 37.8833 9.96551 37.8833 10.0731C37.8833 10.1806 37.5508 10.6466 37.1443 11.1126C36.7378 11.5966 36.4053 12.0446 36.4237 12.1343C36.4976 12.5286 36.3868 12.7437 36.1836 12.6182C35.9249 12.4569 31.0473 12.3852 31.0473 12.5465C31.0473 12.6003 30.6039 12.6361 30.0496 12.654C29.4953 12.654 28.8487 12.7795 28.6085 12.9408C28.0912 13.2635 27.3152 13.4785 27.463 13.2455C27.6293 12.9767 27.2043 13.0663 26.9087 13.371C26.7424 13.5144 26.6131 13.5861 26.6131 13.5144C26.6131 13.4427 26.4468 13.5323 26.262 13.6936C26.0588 13.8729 25.8186 13.9625 25.7078 13.9087C25.4676 13.7653 24.5253 14.1238 24.6547 14.3209C24.7101 14.4106 24.5438 14.4643 24.2851 14.4643C24.0265 14.4643 23.5646 14.6436 23.2874 14.8586C22.9918 15.0558 22.6593 15.235 22.5669 15.235C22.456 15.235 22.2158 15.4143 21.9941 15.6294C21.7909 15.8444 21.4768 16.0416 21.3105 16.0595C21.1258 16.0954 20.8856 16.2388 20.7747 16.3822C20.6639 16.5435 20.5161 16.6689 20.4422 16.6689C20.1466 16.6689 18.687 17.9953 18.7978 18.1745C18.8533 18.2821 18.8533 18.3179 18.7609 18.2462C18.5761 18.067 18.0773 18.4434 18.2251 18.6584C18.2805 18.7481 18.2066 18.8198 18.0773 18.8198C17.8371 18.8198 16.8209 19.7518 16.8209 19.9848C16.8209 20.0565 16.6546 20.2357 16.4514 20.397C16.2666 20.5763 16.0819 20.8272 16.0449 20.9706C16.008 21.114 15.8047 21.3828 15.5646 21.5621C15.3428 21.7413 15.195 21.9743 15.2689 22.0639C15.3244 22.1535 15.232 22.279 15.0842 22.3328C14.9364 22.3866 14.6962 22.7092 14.5669 23.0497C14.456 23.3903 14.2897 23.6591 14.2158 23.6591C14.0495 23.6591 13.7724 24.394 13.8278 24.627C13.8648 24.7166 13.6985 24.9675 13.4768 25.2006C13.2736 25.4156 13.1442 25.6845 13.2181 25.792C13.2736 25.8996 13.1627 26.276 12.941 26.6165C12.7193 26.9571 12.6084 27.3335 12.6823 27.441C12.7747 27.5844 12.7378 27.6023 12.5715 27.5127C12.3867 27.4052 12.3498 27.4948 12.4237 27.8532C12.4791 28.1042 12.4606 28.3193 12.3682 28.3193C12.2204 28.3193 12.1835 28.4985 12.165 29.5381C12.165 29.8786 12.0911 30.0399 12.0172 29.9324C11.8509 29.6635 11.5923 32.1549 11.7401 32.6747C11.8324 32.9973 11.814 33.0152 11.6477 32.8002C11.4814 32.603 11.4629 32.9794 11.5553 34.3416C11.6292 35.3453 11.7031 36.3132 11.7401 36.4924C11.777 36.6896 11.814 37.0301 11.814 37.281C11.8324 37.6216 11.8694 37.6754 12.0172 37.4603C12.1281 37.281 12.1835 37.3707 12.165 37.8188C12.1281 38.7329 12.4791 40.113 12.8301 40.4894C12.9964 40.6507 13.1627 41.0629 13.1997 41.3855C13.2366 41.7261 13.3844 42.0487 13.5137 42.1383C13.6616 42.21 13.7909 42.5147 13.8094 42.7836C13.8278 43.0524 13.9756 43.3751 14.1419 43.4826C14.3082 43.6081 14.4745 43.8769 14.5114 44.1099C14.5669 44.3429 14.807 44.7193 15.0657 44.9523C15.3244 45.1853 15.4907 45.4363 15.4352 45.5259C15.3798 45.6155 15.5091 45.7768 15.7124 45.8844C15.9156 45.9919 16.0449 46.1532 15.9895 46.2428C15.9341 46.3325 16.0819 46.5296 16.3036 46.673C16.5253 46.8343 16.6362 46.9598 16.5438 46.9598C16.4329 46.9598 16.6177 47.2286 16.9502 47.5513C17.2828 47.856 17.8556 48.4474 18.2435 48.8418C19.2228 49.8455 20.2944 50.7237 20.4976 50.7237C20.6085 50.7237 20.8302 50.885 21.0149 51.0643C21.1997 51.2614 21.4583 51.4407 21.6061 51.4765C21.7355 51.5124 22.0496 51.7095 22.2897 51.9246C22.5115 52.1576 22.8255 52.301 22.9549 52.2472C23.1396 52.1755 23.2135 52.4982 23.2505 53.6274C23.3059 54.9179 23.2505 55.2405 22.8255 56.047C22.3821 56.9791 22.1974 57.5168 22.5299 57.0149C22.6408 56.8536 22.6593 57.1941 22.6038 57.9111C22.5299 58.6818 22.4006 59.112 22.1974 59.2374C21.8463 59.4525 21.2366 59.5063 21.3475 59.3271C21.3844 59.2554 21.2182 59.112 20.978 59.0044C20.7193 58.879 20.5161 58.6818 20.5161 58.5384C20.5161 58.3592 20.3498 58.2875 20.0172 58.3054C19.6662 58.3413 19.4814 58.4667 19.389 58.7893C19.3151 59.0403 19.2597 59.1299 19.2412 58.9865C19.2228 58.8431 19.1673 58.7893 19.1119 58.8431C18.9456 58.9865 19.7955 59.8648 20.1096 59.8648C20.2205 59.8648 20.3313 59.9723 20.3313 60.1157C20.3313 60.2591 20.4976 60.4204 20.7008 60.4921C21.0888 60.6176 21.1073 60.9223 20.7378 61.209C20.59 61.3345 20.4791 61.8901 20.4606 62.6967C20.4237 63.7363 20.3683 63.9872 20.1281 63.9872C19.7216 63.9872 18.9087 64.8834 18.7978 65.4748C18.687 66.1739 19.463 66.9804 20.2759 66.9983C20.7378 67.0163 20.978 66.8908 21.2551 66.4965C21.4583 66.2276 21.6246 65.8692 21.6246 65.7079C21.6246 65.4748 21.7355 65.4748 22.3637 65.7975C22.8255 66.0305 23.4722 66.1739 24.0265 66.1918C24.8209 66.1918 25.0057 66.1201 25.5969 65.5465C26.0034 65.1522 26.2251 64.8117 26.1327 64.6862C26.0588 64.5607 26.0773 64.5249 26.2066 64.5966C26.3359 64.6683 26.4468 64.3994 26.5392 63.8617C26.6316 63.3778 26.6685 62.9476 26.65 62.858C26.6316 62.7863 26.7239 62.7325 26.8717 62.7325C27.2413 62.7325 27.3706 60.6355 27.038 60.1336C26.9087 59.9365 26.7978 59.8468 26.7978 59.9185C26.7978 59.9902 26.5946 59.8468 26.3359 59.5959C26.0773 59.345 25.7632 59.1478 25.6523 59.1478C25.5415 59.1478 25.6154 58.9686 25.8371 58.7356C26.0588 58.5026 26.2436 58.2516 26.2436 58.1441C26.2436 58.0545 26.5022 57.7498 26.7978 57.463C27.0935 57.1762 27.2967 56.8715 27.2228 56.764C27.1674 56.6564 27.2043 56.6385 27.2967 56.6923C27.4999 56.8178 28.4607 55.814 28.4607 55.5093C28.4607 55.4197 28.6454 55.1688 28.8856 54.9537C29.2921 54.5773 29.366 54.5773 30.493 54.7924C31.3983 54.9716 32.1189 54.9895 33.5046 54.8462C35.6108 54.649 36.7563 54.649 35.5738 54.8462C35.0381 54.9537 35.1489 54.9716 36.0173 54.8999C36.6639 54.8641 37.5508 54.6669 37.9942 54.4877C38.8441 54.1113 39.4907 53.9858 38.9919 54.3085C38.6039 54.5594 38.8071 54.5235 39.7863 54.2009C40.2667 54.0396 40.6547 53.8424 40.6547 53.7528C40.6547 53.6632 40.9318 53.5915 41.2644 53.5915C41.597 53.5915 42.0589 53.466 42.2806 53.3047C42.5023 53.1613 42.8718 53 43.0935 52.9642C43.3152 52.9104 43.7402 52.6595 44.0358 52.3906C44.3499 52.1039 44.5346 51.9963 44.4422 52.1397C44.3499 52.301 44.4607 52.2652 44.7933 52.068C45.0519 51.8888 45.2736 51.6737 45.2736 51.5841C45.2736 51.4945 45.3475 51.4586 45.4399 51.5303C45.5323 51.5841 45.8464 51.4228 46.1235 51.1718C46.4007 50.9209 46.6963 50.7237 46.7887 50.7237C46.881 50.7237 47.269 50.419 47.6385 50.0426C48.0265 49.6662 48.47 49.3078 48.6547 49.2361C48.8395 49.1644 48.9319 49.0389 48.8764 48.9314C48.821 48.8418 48.8764 48.7521 49.0242 48.7521C49.2829 48.7521 49.7263 48.322 50.761 46.9777C51.1305 46.5296 51.463 46.1174 51.5369 46.0636C51.851 45.8127 52.4792 44.7731 52.4053 44.6476C52.3499 44.558 52.4238 44.4326 52.5901 44.3788C52.7379 44.325 52.8302 44.1996 52.7748 44.1099C52.7194 44.0203 52.7933 43.9128 52.9411 43.8411C53.0889 43.7873 53.2182 43.5722 53.2182 43.3571C53.2182 43.16 53.4215 42.7477 53.6801 42.443C53.9388 42.1563 54.142 41.8157 54.142 41.7082C54.142 41.5827 54.0681 41.6006 53.9573 41.7619C53.8649 41.9053 53.7725 41.9591 53.7725 41.8695C53.7725 41.7619 53.9757 41.4035 54.2344 41.0629C54.4746 40.7045 54.7148 40.1309 54.7517 39.7904C54.7887 39.4319 54.8626 39.0555 54.9365 38.9479C55.0104 38.8404 55.0104 38.6074 54.9365 38.4282C54.8626 38.231 54.8811 38.1593 55.0104 38.231C55.2506 38.3744 55.5277 36.8509 55.3245 36.5283C55.2506 36.4207 55.2691 36.3669 55.3614 36.4386C55.5462 36.5462 55.5462 30.9361 55.3614 29.6815C55.2875 29.2154 55.1582 28.8928 55.0473 28.9466C54.955 29.0004 54.9365 28.9287 54.9919 28.7853C55.0473 28.6419 55.0289 28.4089 54.955 28.2834C54.8626 28.1579 54.7702 27.8891 54.7517 27.6919C54.6409 26.9033 54.5115 26.5807 54.142 26.1684C53.7356 25.7203 53.6432 25.3619 53.9942 25.559C54.2714 25.7203 54.0312 25.3081 53.5323 24.7883C53.3476 24.5732 53.2367 24.3223 53.2921 24.2148C53.366 24.1251 53.2367 23.8921 53.0335 23.695C52.8302 23.5157 52.6085 23.1573 52.5716 22.9243C52.5162 22.6913 52.3129 22.3686 52.1097 22.1894C51.9065 22.0281 51.7402 21.7592 51.7402 21.6158C51.7402 21.4545 51.6108 21.2753 51.4446 21.2036C51.2968 21.1498 51.075 20.8989 50.9827 20.6659C50.8903 20.4329 50.7425 20.2716 50.6501 20.3253C50.5577 20.3791 50.4284 20.2357 50.373 19.9848C50.2991 19.7339 50.1882 19.5367 50.0958 19.5367C49.8741 19.5367 48.8764 18.6047 48.9134 18.4434C48.9503 18.3717 48.8025 18.2462 48.5993 18.1924C48.3961 18.1207 48.2298 17.9594 48.2298 17.7981C48.2298 17.6547 48.0635 17.4934 47.8603 17.4396C47.657 17.3859 47.4907 17.2604 47.4907 17.1708C47.4907 17.0812 47.3984 17.0632 47.306 17.117C47.1951 17.1887 47.1397 17.1529 47.1582 17.0632C47.2321 16.8661 46.142 15.952 45.8464 15.952C45.7355 15.952 45.4769 15.7907 45.2736 15.5935C45.0519 15.3784 44.8302 15.2709 44.7378 15.3067C44.6455 15.3605 44.4422 15.253 44.2575 15.0558C44.0727 14.8586 43.6478 14.6615 43.2967 14.5898C42.9457 14.5181 42.7055 14.4285 42.7609 14.3747C42.8164 14.3209 42.7425 14.1955 42.5947 14.0879C42.3545 13.9266 42.299 13.2993 42.2436 10.7183C42.2067 8.96179 42.2436 7.58167 42.3175 7.61752C42.3914 7.67129 42.5577 7.58167 42.6686 7.45621C42.8533 7.24113 43.0011 7.25905 43.5554 7.63545C43.9249 7.86845 44.3499 8.06561 44.5161 8.06561C44.7748 8.06561 44.7748 8.10146 44.5346 8.24485C44.3129 8.38824 44.3499 8.42408 44.7009 8.42408C44.9411 8.42408 45.1074 8.37031 45.0335 8.31654C44.978 8.24485 45.0519 8.08354 45.1997 7.94015C45.4215 7.70714 45.4215 7.61752 45.0704 7.15151C44.8672 6.86473 44.6085 6.63172 44.5161 6.63172C44.4238 6.63172 44.1466 6.47041 43.9249 6.27325C43.6293 5.98648 43.5739 5.82516 43.7217 5.59216C43.8141 5.43084 43.888 4.69598 43.888 3.97903C43.8695 3.28002 43.9249 2.68854 44.0173 2.68854C44.0912 2.68854 44.3683 2.47345 44.627 2.22252C44.9596 1.8999 45.0889 1.61312 45.0335 1.32634C44.9965 1.09334 45.0335 0.949949 45.1074 1.00372C45.1997 1.05749 45.2736 0.932026 45.2736 0.734866C45.2736 0.25093 44.7378 -5.11257e-07 43.7586 -5.11257e-07C43.1859 -5.11257e-07 42.8718 0.107541 42.6316 0.358471ZM40.1004 10.8796C40.1004 11.1305 40.1374 11.1485 40.2667 10.9692C40.3591 10.8079 40.4145 10.8975 40.396 11.256C40.3776 11.5607 40.3221 11.7579 40.2482 11.7041C40.1558 11.6683 40.1004 11.955 40.1004 12.3493C40.1004 12.7616 40.008 13.0842 39.8972 13.0842C39.8048 13.0842 39.7679 13.1738 39.8418 13.2814C39.9711 13.5144 39.1582 13.3172 38.9919 13.0842C38.9364 13.0125 38.6963 12.8871 38.4561 12.8154C38.142 12.7257 38.0866 12.6361 38.2528 12.5465C38.3822 12.4748 38.4191 12.3135 38.3452 12.188C38.2528 12.0446 38.2713 11.9909 38.3822 12.0626C38.5485 12.1522 39.4353 11.3636 39.4538 11.1126C39.4722 10.9155 39.7679 10.5749 39.9341 10.5749C40.0265 10.5749 40.1004 10.7183 40.1004 10.8796ZM40.4145 12.7616C40.3591 12.905 40.3037 12.8512 40.3037 12.654C40.2852 12.4569 40.3406 12.3493 40.396 12.421C40.4515 12.4748 40.4699 12.6361 40.4145 12.7616ZM34.5577 15.7907C34.5577 15.8803 34.6501 15.9161 34.7609 15.8624C34.8718 15.7907 34.9272 15.8444 34.9087 15.9699C34.8902 16.1133 34.9272 16.4538 35.0196 16.7227C35.1304 17.0991 35.2043 17.1708 35.3152 16.9916C35.4445 16.8123 35.4815 16.8482 35.4815 17.117C35.4815 17.5113 37.1443 19.4112 37.1443 19.0348C37.1443 18.9273 37.2367 18.8198 37.3475 18.8198C37.4399 18.8198 37.4769 18.8915 37.4214 18.999C37.3475 19.1065 37.4584 19.1245 37.7355 19.0169C37.9942 18.9273 38.1974 18.6584 38.2713 18.3537C38.3637 17.9774 38.4006 17.9415 38.4376 18.1924C38.4561 18.4075 38.5115 18.4613 38.5669 18.3179C38.6778 18.0311 38.2713 17.5293 38.0127 17.6906C37.9203 17.7443 37.8833 17.7085 37.9572 17.601C38.0127 17.5113 37.9942 17.3859 37.8833 17.35C37.6801 17.2963 38.0496 16.1312 38.2898 16.1312C38.3637 16.1312 38.7702 16.3105 39.1766 16.5076C39.6016 16.7227 40.1189 16.9019 40.3406 16.9199C40.6177 16.9378 40.7655 17.0812 40.8025 17.368C40.8764 17.7981 41.0057 17.9953 41.7263 18.766C42.0219 19.0886 42.299 19.1962 42.7425 19.1603C43.075 19.1424 43.5184 19.1782 43.7402 19.2499C44.1651 19.3933 44.4607 19.8952 44.1097 19.8952C43.7956 19.9131 43.2044 20.7376 43.4261 20.881C43.5184 20.9347 43.6108 21.0961 43.6108 21.2394C43.6108 21.5441 44.6639 22.5837 44.8302 22.4224C44.9041 22.3686 44.9041 22.4045 44.8302 22.5299C44.7563 22.6554 45.0335 23.0497 45.4954 23.462C46.1051 24.0355 46.2159 24.2506 46.0496 24.4119C45.9203 24.5374 45.8279 24.7525 45.8279 24.9138C45.8279 25.093 45.6616 25.3977 45.4584 25.6307C45.0889 26.043 45.0519 26.1864 45.0519 26.8854C45.0519 27.5306 45.0889 27.6202 45.3291 27.4948C45.4399 27.4231 45.4954 27.441 45.403 27.5127C45.3291 27.6023 45.403 27.8532 45.5693 28.1042C45.8279 28.4985 45.8279 28.5523 45.5508 28.857C45.366 29.0541 45.2736 29.323 45.3475 29.4843C45.403 29.6456 45.3845 29.7173 45.2736 29.6635C45.1628 29.5918 45.0889 29.8428 45.0889 30.2371C45.0889 30.7389 45.2552 31.1512 45.6616 31.6889C45.9757 32.1011 46.2898 32.4417 46.3822 32.4417C46.4561 32.4417 46.567 32.6926 46.6409 32.9973C46.6963 33.302 46.8256 33.4992 46.9365 33.4275C47.0473 33.3558 47.1212 33.4992 47.1212 33.768C47.1212 34.001 47.3429 34.4491 47.6016 34.7538C48.045 35.2557 48.1743 35.3095 49.1905 35.3095C50.1882 35.3095 50.3545 35.3632 50.7425 35.7934C50.9827 36.0802 51.1859 36.3669 51.1859 36.4386C51.1859 36.5283 51.2413 36.5462 51.3337 36.5103C51.4076 36.4566 51.4815 37.2273 51.5185 38.2131C51.5369 39.1809 51.4815 39.9517 51.4076 39.8979C51.2229 39.7904 50.761 40.9733 50.8903 41.2063C50.9457 41.278 50.7794 41.5827 50.5392 41.8695C50.2806 42.1563 50.0774 42.4789 50.0774 42.5864C50.0774 42.694 49.9665 42.8911 49.8187 42.9987C49.6894 43.1062 49.5231 43.4468 49.4492 43.7515C49.3938 44.0562 49.2644 44.2533 49.172 44.1816C49.0612 44.1279 48.8949 44.2533 48.784 44.4505C48.6732 44.6476 48.6362 44.809 48.7101 44.809C48.784 44.809 48.5254 45.0778 48.1559 45.4004C47.7864 45.741 47.5277 46.0457 47.6016 46.0995C47.657 46.1711 47.5277 46.2608 47.3245 46.3325C47.1027 46.3862 46.9734 46.5117 47.0288 46.6013C47.0843 46.6909 46.9549 46.7985 46.7517 46.8702C46.5485 46.9419 46.4191 47.0494 46.4746 47.139C46.53 47.2286 46.4007 47.3362 46.1974 47.4079C45.9942 47.4796 45.8649 47.605 45.9388 47.6946C45.9942 47.7843 45.9572 47.838 45.8649 47.8201C45.6986 47.7663 44.8857 48.2682 44.3129 48.788C44.1281 48.9672 43.8695 49.1106 43.7217 49.1106C43.5739 49.1106 43.3337 49.2719 43.1859 49.4691C43.0381 49.6842 42.687 49.8813 42.3914 49.9351C42.0958 49.9889 41.7817 50.1323 41.6709 50.2577C41.5785 50.3832 41.172 50.5266 40.7655 50.5983C40.3776 50.652 39.9157 50.8313 39.7494 50.9567C39.5831 51.1001 39.306 51.1897 39.1397 51.1718C38.9549 51.136 38.8071 51.1718 38.8071 51.2256C38.8071 51.2973 38.4745 51.369 38.0681 51.3869C37.5508 51.4228 37.329 51.369 37.329 51.1897C37.329 50.8134 37.8094 49.9889 37.9388 50.1323C38.0127 50.186 38.0681 50.0785 38.0681 49.8634C38.0681 49.6483 38.3822 49.2361 38.8071 48.8776C39.2136 48.5371 39.5461 48.1786 39.5461 48.089C39.5461 47.9814 39.6755 47.838 39.8418 47.7843C39.9896 47.7305 40.0635 47.605 40.008 47.4975C39.9526 47.3899 40.045 47.2645 40.2298 47.1928C40.784 46.9956 41.6339 46.0098 41.6524 45.5259C41.6709 45.275 41.8556 44.8269 42.0958 44.5043C42.3729 44.1099 42.5023 43.7156 42.4653 43.16L42.4468 42.3893L42.3175 43.2854L42.1882 44.1816L42.1697 43.3571C42.1328 42.7477 42.2251 42.461 42.5023 42.21C42.7055 42.0308 42.8164 41.7978 42.7425 41.6902C42.687 41.5827 42.7055 41.5469 42.7794 41.6365C42.8718 41.7082 43.075 41.5648 43.2413 41.2959C43.4261 41.045 43.6108 40.8478 43.6847 40.8478C43.7402 40.8658 43.7771 40.8299 43.7586 40.7761C43.7217 40.7403 43.888 40.5611 44.1281 40.4177C44.4977 40.1488 44.5346 40.0234 44.4607 38.7866C44.4053 37.7471 44.4422 37.4065 44.6455 37.3348C44.7933 37.281 44.9041 37.0839 44.9041 36.8867C44.9041 36.7075 44.978 36.582 45.0704 36.6358C45.3291 36.7971 45.6986 35.7217 45.5693 35.2198C45.5138 34.9868 45.2182 34.6284 44.9411 34.467C44.6639 34.2878 44.276 34.001 44.0912 33.8397C43.7217 33.4992 43.3337 33.3916 43.5 33.6605C43.5554 33.7501 43.3337 33.8218 43.0196 33.8397C42.5577 33.8576 42.4838 33.8039 42.687 33.6605C42.9087 33.535 42.8718 33.5171 42.5947 33.6246C42.3914 33.6963 41.7632 33.8039 41.172 33.8397C40.3221 33.8935 40.0635 33.8397 39.7679 33.5529C39.5646 33.3558 39.4538 33.1228 39.5092 33.0511C39.5831 32.9794 39.4538 32.9615 39.2321 33.0152C38.9734 33.0869 38.7886 33.0152 38.7332 32.8539C38.6778 32.7105 38.53 32.6568 38.4191 32.7285C38.2898 32.8002 38.2528 32.7822 38.3083 32.6747C38.3822 32.5671 38.3083 32.3879 38.1605 32.2624C38.0127 32.137 37.8833 32.0832 37.8833 32.1549C37.8833 32.2087 37.717 32.1011 37.4953 31.8861C37.1812 31.5813 36.978 31.5276 36.3129 31.6351C35.6847 31.7247 35.3337 31.653 34.724 31.3663C34.2251 31.1153 33.8002 31.0257 33.4676 31.0974C33.0796 31.1691 33.0427 31.1512 33.2644 30.9899C33.4861 30.8286 33.4676 30.8106 33.135 30.8823C32.8949 30.9361 32.7101 30.8823 32.7101 30.7927C32.7101 30.6852 32.5253 30.7389 32.3036 30.9361C32.0819 31.1153 31.9711 31.187 32.0265 31.0616C32.1373 30.9003 31.9526 30.8823 31.3798 30.954C30.9364 31.0078 30.3821 31.0436 30.1235 31.0436C29.8833 31.0436 29.5138 31.1512 29.3106 31.2946C29.1073 31.438 28.8302 31.5455 28.7009 31.5455C28.5715 31.5455 28.0357 31.8323 27.5184 32.1908C26.2805 33.0332 25.7817 33.0869 25.3198 32.4417C25.1165 32.1549 25.0057 31.8144 25.0611 31.671C25.2089 31.2946 24.396 30.6135 23.8971 30.7031C23.5831 30.7569 23.4907 30.6672 23.4352 30.255C23.3798 29.9862 23.4168 29.7531 23.5092 29.7531C23.5831 29.7531 23.5461 29.556 23.4352 29.3051C23.1766 28.7673 22.456 28.6957 22.1789 29.1975C22.0311 29.4664 21.8279 29.5381 21.2921 29.5201C20.7008 29.4843 20.6085 29.3947 20.553 29.0183C20.4976 28.5343 21.3105 26.8316 21.5138 27.0108C21.5692 27.0825 21.6246 27.0467 21.6246 26.9571C21.6246 26.8674 22.1604 26.7778 22.8255 26.7778C24.008 26.7599 24.0265 26.7599 24.0265 27.2259C24.0265 27.8353 24.2297 28.1221 24.6731 28.1579C25.523 28.2476 25.6708 28.1579 25.6523 27.5665C25.6339 27.2438 25.7262 26.9571 25.8556 26.9212C25.9664 26.8854 26.1512 26.6882 26.262 26.4911C26.3729 26.2939 26.3914 26.1684 26.2805 26.2222C26.1881 26.2939 26.1142 26.1147 26.1327 25.8279C26.1512 25.5411 26.2066 25.3439 26.2805 25.3977C26.3544 25.4336 26.7609 25.2006 27.1858 24.8779C27.851 24.3581 27.9249 24.2148 27.851 23.7129C27.7955 23.3903 27.814 23.1214 27.9249 23.1214C28.0172 23.1214 28.0912 22.996 28.0912 22.8346C28.0912 22.6913 28.1651 22.6016 28.2574 22.6554C28.3498 22.7092 28.4791 22.6375 28.5346 22.4762C28.6085 22.2969 28.5715 22.2432 28.4237 22.3328C28.2944 22.4045 28.2759 22.3866 28.3498 22.2611C28.4237 22.1356 28.59 22.046 28.7193 22.046C29.1627 22.046 30.1974 21.0423 30.0681 20.7197C29.9942 20.5404 30.0496 20.4329 30.2343 20.4329C30.3821 20.4329 30.5484 20.5583 30.6039 20.7017C30.6778 20.8451 30.7886 20.9168 30.881 20.863C30.9734 20.8093 31.0473 20.8451 31.0473 20.9347C31.0473 21.1678 31.7124 21.0781 32.045 20.8093C32.2113 20.6838 32.2852 20.4867 32.2113 20.3791C32.1558 20.2895 32.1743 20.2536 32.2852 20.3074C32.396 20.3791 32.7286 20.1999 33.0611 19.9131L33.6524 19.4112L33.172 19.1065C32.5623 18.7122 32.5808 18.533 33.2644 18.3C33.5969 18.1924 33.8186 17.9953 33.8186 17.816C33.8186 17.368 33.2828 16.8482 32.9318 16.9736C32.7471 17.0453 32.6916 17.0095 32.784 16.884C32.8764 16.7406 32.7101 16.6689 32.2482 16.6689C31.8787 16.6689 31.62 16.5972 31.6755 16.5076C31.7309 16.418 31.6755 16.3463 31.5461 16.3642C30.9549 16.3822 30.6593 16.2925 30.7701 16.1312C30.8256 16.0237 31.1951 15.952 31.5646 15.9341C32.1189 15.9341 32.1743 15.8982 31.8787 15.7728C31.6385 15.6652 32.008 15.6114 33.0427 15.6114C33.9849 15.5935 34.5577 15.6652 34.5577 15.7907ZM26.687 17.2604C26.8348 17.3859 26.9826 17.6906 27.0565 17.9236C27.1119 18.1745 27.1119 18.2641 27.0565 18.1387C26.9641 17.9594 26.8902 17.9594 26.687 18.1207C26.4838 18.2821 26.4283 18.2641 26.4283 18.0311C26.4283 17.8519 26.3544 17.7623 26.262 17.816C26.0034 17.9774 25.911 17.5113 26.1327 17.2604C26.3914 16.9736 26.4099 16.9736 26.687 17.2604ZM27.9064 20.0206C27.9064 20.164 26.9272 20.9527 26.8163 20.8989C26.7424 20.8451 26.3914 21.0423 26.0403 21.347C25.3198 21.9385 25.2644 21.9564 24.9503 21.5979C24.7655 21.3649 24.784 21.3291 25.0981 21.3291C25.3198 21.3291 25.5415 21.2394 25.5969 21.1498C25.6708 21.0423 25.7817 21.0064 25.8741 21.0602C26.0219 21.1498 26.3359 20.648 26.2805 20.3791C26.262 20.3074 26.3729 20.2536 26.5207 20.2536C26.6685 20.2536 26.7978 20.182 26.7978 20.0923C26.7978 20.0206 27.038 19.9489 27.3521 19.9669C27.6477 19.9848 27.9064 20.0027 27.9064 20.0206ZM24.2297 21.3111C24.0265 21.5083 23.7124 21.6338 23.5276 21.5979C23.3429 21.5621 23.1581 21.5262 23.1027 21.5262C22.8995 21.4904 23.9526 21.0064 24.2667 20.9885C24.5438 20.9706 24.5438 21.0064 24.2297 21.3111ZM22.8071 21.3111C22.881 21.4008 22.7516 21.4366 22.5484 21.3828C22.1235 21.2753 22.068 21.1498 22.4376 21.1498C22.5854 21.1498 22.7516 21.2215 22.8071 21.3111ZM48.8764 23.3007C48.9319 23.3903 48.8949 23.4799 48.8025 23.4799C48.6917 23.4799 48.5993 23.3903 48.5993 23.3007C48.5993 23.1931 48.6362 23.1214 48.6732 23.1214C48.7286 23.1214 48.821 23.1931 48.8764 23.3007ZM24.3406 27.5485C24.2851 27.7278 24.2482 27.6202 24.2482 27.3335C24.2482 27.0288 24.2851 26.9033 24.3406 27.0108C24.3775 27.1363 24.3775 27.3872 24.3406 27.5485ZM16.0449 30.0758C16.1927 30.3446 16.6177 30.8286 17.0241 31.1691C17.6154 31.671 17.8001 31.7247 18.0218 31.5455C18.2066 31.4021 18.3729 31.3842 18.5392 31.4917C18.65 31.5993 18.9826 31.7247 19.2782 31.7964C19.5553 31.8502 19.777 31.9757 19.777 32.0653C19.777 32.1549 20.165 32.1908 20.6454 32.1549C21.1627 32.1191 21.5692 32.1728 21.6431 32.2983C21.717 32.4058 22.105 32.4955 22.5299 32.5134C23.3059 32.5492 24.0265 32.9615 24.0265 33.3916C24.0265 33.6963 24.8579 34.467 25.2274 34.5208C25.3937 34.5387 25.6708 34.7538 25.8925 34.9868C26.1881 35.3095 26.2436 35.5783 26.1697 36.2953C26.0588 37.4244 26.2805 38.5895 26.687 38.9838C26.8533 39.1451 26.9826 39.3781 26.9826 39.4856C26.9826 39.7904 28.5715 41.2242 28.7563 41.0808C28.8302 41.0092 28.8302 41.0629 28.7563 41.1884C28.6824 41.3139 28.7378 41.4572 28.9041 41.511C29.0704 41.5648 29.1997 41.7261 29.1997 41.8695C29.1997 42.0129 29.3106 42.1383 29.4399 42.1383C29.5507 42.1563 29.8279 42.1742 30.0311 42.1921C30.7517 42.2638 31.7678 42.8374 32.0819 43.3571C32.2667 43.6618 32.4514 43.859 32.5069 43.8232C32.5623 43.7873 32.6362 44.1458 32.6731 44.5939C32.7101 45.0599 32.7655 45.5976 32.8025 45.7948C32.8394 45.9919 32.8764 46.3325 32.8764 46.5655C32.8949 46.7985 32.9688 46.9419 33.0427 46.8881C33.135 46.8343 33.2089 47.2286 33.2274 47.7305C33.2644 49.1465 33.6154 50.7954 33.9295 50.9567C34.0588 51.0284 34.1882 51.2435 34.1882 51.4228C34.1882 51.6916 33.9665 51.7633 32.821 51.8708C31.6939 51.9605 31.232 51.9246 30.3267 51.6199C29.0888 51.2256 28.5715 51.1539 29.0149 51.4586C29.3845 51.7095 28.553 51.4945 27.8879 51.1539C27.6108 51.0284 27.3336 50.9747 27.2597 51.0464C27.1674 51.1181 27.1674 51.0643 27.2413 50.9388C27.3336 50.7954 27.2043 50.6879 26.8163 50.6162C26.5022 50.5445 26.2066 50.5266 26.1327 50.5445C26.0588 50.5624 25.948 50.4907 25.8925 50.4011C25.7447 50.1681 23.657 49.0748 23.657 49.2361C23.657 49.2898 23.5092 49.2182 23.3244 49.0568C23.1396 48.8776 22.9179 48.8059 22.8255 48.8776C22.7516 48.9672 22.7332 48.9135 22.8071 48.788C22.881 48.6625 22.8071 48.5191 22.6223 48.4474C22.3267 48.3399 22.105 48.1786 21.1997 47.3541C20.9964 47.1928 20.7747 47.0673 20.6824 47.0852C20.59 47.1211 20.5161 47.0136 20.5161 46.8702C20.5161 46.7268 20.4422 46.6013 20.3683 46.6013C20.2944 46.6013 20.0727 46.3504 19.8879 46.0636C19.7216 45.7589 19.4814 45.5617 19.389 45.6155C19.2967 45.6872 19.2228 45.5976 19.2228 45.4542C19.2228 45.2929 19.0195 45.042 18.7609 44.8806C18.5022 44.7193 18.3359 44.5401 18.3729 44.4863C18.4283 44.4505 18.262 44.1099 18.0218 43.7515C17.7632 43.4109 17.5599 43.0345 17.5599 42.9449C17.5599 42.8374 17.3382 42.5327 17.0611 42.2459C16.7655 41.9412 16.6546 41.7619 16.784 41.8336C17.135 42.0308 17.0426 41.6902 16.6177 41.1346C16.396 40.8658 16.1927 40.4714 16.1743 40.2384C16.0819 39.5215 15.8786 39.0555 15.6939 39.1809C15.583 39.2347 15.5276 39.1093 15.5646 38.8583C15.6385 38.2489 15.3244 36.1339 15.1766 36.349C15.1211 36.4386 15.0657 35.3274 15.0657 33.8756C15.0657 32.4238 15.1396 31.3125 15.2135 31.42C15.3059 31.5455 15.3428 31.3483 15.3059 30.954C15.2689 30.5956 15.3059 30.2909 15.3983 30.2909C15.4907 30.2909 15.5276 30.0937 15.4907 29.8607C15.3798 29.2871 15.7308 29.4305 16.0449 30.0758ZM26.1697 53.6274C26.5577 53.6274 26.8717 53.7349 26.9272 53.8783C26.9826 54.0217 27.1674 54.1292 27.3521 54.1292C27.6477 54.1292 27.6108 54.2009 27.1858 54.6132C26.9087 54.8999 26.3729 55.348 26.0034 55.6169C25.6154 55.9037 25.3567 56.1904 25.4122 56.28C25.4676 56.3517 25.3567 56.4055 25.1904 56.3876C24.9318 56.3517 24.8579 56.1546 24.8579 55.5093C24.8579 55.0433 24.9318 54.6669 25.0242 54.6669C25.1165 54.6669 25.135 54.4339 25.0796 54.1471C24.9687 53.6094 25.0796 53.3585 25.3567 53.5198C25.4491 53.5736 25.8186 53.6274 26.1697 53.6274ZM32.2113 54.7924C32.0819 54.8282 31.8233 54.8282 31.657 54.7924C31.4722 54.7386 31.5831 54.7028 31.8787 54.7028C32.1928 54.7028 32.3221 54.7386 32.2113 54.7924Z" fill="black"/>
</svg>
