<svg width="49" height="49" viewBox="0 0 49 49" fill="none" xmlns="http://www.w3.org/2000/svg">
<g clipPath="url(#clip0_29_248)">
<path d="M24.6577 4.40732C31.0702 4.40732 31.8296 4.43545 34.3515 4.54795C36.6952 4.65107 37.9608 5.04482 38.8046 5.37295C39.9202 5.8042 40.7265 6.3292 41.5608 7.16357C42.4046 8.00732 42.9202 8.8042 43.3515 9.91982C43.6796 10.7636 44.0733 12.0386 44.1765 14.3729C44.289 16.9042 44.3171 17.6636 44.3171 24.0667C44.3171 30.4792 44.289 31.2386 44.1765 33.7605C44.0733 36.1042 43.6796 37.3698 43.3515 38.2136C42.9202 39.3292 42.3952 40.1355 41.5608 40.9698C40.7171 41.8136 39.9202 42.3292 38.8046 42.7605C37.9608 43.0886 36.6858 43.4823 34.3515 43.5854C31.8202 43.6979 31.0608 43.7261 24.6577 43.7261C18.2452 43.7261 17.4858 43.6979 14.964 43.5854C12.6202 43.4823 11.3546 43.0886 10.5108 42.7605C9.39522 42.3292 8.58897 41.8042 7.75459 40.9698C6.91084 40.1261 6.39521 39.3292 5.96396 38.2136C5.63584 37.3698 5.24209 36.0948 5.13897 33.7605C5.02647 31.2292 4.99834 30.4698 4.99834 24.0667C4.99834 17.6542 5.02647 16.8948 5.13897 14.3729C5.24209 12.0292 5.63584 10.7636 5.96396 9.91982C6.39521 8.8042 6.92022 7.99795 7.75459 7.16357C8.59834 6.31982 9.39522 5.8042 10.5108 5.37295C11.3546 5.04482 12.6296 4.65107 14.964 4.54795C17.4858 4.43545 18.2452 4.40732 24.6577 4.40732ZM24.6577 0.0854492C18.1421 0.0854492 17.3265 0.113574 14.7671 0.226074C12.2171 0.338574 10.464 0.751074 8.94522 1.3417C7.36084 1.96045 6.02022 2.77607 4.68897 4.1167C3.34834 5.44795 2.53271 6.78858 1.91396 8.36357C1.32334 9.8917 0.91084 11.6354 0.79834 14.1854C0.68584 16.7542 0.657715 17.5698 0.657715 24.0854C0.657715 30.6011 0.68584 31.4167 0.79834 33.9761C0.91084 36.5261 1.32334 38.2792 1.91396 39.798C2.53271 41.3823 3.34834 42.7229 4.68897 44.0542C6.02022 45.3854 7.36084 46.2104 8.93584 46.8198C10.464 47.4104 12.2077 47.8229 14.7577 47.9354C17.3171 48.0479 18.1327 48.0761 24.6483 48.0761C31.164 48.0761 31.9796 48.0479 34.539 47.9354C37.089 47.8229 38.8421 47.4104 40.3608 46.8198C41.9358 46.2104 43.2765 45.3854 44.6077 44.0542C45.939 42.7229 46.764 41.3823 47.3733 39.8073C47.964 38.2792 48.3765 36.5355 48.489 33.9855C48.6015 31.4261 48.6296 30.6105 48.6296 24.0948C48.6296 17.5792 48.6015 16.7636 48.489 14.2042C48.3765 11.6542 47.964 9.90107 47.3733 8.38232C46.7827 6.78857 45.9671 5.44795 44.6265 4.1167C43.2952 2.78545 41.9546 1.96045 40.3796 1.35107C38.8515 0.760449 37.1077 0.347949 34.5577 0.235449C31.989 0.113574 31.1733 0.0854492 24.6577 0.0854492Z" fill="black"/>
<path d="M24.6577 11.7573C17.8515 11.7573 12.3296 17.2792 12.3296 24.0854C12.3296 30.8917 17.8515 36.4136 24.6577 36.4136C31.464 36.4136 36.9858 30.8917 36.9858 24.0854C36.9858 17.2792 31.464 11.7573 24.6577 11.7573ZM24.6577 32.0823C20.2421 32.0823 16.6608 28.5011 16.6608 24.0854C16.6608 19.6698 20.2421 16.0886 24.6577 16.0886C29.0733 16.0886 32.6546 19.6698 32.6546 24.0854C32.6546 28.5011 29.0733 32.0823 24.6577 32.0823Z" fill="black"/>
<path d="M40.3515 11.2697C40.3515 12.8635 39.0577 14.1479 37.4733 14.1479C35.8796 14.1479 34.5952 12.8541 34.5952 11.2697C34.5952 9.67598 35.889 8.3916 37.4733 8.3916C39.0577 8.3916 40.3515 9.68535 40.3515 11.2697Z" fill="black"/>
</g>
<defs>
<clipPath id="clip0_29_248">
<rect width="48" height="48" fill="white" transform="translate(0.657715 0.0854492)"/>
</clipPath>
</defs>
</svg>
