<svg width="159" height="189" viewBox="0 0 159 189" fill="none" xmlns="http://www.w3.org/2000/svg">
<g id="luna" opacity="0.5" filter="url(#filter0_ddii_151_14)">
<g clipPath="url(#paint0_diamond_151_14_clip_path)" data-figma-skip-parse="true"><g transform="matrix(0.0531359 -0.0867661 0.0366298 0.0224322 106.572 142.095)"><rect x="0" y="0" width="1436.33" height="3771.87" fill="url(#paint0_diamond_151_14)" opacity="1" shapeRendering="crispEdges"/><rect x="0" y="0" width="1436.33" height="3771.87" transform="scale(1 -1)" fill="url(#paint0_diamond_151_14)" opacity="1" shapeRendering="crispEdges"/><rect x="0" y="0" width="1436.33" height="3771.87" transform="scale(-1 1)" fill="url(#paint0_diamond_151_14)" opacity="1" shapeRendering="crispEdges"/><rect x="0" y="0" width="1436.33" height="3771.87" transform="scale(-1)" fill="url(#paint0_diamond_151_14)" opacity="1" shapeRendering="crispEdges"/></g></g><path d="M62.1804 2.52888C62.8556 2.16767 73.7247 1.54544 81.0134 2.52888C90.7272 3.83951 96.0904 5.94798 104.891 10.2638C110.553 13.0408 113.719 14.7759 118.679 18.6714C122.989 22.0563 125.069 24.381 128.768 28.4242C131.981 31.9354 133.731 33.9726 136.503 37.8407C139.418 41.9077 140.915 44.4412 143.229 48.7461C145.51 52.9884 146.466 55.2362 148.274 59.7004C149.989 63.9346 151.048 66.0713 152.31 70.4621C153.337 74.0377 153.713 76.3839 154.294 80.008L154.327 80.2149C155.015 84.5021 154.931 86.9476 155 91.3128C155 91.3128 154.717 101.476 153.318 107.792C152.276 112.496 151.577 114.689 149.955 119.226C148.191 124.164 146.957 127.334 144.575 132.006C142.108 136.842 140.065 139.179 137.176 143.776C134.287 148.373 129.105 152.856 129.105 152.856C129.105 152.856 123.355 158.415 119.352 161.6C115.816 164.414 113.874 166.111 109.935 168.326C106.913 170.026 104.876 171.046 101.5 172.5C98.1665 173.935 96.3734 174.392 92.784 175.725C88.8907 177.171 86.7326 178.116 82.6949 179.088C78.0541 180.205 75.356 180.544 70.588 180.769C68.1754 180.884 66.7837 180.844 64.4351 180.776L64.1982 180.769C59.4557 180.634 56.7864 180.443 52.0913 179.761C47.5797 179.105 45.0428 178.651 40.657 177.406C35.9983 176.084 33.4567 174.994 29.0533 173.106L28.8864 173.034C24.7295 171.252 22.2802 170.413 18.461 167.99C15.3777 166.034 13.8354 164.648 11.0624 162.273C8.16993 159.795 4 155.547 4 155.547V154.201C4 154.201 7.47965 154.656 9.71715 154.874C15.6052 155.448 18.9354 155.622 24.8508 155.547C29.4546 155.488 32.0588 155.492 36.6214 154.874C41.0118 154.28 43.4735 153.785 47.7194 152.52C52.7444 151.022 55.4224 149.717 60.1626 147.475C64.1993 145.566 66.4783 144.482 70.2517 142.095C73.9807 139.735 75.8999 138.143 79.3318 135.369C82.7333 132.619 84.7565 131.169 87.7394 127.97C90.3555 125.165 91.6212 123.397 93.7929 120.235C96.2924 116.596 97.5082 114.417 99.51 110.482C101.27 107.023 102.304 105.078 103.546 101.402C104.84 97.5688 105.319 95.3168 105.9 91.3128C106.481 87.3089 106.151 77.2469 104.555 68.4443C103.537 62.8337 100.855 54.3195 100.855 54.3195C100.855 54.3195 97.6721 46.5856 95.1381 41.8763C92.8754 37.6712 91.435 35.3986 88.7483 31.4509C86.1621 27.6508 84.7146 25.4924 81.686 22.0344C78.3201 18.1915 76.2603 16.1434 72.2695 12.9543C68.5702 9.99812 66.2619 8.62912 62.1804 6.22821C61.2677 5.69135 59.8263 4.88299 59.8263 4.88299C59.8263 4.88299 60.1166 3.98373 60.4989 3.53778C60.7871 3.20151 61.5051 2.8901 62.1804 2.52888Z" data-figma-gradient-fill="{&#34;type&#34;:&#34;GRADIENT_DIAMOND&#34;,&#34;stops&#34;:[{&#34;color&#34;:{&#34;r&#34;:0.62307697534561157,&#34;g&#34;:0.51337373256683350,&#34;b&#34;:0.097655259072780609,&#34;a&#34;:1.0},&#34;position&#34;:0.0},{&#34;color&#34;:{&#34;r&#34;:0.91153848171234131,&#34;g&#34;:0.74562656879425049,&#34;b&#34;:0.0026293308474123478,&#34;a&#34;:1.0},&#34;position&#34;:1.0}],&#34;stopsVar&#34;:[{&#34;color&#34;:{&#34;r&#34;:0.62307697534561157,&#34;g&#34;:0.51337373256683350,&#34;b&#34;:0.097655259072780609,&#34;a&#34;:1.0},&#34;position&#34;:0.0},{&#34;color&#34;:{&#34;r&#34;:0.91153848171234131,&#34;g&#34;:0.74562656879425049,&#34;b&#34;:0.0026293308474123478,&#34;a&#34;:1.0},&#34;position&#34;:1.0}],&#34;transform&#34;:{&#34;m00&#34;:106.27171325683594,&#34;m01&#34;:73.259544372558594,&#34;m02&#34;:16.806755065917969,&#34;m10&#34;:-173.53228759765625,&#34;m11&#34;:44.864376068115234,&#34;m12&#34;:206.42857360839844},&#34;opacity&#34;:1.0,&#34;blendMode&#34;:&#34;NORMAL&#34;,&#34;visible&#34;:true}"/>
<g clipPath="url(#paint1_diamond_151_14_clip_path)" data-figma-skip-parse="true"><g transform="matrix(0.0615434 0.0867661 -0.0366298 0.0259816 118.679 56.0011)"><rect x="0" y="0" width="1167.87" height="3722.19" fill="url(#paint1_diamond_151_14)" opacity="1" shapeRendering="crispEdges"/><rect x="0" y="0" width="1167.87" height="3722.19" transform="scale(1 -1)" fill="url(#paint1_diamond_151_14)" opacity="1" shapeRendering="crispEdges"/><rect x="0" y="0" width="1167.87" height="3722.19" transform="scale(-1 1)" fill="url(#paint1_diamond_151_14)" opacity="1" shapeRendering="crispEdges"/><rect x="0" y="0" width="1167.87" height="3722.19" transform="scale(-1)" fill="url(#paint1_diamond_151_14)" opacity="1" shapeRendering="crispEdges"/></g></g><path d="M62.1804 2.52888C62.8556 2.16767 73.7247 1.54544 81.0134 2.52888C90.7272 3.83951 96.0904 5.94798 104.891 10.2638C110.553 13.0408 113.719 14.7759 118.679 18.6714C122.989 22.0563 125.069 24.381 128.768 28.4242C131.981 31.9354 133.731 33.9726 136.503 37.8407C139.418 41.9077 140.915 44.4412 143.229 48.7461C145.51 52.9884 146.466 55.2362 148.274 59.7004C149.989 63.9346 151.048 66.0713 152.31 70.4621C153.337 74.0377 153.713 76.3839 154.294 80.008L154.327 80.2149C155.015 84.5021 154.931 86.9476 155 91.3128C155 91.3128 154.717 101.476 153.318 107.792C152.276 112.496 151.577 114.689 149.955 119.226C148.191 124.164 146.957 127.334 144.575 132.006C142.108 136.842 140.065 139.179 137.176 143.776C134.287 148.373 129.105 152.856 129.105 152.856C129.105 152.856 123.355 158.415 119.352 161.6C115.816 164.414 113.874 166.111 109.935 168.326C106.913 170.026 104.876 171.046 101.5 172.5C98.1665 173.935 96.3734 174.392 92.784 175.725C88.8907 177.171 86.7326 178.116 82.6949 179.088C78.0541 180.205 75.356 180.544 70.588 180.769C68.1754 180.884 66.7837 180.844 64.4351 180.776L64.1982 180.769C59.4557 180.634 56.7864 180.443 52.0913 179.761C47.5797 179.105 45.0428 178.651 40.657 177.406C35.9983 176.084 33.4567 174.994 29.0533 173.106L28.8864 173.034C24.7295 171.252 22.2802 170.413 18.461 167.99C15.3777 166.034 13.8354 164.648 11.0624 162.273C8.16993 159.795 4 155.547 4 155.547V154.201C4 154.201 7.47965 154.656 9.71715 154.874C15.6052 155.448 18.9354 155.622 24.8508 155.547C29.4546 155.488 32.0588 155.492 36.6214 154.874C41.0118 154.28 43.4735 153.785 47.7194 152.52C52.7444 151.022 55.4224 149.717 60.1626 147.475C64.1993 145.566 66.4783 144.482 70.2517 142.095C73.9807 139.735 75.8999 138.143 79.3318 135.369C82.7333 132.619 84.7565 131.169 87.7394 127.97C90.3555 125.165 91.6212 123.397 93.7929 120.235C96.2924 116.596 97.5082 114.417 99.51 110.482C101.27 107.023 102.304 105.078 103.546 101.402C104.84 97.5688 105.319 95.3168 105.9 91.3128C106.481 87.3089 106.151 77.2469 104.555 68.4443C103.537 62.8337 100.855 54.3195 100.855 54.3195C100.855 54.3195 97.6721 46.5856 95.1381 41.8763C92.8754 37.6712 91.435 35.3986 88.7483 31.4509C86.1621 27.6508 84.7146 25.4924 81.686 22.0344C78.3201 18.1915 76.2603 16.1434 72.2695 12.9543C68.5702 9.99812 66.2619 8.62912 62.1804 6.22821C61.2677 5.69135 59.8263 4.88299 59.8263 4.88299C59.8263 4.88299 60.1166 3.98373 60.4989 3.53778C60.7871 3.20151 61.5051 2.8901 62.1804 2.52888Z" data-figma-gradient-fill="{&#34;type&#34;:&#34;GRADIENT_DIAMOND&#34;,&#34;stops&#34;:[{&#34;color&#34;:{&#34;r&#34;:0.76826918125152588,&#34;g&#34;:0.62467342615127563,&#34;b&#34;:0.080520473420619965,&#34;a&#34;:1.0},&#34;position&#34;:0.0},{&#34;color&#34;:{&#34;r&#34;:0.91153848171234131,&#34;g&#34;:0.74562656879425049,&#34;b&#34;:0.0026293308474123478,&#34;a&#34;:0.50},&#34;position&#34;:1.0}],&#34;stopsVar&#34;:[{&#34;color&#34;:{&#34;r&#34;:0.76826918125152588,&#34;g&#34;:0.62467342615127563,&#34;b&#34;:0.080520473420619965,&#34;a&#34;:1.0},&#34;position&#34;:0.0},{&#34;color&#34;:{&#34;r&#34;:0.91153848171234131,&#34;g&#34;:0.74562656879425049,&#34;b&#34;:0.0026293308474123478,&#34;a&#34;:0.50},&#34;position&#34;:1.0}],&#34;transform&#34;:{&#34;m00&#34;:123.08686065673828,&#34;m01&#34;:-73.259552001953125,&#34;m02&#34;:93.765632629394531,&#34;m10&#34;:173.53230285644531,&#34;m11&#34;:51.963165283203125,&#34;m12&#34;:-56.746646881103516},&#34;opacity&#34;:1.0,&#34;blendMode&#34;:&#34;NORMAL&#34;,&#34;visible&#34;:true}"/>
<path d="M62.1804 2.52888C62.8556 2.16767 73.7247 1.54544 81.0134 2.52888C90.7272 3.83951 96.0904 5.94798 104.891 10.2638C110.553 13.0408 113.719 14.7759 118.679 18.6714C122.989 22.0563 125.069 24.381 128.768 28.4242C131.981 31.9354 133.731 33.9726 136.503 37.8407C139.418 41.9077 140.915 44.4412 143.229 48.7461C145.51 52.9884 146.466 55.2362 148.274 59.7004C149.989 63.9346 151.048 66.0713 152.31 70.4621C153.337 74.0377 153.713 76.3839 154.294 80.008L154.327 80.2149C155.015 84.5021 154.931 86.9476 155 91.3128C155 91.3128 154.717 101.476 153.318 107.792C152.276 112.496 151.577 114.689 149.955 119.226C148.191 124.164 146.957 127.334 144.575 132.006C142.108 136.842 140.065 139.179 137.176 143.776C134.287 148.373 129.105 152.856 129.105 152.856C129.105 152.856 123.355 158.415 119.352 161.6C115.816 164.414 113.874 166.111 109.935 168.326C106.913 170.026 104.876 171.046 101.5 172.5C98.1665 173.935 96.3734 174.392 92.784 175.725C88.8907 177.171 86.7326 178.116 82.6949 179.088C78.0541 180.205 75.356 180.544 70.588 180.769C68.1754 180.884 66.7837 180.844 64.4351 180.776L64.1982 180.769C59.4557 180.634 56.7864 180.443 52.0913 179.761C47.5797 179.105 45.0428 178.651 40.657 177.406C35.9983 176.084 33.4567 174.994 29.0533 173.106L28.8864 173.034C24.7295 171.252 22.2802 170.413 18.461 167.99C15.3777 166.034 13.8354 164.648 11.0624 162.273C8.16993 159.795 4 155.547 4 155.547V154.201C4 154.201 7.47965 154.656 9.71715 154.874C15.6052 155.448 18.9354 155.622 24.8508 155.547C29.4546 155.488 32.0588 155.492 36.6214 154.874C41.0118 154.28 43.4735 153.785 47.7194 152.52C52.7444 151.022 55.4224 149.717 60.1626 147.475C64.1993 145.566 66.4783 144.482 70.2517 142.095C73.9807 139.735 75.8999 138.143 79.3318 135.369C82.7333 132.619 84.7565 131.169 87.7394 127.97C90.3555 125.165 91.6212 123.397 93.7929 120.235C96.2924 116.596 97.5082 114.417 99.51 110.482C101.27 107.023 102.304 105.078 103.546 101.402C104.84 97.5688 105.319 95.3168 105.9 91.3128C106.481 87.3089 106.151 77.2469 104.555 68.4443C103.537 62.8337 100.855 54.3195 100.855 54.3195C100.855 54.3195 97.6721 46.5856 95.1381 41.8763C92.8754 37.6712 91.435 35.3986 88.7483 31.4509C86.1621 27.6508 84.7146 25.4924 81.686 22.0344C78.3201 18.1915 76.2603 16.1434 72.2695 12.9543C68.5702 9.99812 66.2619 8.62912 62.1804 6.22821C61.2677 5.69135 59.8263 4.88299 59.8263 4.88299C59.8263 4.88299 60.1166 3.98373 60.4989 3.53778C60.7871 3.20151 61.5051 2.8901 62.1804 2.52888Z" fill="url(#paint2_radial_151_14)" fill-opacity="0.2"/>
<g clipPath="url(#paint3_diamond_151_14_clip_path)" data-figma-skip-parse="true"><g transform="matrix(-0.0808808 0.0389396 -0.0155836 -0.0323685 160.381 141.902)"><rect x="0" y="0" width="1772.69" height="5434.31" fill="url(#paint3_diamond_151_14)" opacity="1" shapeRendering="crispEdges"/><rect x="0" y="0" width="1772.69" height="5434.31" transform="scale(1 -1)" fill="url(#paint3_diamond_151_14)" opacity="1" shapeRendering="crispEdges"/><rect x="0" y="0" width="1772.69" height="5434.31" transform="scale(-1 1)" fill="url(#paint3_diamond_151_14)" opacity="1" shapeRendering="crispEdges"/><rect x="0" y="0" width="1772.69" height="5434.31" transform="scale(-1)" fill="url(#paint3_diamond_151_14)" opacity="1" shapeRendering="crispEdges"/></g></g><path d="M62.1804 2.52888C62.8556 2.16767 73.7247 1.54544 81.0134 2.52888C90.7272 3.83951 96.0904 5.94798 104.891 10.2638C110.553 13.0408 113.719 14.7759 118.679 18.6714C122.989 22.0563 125.069 24.381 128.768 28.4242C131.981 31.9354 133.731 33.9726 136.503 37.8407C139.418 41.9077 140.915 44.4412 143.229 48.7461C145.51 52.9884 146.466 55.2362 148.274 59.7004C149.989 63.9346 151.048 66.0713 152.31 70.4621C153.337 74.0377 153.713 76.3839 154.294 80.008L154.327 80.2149C155.015 84.5021 154.931 86.9476 155 91.3128C155 91.3128 154.717 101.476 153.318 107.792C152.276 112.496 151.577 114.689 149.955 119.226C148.191 124.164 146.957 127.334 144.575 132.006C142.108 136.842 140.065 139.179 137.176 143.776C134.287 148.373 129.105 152.856 129.105 152.856C129.105 152.856 123.355 158.415 119.352 161.6C115.816 164.414 113.874 166.111 109.935 168.326C106.913 170.026 104.876 171.046 101.5 172.5C98.1665 173.935 96.3734 174.392 92.784 175.725C88.8907 177.171 86.7326 178.116 82.6949 179.088C78.0541 180.205 75.356 180.544 70.588 180.769C68.1754 180.884 66.7837 180.844 64.4351 180.776L64.1982 180.769C59.4557 180.634 56.7864 180.443 52.0913 179.761C47.5797 179.105 45.0428 178.651 40.657 177.406C35.9983 176.084 33.4567 174.994 29.0533 173.106L28.8864 173.034C24.7295 171.252 22.2802 170.413 18.461 167.99C15.3777 166.034 13.8354 164.648 11.0624 162.273C8.16993 159.795 4 155.547 4 155.547V154.201C4 154.201 7.47965 154.656 9.71715 154.874C15.6052 155.448 18.9354 155.622 24.8508 155.547C29.4546 155.488 32.0588 155.492 36.6214 154.874C41.0118 154.28 43.4735 153.785 47.7194 152.52C52.7444 151.022 55.4224 149.717 60.1626 147.475C64.1993 145.566 66.4783 144.482 70.2517 142.095C73.9807 139.735 75.8999 138.143 79.3318 135.369C82.7333 132.619 84.7565 131.169 87.7394 127.97C90.3555 125.165 91.6212 123.397 93.7929 120.235C96.2924 116.596 97.5082 114.417 99.51 110.482C101.27 107.023 102.304 105.078 103.546 101.402C104.84 97.5688 105.319 95.3168 105.9 91.3128C106.481 87.3089 106.151 77.2469 104.555 68.4443C103.537 62.8337 100.855 54.3195 100.855 54.3195C100.855 54.3195 97.6721 46.5856 95.1381 41.8763C92.8754 37.6712 91.435 35.3986 88.7483 31.4509C86.1621 27.6508 84.7146 25.4924 81.686 22.0344C78.3201 18.1915 76.2603 16.1434 72.2695 12.9543C68.5702 9.99812 66.2619 8.62912 62.1804 6.22821C61.2677 5.69135 59.8263 4.88299 59.8263 4.88299C59.8263 4.88299 60.1166 3.98373 60.4989 3.53778C60.7871 3.20151 61.5051 2.8901 62.1804 2.52888Z" data-figma-gradient-fill="{&#34;type&#34;:&#34;GRADIENT_DIAMOND&#34;,&#34;stops&#34;:[{&#34;color&#34;:{&#34;r&#34;:0.67692303657531738,&#34;g&#34;:0.51902884244918823,&#34;b&#34;:0.056627094745635986,&#34;a&#34;:0.250},&#34;position&#34;:0.0},{&#34;color&#34;:{&#34;r&#34;:0.0,&#34;g&#34;:0.0,&#34;b&#34;:0.0,&#34;a&#34;:0.0},&#34;position&#34;:1.0}],&#34;stopsVar&#34;:[{&#34;color&#34;:{&#34;r&#34;:0.67692303657531738,&#34;g&#34;:0.51902884244918823,&#34;b&#34;:0.056627094745635986,&#34;a&#34;:0.250},&#34;position&#34;:0.0},{&#34;color&#34;:{&#34;r&#34;:0.0,&#34;g&#34;:0.0,&#34;b&#34;:0.0,&#34;a&#34;:0.0},&#34;position&#34;:1.0}],&#34;transform&#34;:{&#34;m00&#34;:-161.76170349121094,&#34;m01&#34;:-31.167186737060547,&#34;m02&#34;:256.84527587890625,&#34;m10&#34;:77.879119873046875,&#34;m11&#34;:-64.736968994140625,&#34;m12&#34;:135.33094787597656},&#34;opacity&#34;:1.0,&#34;blendMode&#34;:&#34;NORMAL&#34;,&#34;visible&#34;:true}"/>
<g clipPath="url(#paint4_diamond_151_14_clip_path)" data-figma-skip-parse="true"><g transform="matrix(-0.0860935 0.0215234 -0.00723524 -0.028941 90.0935 185.958)"><rect x="0" y="0" width="1225.98" height="6723.01" fill="url(#paint4_diamond_151_14)" opacity="1" shapeRendering="crispEdges"/><rect x="0" y="0" width="1225.98" height="6723.01" transform="scale(1 -1)" fill="url(#paint4_diamond_151_14)" opacity="1" shapeRendering="crispEdges"/><rect x="0" y="0" width="1225.98" height="6723.01" transform="scale(-1 1)" fill="url(#paint4_diamond_151_14)" opacity="1" shapeRendering="crispEdges"/><rect x="0" y="0" width="1225.98" height="6723.01" transform="scale(-1)" fill="url(#paint4_diamond_151_14)" opacity="1" shapeRendering="crispEdges"/></g></g><path d="M62.1804 2.52888C62.8556 2.16767 73.7247 1.54544 81.0134 2.52888C90.7272 3.83951 96.0904 5.94798 104.891 10.2638C110.553 13.0408 113.719 14.7759 118.679 18.6714C122.989 22.0563 125.069 24.381 128.768 28.4242C131.981 31.9354 133.731 33.9726 136.503 37.8407C139.418 41.9077 140.915 44.4412 143.229 48.7461C145.51 52.9884 146.466 55.2362 148.274 59.7004C149.989 63.9346 151.048 66.0713 152.31 70.4621C153.337 74.0377 153.713 76.3839 154.294 80.008L154.327 80.2149C155.015 84.5021 154.931 86.9476 155 91.3128C155 91.3128 154.717 101.476 153.318 107.792C152.276 112.496 151.577 114.689 149.955 119.226C148.191 124.164 146.957 127.334 144.575 132.006C142.108 136.842 140.065 139.179 137.176 143.776C134.287 148.373 129.105 152.856 129.105 152.856C129.105 152.856 123.355 158.415 119.352 161.6C115.816 164.414 113.874 166.111 109.935 168.326C106.913 170.026 104.876 171.046 101.5 172.5C98.1665 173.935 96.3734 174.392 92.784 175.725C88.8907 177.171 86.7326 178.116 82.6949 179.088C78.0541 180.205 75.356 180.544 70.588 180.769C68.1754 180.884 66.7837 180.844 64.4351 180.776L64.1982 180.769C59.4557 180.634 56.7864 180.443 52.0913 179.761C47.5797 179.105 45.0428 178.651 40.657 177.406C35.9983 176.084 33.4567 174.994 29.0533 173.106L28.8864 173.034C24.7295 171.252 22.2802 170.413 18.461 167.99C15.3777 166.034 13.8354 164.648 11.0624 162.273C8.16993 159.795 4 155.547 4 155.547V154.201C4 154.201 7.47965 154.656 9.71715 154.874C15.6052 155.448 18.9354 155.622 24.8508 155.547C29.4546 155.488 32.0588 155.492 36.6214 154.874C41.0118 154.28 43.4735 153.785 47.7194 152.52C52.7444 151.022 55.4224 149.717 60.1626 147.475C64.1993 145.566 66.4783 144.482 70.2517 142.095C73.9807 139.735 75.8999 138.143 79.3318 135.369C82.7333 132.619 84.7565 131.169 87.7394 127.97C90.3555 125.165 91.6212 123.397 93.7929 120.235C96.2924 116.596 97.5082 114.417 99.51 110.482C101.27 107.023 102.304 105.078 103.546 101.402C104.84 97.5688 105.319 95.3168 105.9 91.3128C106.481 87.3089 106.151 77.2469 104.555 68.4443C103.537 62.8337 100.855 54.3195 100.855 54.3195C100.855 54.3195 97.6721 46.5856 95.1381 41.8763C92.8754 37.6712 91.435 35.3986 88.7483 31.4509C86.1621 27.6508 84.7146 25.4924 81.686 22.0344C78.3201 18.1915 76.2603 16.1434 72.2695 12.9543C68.5702 9.99812 66.2619 8.62912 62.1804 6.22821C61.2677 5.69135 59.8263 4.88299 59.8263 4.88299C59.8263 4.88299 60.1166 3.98373 60.4989 3.53778C60.7871 3.20151 61.5051 2.8901 62.1804 2.52888Z" data-figma-gradient-fill="{&#34;type&#34;:&#34;GRADIENT_DIAMOND&#34;,&#34;stops&#34;:[{&#34;color&#34;:{&#34;r&#34;:0.67692303657531738,&#34;g&#34;:0.51902884244918823,&#34;b&#34;:0.056627094745635986,&#34;a&#34;:0.250},&#34;position&#34;:0.0},{&#34;color&#34;:{&#34;r&#34;:0.0,&#34;g&#34;:0.0,&#34;b&#34;:0.0,&#34;a&#34;:0.0},&#34;position&#34;:1.0}],&#34;stopsVar&#34;:[{&#34;color&#34;:{&#34;r&#34;:0.67692303657531738,&#34;g&#34;:0.51902884244918823,&#34;b&#34;:0.056627094745635986,&#34;a&#34;:0.250},&#34;position&#34;:0.0},{&#34;color&#34;:{&#34;r&#34;:0.0,&#34;g&#34;:0.0,&#34;b&#34;:0.0,&#34;a&#34;:0.0},&#34;position&#34;:1.0}],&#34;transform&#34;:{&#34;m00&#34;:-172.18707275390625,&#34;m01&#34;:-14.470487594604492,&#34;m02&#34;:183.42231750488281,&#34;m10&#34;:43.046756744384766,&#34;m11&#34;:-57.881961822509766,&#34;m12&#34;:193.37528991699219},&#34;opacity&#34;:1.0,&#34;blendMode&#34;:&#34;NORMAL&#34;,&#34;visible&#34;:true}"/>
</g>
<defs>
<filter id="filter0_ddii_151_14" x="0" y="0" width="159" height="188.842" filterUnits="userSpaceOnUse" colorInterpolationFilters="sRGB">
<feFlood floodOpacity="0" result="BackgroundImageFix"/>
<feColorMatrix in="SourceAlpha" type="matrix" values="0 0 0 0 0 0 0 0 0 0 0 0 0 0 0 0 0 0 127 0" result="hardAlpha"/>
<feOffset dy="4"/>
<feGaussianBlur stdDeviation="2"/>
<feComposite in2="hardAlpha" operator="out"/>
<feColorMatrix type="matrix" values="0 0 0 0 0 0 0 0 0 0 0 0 0 0 0 0 0 0 0.25 0"/>
<feBlend mode="normal" in2="BackgroundImageFix" result="effect1_dropShadow_151_14"/>
<feColorMatrix in="SourceAlpha" type="matrix" values="0 0 0 0 0 0 0 0 0 0 0 0 0 0 0 0 0 0 127 0" result="hardAlpha"/>
<feOffset dx="-1" dy="-1"/>
<feGaussianBlur stdDeviation="0.5"/>
<feComposite in2="hardAlpha" operator="out"/>
<feColorMatrix type="matrix" values="0 0 0 0 0 0 0 0 0 0 0 0 0 0 0 0 0 0 0.25 0"/>
<feBlend mode="normal" in2="effect1_dropShadow_151_14" result="effect2_dropShadow_151_14"/>
<feBlend mode="normal" in="SourceGraphic" in2="effect2_dropShadow_151_14" result="shape"/>
<feColorMatrix in="SourceAlpha" type="matrix" values="0 0 0 0 0 0 0 0 0 0 0 0 0 0 0 0 0 0 127 0" result="hardAlpha"/>
<feOffset dy="-2"/>
<feGaussianBlur stdDeviation="0.5"/>
<feComposite in2="hardAlpha" operator="arithmetic" k2="-1" k3="1"/>
<feColorMatrix type="matrix" values="0 0 0 0 0 0 0 0 0 0 0 0 0 0 0 0 0 0 0.25 0"/>
<feBlend mode="normal" in2="shape" result="effect3_innerShadow_151_14"/>
<feColorMatrix in="SourceAlpha" type="matrix" values="0 0 0 0 0 0 0 0 0 0 0 0 0 0 0 0 0 0 127 0" result="hardAlpha"/>
<feOffset dy="4"/>
<feGaussianBlur stdDeviation="2"/>
<feComposite in2="hardAlpha" operator="arithmetic" k2="-1" k3="1"/>
<feColorMatrix type="matrix" values="0 0 0 0 0.730769 0 0 0 0 0.1848 0 0 0 0 0.1848 0 0 0 0.25 0"/>
<feBlend mode="normal" in2="effect3_innerShadow_151_14" result="effect4_innerShadow_151_14"/>
</filter>
<clipPath id="paint0_diamond_151_14_clip_path"><path d="M62.1804 2.52888C62.8556 2.16767 73.7247 1.54544 81.0134 2.52888C90.7272 3.83951 96.0904 5.94798 104.891 10.2638C110.553 13.0408 113.719 14.7759 118.679 18.6714C122.989 22.0563 125.069 24.381 128.768 28.4242C131.981 31.9354 133.731 33.9726 136.503 37.8407C139.418 41.9077 140.915 44.4412 143.229 48.7461C145.51 52.9884 146.466 55.2362 148.274 59.7004C149.989 63.9346 151.048 66.0713 152.31 70.4621C153.337 74.0377 153.713 76.3839 154.294 80.008L154.327 80.2149C155.015 84.5021 154.931 86.9476 155 91.3128C155 91.3128 154.717 101.476 153.318 107.792C152.276 112.496 151.577 114.689 149.955 119.226C148.191 124.164 146.957 127.334 144.575 132.006C142.108 136.842 140.065 139.179 137.176 143.776C134.287 148.373 129.105 152.856 129.105 152.856C129.105 152.856 123.355 158.415 119.352 161.6C115.816 164.414 113.874 166.111 109.935 168.326C106.913 170.026 104.876 171.046 101.5 172.5C98.1665 173.935 96.3734 174.392 92.784 175.725C88.8907 177.171 86.7326 178.116 82.6949 179.088C78.0541 180.205 75.356 180.544 70.588 180.769C68.1754 180.884 66.7837 180.844 64.4351 180.776L64.1982 180.769C59.4557 180.634 56.7864 180.443 52.0913 179.761C47.5797 179.105 45.0428 178.651 40.657 177.406C35.9983 176.084 33.4567 174.994 29.0533 173.106L28.8864 173.034C24.7295 171.252 22.2802 170.413 18.461 167.99C15.3777 166.034 13.8354 164.648 11.0624 162.273C8.16993 159.795 4 155.547 4 155.547V154.201C4 154.201 7.47965 154.656 9.71715 154.874C15.6052 155.448 18.9354 155.622 24.8508 155.547C29.4546 155.488 32.0588 155.492 36.6214 154.874C41.0118 154.28 43.4735 153.785 47.7194 152.52C52.7444 151.022 55.4224 149.717 60.1626 147.475C64.1993 145.566 66.4783 144.482 70.2517 142.095C73.9807 139.735 75.8999 138.143 79.3318 135.369C82.7333 132.619 84.7565 131.169 87.7394 127.97C90.3555 125.165 91.6212 123.397 93.7929 120.235C96.2924 116.596 97.5082 114.417 99.51 110.482C101.27 107.023 102.304 105.078 103.546 101.402C104.84 97.5688 105.319 95.3168 105.9 91.3128C106.481 87.3089 106.151 77.2469 104.555 68.4443C103.537 62.8337 100.855 54.3195 100.855 54.3195C100.855 54.3195 97.6721 46.5856 95.1381 41.8763C92.8754 37.6712 91.435 35.3986 88.7483 31.4509C86.1621 27.6508 84.7146 25.4924 81.686 22.0344C78.3201 18.1915 76.2603 16.1434 72.2695 12.9543C68.5702 9.99812 66.2619 8.62912 62.1804 6.22821C61.2677 5.69135 59.8263 4.88299 59.8263 4.88299C59.8263 4.88299 60.1166 3.98373 60.4989 3.53778C60.7871 3.20151 61.5051 2.8901 62.1804 2.52888Z"/></clipPath><clipPath id="paint1_diamond_151_14_clip_path"><path d="M62.1804 2.52888C62.8556 2.16767 73.7247 1.54544 81.0134 2.52888C90.7272 3.83951 96.0904 5.94798 104.891 10.2638C110.553 13.0408 113.719 14.7759 118.679 18.6714C122.989 22.0563 125.069 24.381 128.768 28.4242C131.981 31.9354 133.731 33.9726 136.503 37.8407C139.418 41.9077 140.915 44.4412 143.229 48.7461C145.51 52.9884 146.466 55.2362 148.274 59.7004C149.989 63.9346 151.048 66.0713 152.31 70.4621C153.337 74.0377 153.713 76.3839 154.294 80.008L154.327 80.2149C155.015 84.5021 154.931 86.9476 155 91.3128C155 91.3128 154.717 101.476 153.318 107.792C152.276 112.496 151.577 114.689 149.955 119.226C148.191 124.164 146.957 127.334 144.575 132.006C142.108 136.842 140.065 139.179 137.176 143.776C134.287 148.373 129.105 152.856 129.105 152.856C129.105 152.856 123.355 158.415 119.352 161.6C115.816 164.414 113.874 166.111 109.935 168.326C106.913 170.026 104.876 171.046 101.5 172.5C98.1665 173.935 96.3734 174.392 92.784 175.725C88.8907 177.171 86.7326 178.116 82.6949 179.088C78.0541 180.205 75.356 180.544 70.588 180.769C68.1754 180.884 66.7837 180.844 64.4351 180.776L64.1982 180.769C59.4557 180.634 56.7864 180.443 52.0913 179.761C47.5797 179.105 45.0428 178.651 40.657 177.406C35.9983 176.084 33.4567 174.994 29.0533 173.106L28.8864 173.034C24.7295 171.252 22.2802 170.413 18.461 167.99C15.3777 166.034 13.8354 164.648 11.0624 162.273C8.16993 159.795 4 155.547 4 155.547V154.201C4 154.201 7.47965 154.656 9.71715 154.874C15.6052 155.448 18.9354 155.622 24.8508 155.547C29.4546 155.488 32.0588 155.492 36.6214 154.874C41.0118 154.28 43.4735 153.785 47.7194 152.52C52.7444 151.022 55.4224 149.717 60.1626 147.475C64.1993 145.566 66.4783 144.482 70.2517 142.095C73.9807 139.735 75.8999 138.143 79.3318 135.369C82.7333 132.619 84.7565 131.169 87.7394 127.97C90.3555 125.165 91.6212 123.397 93.7929 120.235C96.2924 116.596 97.5082 114.417 99.51 110.482C101.27 107.023 102.304 105.078 103.546 101.402C104.84 97.5688 105.319 95.3168 105.9 91.3128C106.481 87.3089 106.151 77.2469 104.555 68.4443C103.537 62.8337 100.855 54.3195 100.855 54.3195C100.855 54.3195 97.6721 46.5856 95.1381 41.8763C92.8754 37.6712 91.435 35.3986 88.7483 31.4509C86.1621 27.6508 84.7146 25.4924 81.686 22.0344C78.3201 18.1915 76.2603 16.1434 72.2695 12.9543C68.5702 9.99812 66.2619 8.62912 62.1804 6.22821C61.2677 5.69135 59.8263 4.88299 59.8263 4.88299C59.8263 4.88299 60.1166 3.98373 60.4989 3.53778C60.7871 3.20151 61.5051 2.8901 62.1804 2.52888Z"/></clipPath><clipPath id="paint3_diamond_151_14_clip_path"><path d="M62.1804 2.52888C62.8556 2.16767 73.7247 1.54544 81.0134 2.52888C90.7272 3.83951 96.0904 5.94798 104.891 10.2638C110.553 13.0408 113.719 14.7759 118.679 18.6714C122.989 22.0563 125.069 24.381 128.768 28.4242C131.981 31.9354 133.731 33.9726 136.503 37.8407C139.418 41.9077 140.915 44.4412 143.229 48.7461C145.51 52.9884 146.466 55.2362 148.274 59.7004C149.989 63.9346 151.048 66.0713 152.31 70.4621C153.337 74.0377 153.713 76.3839 154.294 80.008L154.327 80.2149C155.015 84.5021 154.931 86.9476 155 91.3128C155 91.3128 154.717 101.476 153.318 107.792C152.276 112.496 151.577 114.689 149.955 119.226C148.191 124.164 146.957 127.334 144.575 132.006C142.108 136.842 140.065 139.179 137.176 143.776C134.287 148.373 129.105 152.856 129.105 152.856C129.105 152.856 123.355 158.415 119.352 161.6C115.816 164.414 113.874 166.111 109.935 168.326C106.913 170.026 104.876 171.046 101.5 172.5C98.1665 173.935 96.3734 174.392 92.784 175.725C88.8907 177.171 86.7326 178.116 82.6949 179.088C78.0541 180.205 75.356 180.544 70.588 180.769C68.1754 180.884 66.7837 180.844 64.4351 180.776L64.1982 180.769C59.4557 180.634 56.7864 180.443 52.0913 179.761C47.5797 179.105 45.0428 178.651 40.657 177.406C35.9983 176.084 33.4567 174.994 29.0533 173.106L28.8864 173.034C24.7295 171.252 22.2802 170.413 18.461 167.99C15.3777 166.034 13.8354 164.648 11.0624 162.273C8.16993 159.795 4 155.547 4 155.547V154.201C4 154.201 7.47965 154.656 9.71715 154.874C15.6052 155.448 18.9354 155.622 24.8508 155.547C29.4546 155.488 32.0588 155.492 36.6214 154.874C41.0118 154.28 43.4735 153.785 47.7194 152.52C52.7444 151.022 55.4224 149.717 60.1626 147.475C64.1993 145.566 66.4783 144.482 70.2517 142.095C73.9807 139.735 75.8999 138.143 79.3318 135.369C82.7333 132.619 84.7565 131.169 87.7394 127.97C90.3555 125.165 91.6212 123.397 93.7929 120.235C96.2924 116.596 97.5082 114.417 99.51 110.482C101.27 107.023 102.304 105.078 103.546 101.402C104.84 97.5688 105.319 95.3168 105.9 91.3128C106.481 87.3089 106.151 77.2469 104.555 68.4443C103.537 62.8337 100.855 54.3195 100.855 54.3195C100.855 54.3195 97.6721 46.5856 95.1381 41.8763C92.8754 37.6712 91.435 35.3986 88.7483 31.4509C86.1621 27.6508 84.7146 25.4924 81.686 22.0344C78.3201 18.1915 76.2603 16.1434 72.2695 12.9543C68.5702 9.99812 66.2619 8.62912 62.1804 6.22821C61.2677 5.69135 59.8263 4.88299 59.8263 4.88299C59.8263 4.88299 60.1166 3.98373 60.4989 3.53778C60.7871 3.20151 61.5051 2.8901 62.1804 2.52888Z"/></clipPath><clipPath id="paint4_diamond_151_14_clip_path"><path d="M62.1804 2.52888C62.8556 2.16767 73.7247 1.54544 81.0134 2.52888C90.7272 3.83951 96.0904 5.94798 104.891 10.2638C110.553 13.0408 113.719 14.7759 118.679 18.6714C122.989 22.0563 125.069 24.381 128.768 28.4242C131.981 31.9354 133.731 33.9726 136.503 37.8407C139.418 41.9077 140.915 44.4412 143.229 48.7461C145.51 52.9884 146.466 55.2362 148.274 59.7004C149.989 63.9346 151.048 66.0713 152.31 70.4621C153.337 74.0377 153.713 76.3839 154.294 80.008L154.327 80.2149C155.015 84.5021 154.931 86.9476 155 91.3128C155 91.3128 154.717 101.476 153.318 107.792C152.276 112.496 151.577 114.689 149.955 119.226C148.191 124.164 146.957 127.334 144.575 132.006C142.108 136.842 140.065 139.179 137.176 143.776C134.287 148.373 129.105 152.856 129.105 152.856C129.105 152.856 123.355 158.415 119.352 161.6C115.816 164.414 113.874 166.111 109.935 168.326C106.913 170.026 104.876 171.046 101.5 172.5C98.1665 173.935 96.3734 174.392 92.784 175.725C88.8907 177.171 86.7326 178.116 82.6949 179.088C78.0541 180.205 75.356 180.544 70.588 180.769C68.1754 180.884 66.7837 180.844 64.4351 180.776L64.1982 180.769C59.4557 180.634 56.7864 180.443 52.0913 179.761C47.5797 179.105 45.0428 178.651 40.657 177.406C35.9983 176.084 33.4567 174.994 29.0533 173.106L28.8864 173.034C24.7295 171.252 22.2802 170.413 18.461 167.99C15.3777 166.034 13.8354 164.648 11.0624 162.273C8.16993 159.795 4 155.547 4 155.547V154.201C4 154.201 7.47965 154.656 9.71715 154.874C15.6052 155.448 18.9354 155.622 24.8508 155.547C29.4546 155.488 32.0588 155.492 36.6214 154.874C41.0118 154.28 43.4735 153.785 47.7194 152.52C52.7444 151.022 55.4224 149.717 60.1626 147.475C64.1993 145.566 66.4783 144.482 70.2517 142.095C73.9807 139.735 75.8999 138.143 79.3318 135.369C82.7333 132.619 84.7565 131.169 87.7394 127.97C90.3555 125.165 91.6212 123.397 93.7929 120.235C96.2924 116.596 97.5082 114.417 99.51 110.482C101.27 107.023 102.304 105.078 103.546 101.402C104.84 97.5688 105.319 95.3168 105.9 91.3128C106.481 87.3089 106.151 77.2469 104.555 68.4443C103.537 62.8337 100.855 54.3195 100.855 54.3195C100.855 54.3195 97.6721 46.5856 95.1381 41.8763C92.8754 37.6712 91.435 35.3986 88.7483 31.4509C86.1621 27.6508 84.7146 25.4924 81.686 22.0344C78.3201 18.1915 76.2603 16.1434 72.2695 12.9543C68.5702 9.99812 66.2619 8.62912 62.1804 6.22821C61.2677 5.69135 59.8263 4.88299 59.8263 4.88299C59.8263 4.88299 60.1166 3.98373 60.4989 3.53778C60.7871 3.20151 61.5051 2.8901 62.1804 2.52888Z"/></clipPath><linearGradient id="paint0_diamond_151_14" x1="0" y1="0" x2="500" y2="500" gradientUnits="userSpaceOnUse">
<stop stopColor="#9F8319"/>
<stop offset="1" stopColor="#E8BE01"/>
</linearGradient>
<linearGradient id="paint1_diamond_151_14" x1="0" y1="0" x2="500" y2="500" gradientUnits="userSpaceOnUse">
<stop stopColor="#C49F15"/>
<stop offset="1" stopColor="#E8BE01" stop-opacity="0.5"/>
</linearGradient>
<radialGradient id="paint2_radial_151_14" cx="0" cy="0" r="1" gradientUnits="userSpaceOnUse" gradientTransform="translate(90.4298 146.274) rotate(-51.0524) scale(115.024 97.1173)">
<stop stop-opacity="0"/>
<stop offset="1" stopColor="#A4831A"/>
</radialGradient>
<linearGradient id="paint3_diamond_151_14" x1="0" y1="0" x2="500" y2="500" gradientUnits="userSpaceOnUse">
<stop stopColor="#AD840E" stop-opacity="0.25"/>
<stop offset="1" stop-opacity="0"/>
</linearGradient>
<linearGradient id="paint4_diamond_151_14" x1="0" y1="0" x2="500" y2="500" gradientUnits="userSpaceOnUse">
<stop stopColor="#AD840E" stop-opacity="0.25"/>
<stop offset="1" stop-opacity="0"/>
</linearGradient>
</defs>
</svg>
