<svg width="159" height="189" viewBox="0 0 159 189" fill="none" xmlns="http://www.w3.org/2000/svg">
<g id="luna-y-estrellas">
<g id="Vector 16" opacity="0.5" filter="url(#filter0_ddii_169_21001)">
<g clipPath="url(#paint0_diamond_169_21001_clip_path)" data-figma-skip-parse="true"><g transform="matrix(0.0531359 -0.0867661 0.0366298 0.0224322 106.572 142.095)"><rect x="0" y="0" width="1436.33" height="3771.87" fill="url(#paint0_diamond_169_21001)" opacity="1" shapeRendering="crispEdges"/><rect x="0" y="0" width="1436.33" height="3771.87" transform="scale(1 -1)" fill="url(#paint0_diamond_169_21001)" opacity="1" shapeRendering="crispEdges"/><rect x="0" y="0" width="1436.33" height="3771.87" transform="scale(-1 1)" fill="url(#paint0_diamond_169_21001)" opacity="1" shapeRendering="crispEdges"/><rect x="0" y="0" width="1436.33" height="3771.87" transform="scale(-1)" fill="url(#paint0_diamond_169_21001)" opacity="1" shapeRendering="crispEdges"/></g></g><path d="M62.1804 2.52888C62.8556 2.16767 73.7247 1.54544 81.0134 2.52888C90.7272 3.83951 96.0904 5.94798 104.891 10.2638C110.553 13.0408 113.719 14.7759 118.679 18.6714C122.989 22.0563 125.069 24.381 128.768 28.4242C131.981 31.9354 133.731 33.9726 136.503 37.8407C139.418 41.9077 140.915 44.4412 143.229 48.7461C145.51 52.9884 146.466 55.2362 148.274 59.7004C149.989 63.9346 151.048 66.0713 152.31 70.4621C153.337 74.0377 153.713 76.3839 154.294 80.008L154.327 80.2149C155.015 84.5021 154.931 86.9476 155 91.3128C155 91.3128 154.717 101.476 153.318 107.792C152.276 112.496 151.577 114.689 149.955 119.226C148.191 124.164 146.957 127.334 144.575 132.006C142.108 136.842 140.065 139.179 137.176 143.776C134.287 148.373 129.105 152.856 129.105 152.856C129.105 152.856 123.355 158.415 119.352 161.6C115.816 164.414 113.874 166.111 109.935 168.326C106.913 170.026 104.876 171.046 101.5 172.5C98.1665 173.935 96.3734 174.392 92.784 175.725C88.8907 177.171 86.7326 178.116 82.6949 179.088C78.0541 180.205 75.356 180.544 70.588 180.769C68.1754 180.884 66.7837 180.844 64.4351 180.776L64.1982 180.769C59.4557 180.634 56.7864 180.443 52.0913 179.761C47.5797 179.105 45.0428 178.651 40.657 177.406C35.9983 176.084 33.4567 174.994 29.0533 173.106L28.8864 173.034C24.7295 171.252 22.2802 170.413 18.461 167.99C15.3777 166.034 13.8354 164.648 11.0624 162.273C8.16993 159.795 4 155.547 4 155.547V154.201C4 154.201 7.47965 154.656 9.71715 154.874C15.6052 155.448 18.9354 155.622 24.8508 155.547C29.4546 155.488 32.0588 155.492 36.6214 154.874C41.0118 154.28 43.4735 153.785 47.7194 152.52C52.7444 151.022 55.4224 149.717 60.1626 147.475C64.1993 145.566 66.4783 144.482 70.2517 142.095C73.9807 139.735 75.8999 138.143 79.3318 135.369C82.7333 132.619 84.7565 131.169 87.7394 127.97C90.3555 125.165 91.6212 123.397 93.7929 120.235C96.2924 116.596 97.5082 114.417 99.51 110.482C101.27 107.023 102.304 105.078 103.546 101.402C104.84 97.5688 105.319 95.3168 105.9 91.3128C106.481 87.3089 106.151 77.2469 104.555 68.4443C103.537 62.8337 100.855 54.3195 100.855 54.3195C100.855 54.3195 97.6721 46.5856 95.1381 41.8763C92.8754 37.6712 91.435 35.3986 88.7483 31.4509C86.1621 27.6508 84.7146 25.4924 81.686 22.0344C78.3201 18.1915 76.2603 16.1434 72.2695 12.9543C68.5702 9.99812 66.2619 8.62912 62.1804 6.22821C61.2677 5.69135 59.8263 4.88299 59.8263 4.88299C59.8263 4.88299 60.1166 3.98373 60.4989 3.53778C60.7871 3.20151 61.5051 2.8901 62.1804 2.52888Z" data-figma-gradient-fill="{&#34;type&#34;:&#34;GRADIENT_DIAMOND&#34;,&#34;stops&#34;:[{&#34;color&#34;:{&#34;r&#34;:0.62307697534561157,&#34;g&#34;:0.51337373256683350,&#34;b&#34;:0.097655259072780609,&#34;a&#34;:1.0},&#34;position&#34;:0.0},{&#34;color&#34;:{&#34;r&#34;:0.91153848171234131,&#34;g&#34;:0.74562656879425049,&#34;b&#34;:0.0026293308474123478,&#34;a&#34;:1.0},&#34;position&#34;:1.0}],&#34;stopsVar&#34;:[{&#34;color&#34;:{&#34;r&#34;:0.62307697534561157,&#34;g&#34;:0.51337373256683350,&#34;b&#34;:0.097655259072780609,&#34;a&#34;:1.0},&#34;position&#34;:0.0},{&#34;color&#34;:{&#34;r&#34;:0.91153848171234131,&#34;g&#34;:0.74562656879425049,&#34;b&#34;:0.0026293308474123478,&#34;a&#34;:1.0},&#34;position&#34;:1.0}],&#34;transform&#34;:{&#34;m00&#34;:106.27171325683594,&#34;m01&#34;:73.259544372558594,&#34;m02&#34;:16.806755065917969,&#34;m10&#34;:-173.53228759765625,&#34;m11&#34;:44.864376068115234,&#34;m12&#34;:206.42857360839844},&#34;opacity&#34;:1.0,&#34;blendMode&#34;:&#34;NORMAL&#34;,&#34;visible&#34;:true}"/>
<g clipPath="url(#paint1_diamond_169_21001_clip_path)" data-figma-skip-parse="true"><g transform="matrix(0.0615434 0.0867661 -0.0366298 0.0259816 118.679 56.0011)"><rect x="0" y="0" width="1167.87" height="3722.19" fill="url(#paint1_diamond_169_21001)" opacity="1" shapeRendering="crispEdges"/><rect x="0" y="0" width="1167.87" height="3722.19" transform="scale(1 -1)" fill="url(#paint1_diamond_169_21001)" opacity="1" shapeRendering="crispEdges"/><rect x="0" y="0" width="1167.87" height="3722.19" transform="scale(-1 1)" fill="url(#paint1_diamond_169_21001)" opacity="1" shapeRendering="crispEdges"/><rect x="0" y="0" width="1167.87" height="3722.19" transform="scale(-1)" fill="url(#paint1_diamond_169_21001)" opacity="1" shapeRendering="crispEdges"/></g></g><path d="M62.1804 2.52888C62.8556 2.16767 73.7247 1.54544 81.0134 2.52888C90.7272 3.83951 96.0904 5.94798 104.891 10.2638C110.553 13.0408 113.719 14.7759 118.679 18.6714C122.989 22.0563 125.069 24.381 128.768 28.4242C131.981 31.9354 133.731 33.9726 136.503 37.8407C139.418 41.9077 140.915 44.4412 143.229 48.7461C145.51 52.9884 146.466 55.2362 148.274 59.7004C149.989 63.9346 151.048 66.0713 152.31 70.4621C153.337 74.0377 153.713 76.3839 154.294 80.008L154.327 80.2149C155.015 84.5021 154.931 86.9476 155 91.3128C155 91.3128 154.717 101.476 153.318 107.792C152.276 112.496 151.577 114.689 149.955 119.226C148.191 124.164 146.957 127.334 144.575 132.006C142.108 136.842 140.065 139.179 137.176 143.776C134.287 148.373 129.105 152.856 129.105 152.856C129.105 152.856 123.355 158.415 119.352 161.6C115.816 164.414 113.874 166.111 109.935 168.326C106.913 170.026 104.876 171.046 101.5 172.5C98.1665 173.935 96.3734 174.392 92.784 175.725C88.8907 177.171 86.7326 178.116 82.6949 179.088C78.0541 180.205 75.356 180.544 70.588 180.769C68.1754 180.884 66.7837 180.844 64.4351 180.776L64.1982 180.769C59.4557 180.634 56.7864 180.443 52.0913 179.761C47.5797 179.105 45.0428 178.651 40.657 177.406C35.9983 176.084 33.4567 174.994 29.0533 173.106L28.8864 173.034C24.7295 171.252 22.2802 170.413 18.461 167.99C15.3777 166.034 13.8354 164.648 11.0624 162.273C8.16993 159.795 4 155.547 4 155.547V154.201C4 154.201 7.47965 154.656 9.71715 154.874C15.6052 155.448 18.9354 155.622 24.8508 155.547C29.4546 155.488 32.0588 155.492 36.6214 154.874C41.0118 154.28 43.4735 153.785 47.7194 152.52C52.7444 151.022 55.4224 149.717 60.1626 147.475C64.1993 145.566 66.4783 144.482 70.2517 142.095C73.9807 139.735 75.8999 138.143 79.3318 135.369C82.7333 132.619 84.7565 131.169 87.7394 127.97C90.3555 125.165 91.6212 123.397 93.7929 120.235C96.2924 116.596 97.5082 114.417 99.51 110.482C101.27 107.023 102.304 105.078 103.546 101.402C104.84 97.5688 105.319 95.3168 105.9 91.3128C106.481 87.3089 106.151 77.2469 104.555 68.4443C103.537 62.8337 100.855 54.3195 100.855 54.3195C100.855 54.3195 97.6721 46.5856 95.1381 41.8763C92.8754 37.6712 91.435 35.3986 88.7483 31.4509C86.1621 27.6508 84.7146 25.4924 81.686 22.0344C78.3201 18.1915 76.2603 16.1434 72.2695 12.9543C68.5702 9.99812 66.2619 8.62912 62.1804 6.22821C61.2677 5.69135 59.8263 4.88299 59.8263 4.88299C59.8263 4.88299 60.1166 3.98373 60.4989 3.53778C60.7871 3.20151 61.5051 2.8901 62.1804 2.52888Z" data-figma-gradient-fill="{&#34;type&#34;:&#34;GRADIENT_DIAMOND&#34;,&#34;stops&#34;:[{&#34;color&#34;:{&#34;r&#34;:0.76826918125152588,&#34;g&#34;:0.62467342615127563,&#34;b&#34;:0.080520473420619965,&#34;a&#34;:1.0},&#34;position&#34;:0.0},{&#34;color&#34;:{&#34;r&#34;:0.91153848171234131,&#34;g&#34;:0.74562656879425049,&#34;b&#34;:0.0026293308474123478,&#34;a&#34;:0.50},&#34;position&#34;:1.0}],&#34;stopsVar&#34;:[{&#34;color&#34;:{&#34;r&#34;:0.76826918125152588,&#34;g&#34;:0.62467342615127563,&#34;b&#34;:0.080520473420619965,&#34;a&#34;:1.0},&#34;position&#34;:0.0},{&#34;color&#34;:{&#34;r&#34;:0.91153848171234131,&#34;g&#34;:0.74562656879425049,&#34;b&#34;:0.0026293308474123478,&#34;a&#34;:0.50},&#34;position&#34;:1.0}],&#34;transform&#34;:{&#34;m00&#34;:123.08686065673828,&#34;m01&#34;:-73.259552001953125,&#34;m02&#34;:93.765632629394531,&#34;m10&#34;:173.53230285644531,&#34;m11&#34;:51.963165283203125,&#34;m12&#34;:-56.746646881103516},&#34;opacity&#34;:1.0,&#34;blendMode&#34;:&#34;NORMAL&#34;,&#34;visible&#34;:true}"/>
<path d="M62.1804 2.52888C62.8556 2.16767 73.7247 1.54544 81.0134 2.52888C90.7272 3.83951 96.0904 5.94798 104.891 10.2638C110.553 13.0408 113.719 14.7759 118.679 18.6714C122.989 22.0563 125.069 24.381 128.768 28.4242C131.981 31.9354 133.731 33.9726 136.503 37.8407C139.418 41.9077 140.915 44.4412 143.229 48.7461C145.51 52.9884 146.466 55.2362 148.274 59.7004C149.989 63.9346 151.048 66.0713 152.31 70.4621C153.337 74.0377 153.713 76.3839 154.294 80.008L154.327 80.2149C155.015 84.5021 154.931 86.9476 155 91.3128C155 91.3128 154.717 101.476 153.318 107.792C152.276 112.496 151.577 114.689 149.955 119.226C148.191 124.164 146.957 127.334 144.575 132.006C142.108 136.842 140.065 139.179 137.176 143.776C134.287 148.373 129.105 152.856 129.105 152.856C129.105 152.856 123.355 158.415 119.352 161.6C115.816 164.414 113.874 166.111 109.935 168.326C106.913 170.026 104.876 171.046 101.5 172.5C98.1665 173.935 96.3734 174.392 92.784 175.725C88.8907 177.171 86.7326 178.116 82.6949 179.088C78.0541 180.205 75.356 180.544 70.588 180.769C68.1754 180.884 66.7837 180.844 64.4351 180.776L64.1982 180.769C59.4557 180.634 56.7864 180.443 52.0913 179.761C47.5797 179.105 45.0428 178.651 40.657 177.406C35.9983 176.084 33.4567 174.994 29.0533 173.106L28.8864 173.034C24.7295 171.252 22.2802 170.413 18.461 167.99C15.3777 166.034 13.8354 164.648 11.0624 162.273C8.16993 159.795 4 155.547 4 155.547V154.201C4 154.201 7.47965 154.656 9.71715 154.874C15.6052 155.448 18.9354 155.622 24.8508 155.547C29.4546 155.488 32.0588 155.492 36.6214 154.874C41.0118 154.28 43.4735 153.785 47.7194 152.52C52.7444 151.022 55.4224 149.717 60.1626 147.475C64.1993 145.566 66.4783 144.482 70.2517 142.095C73.9807 139.735 75.8999 138.143 79.3318 135.369C82.7333 132.619 84.7565 131.169 87.7394 127.97C90.3555 125.165 91.6212 123.397 93.7929 120.235C96.2924 116.596 97.5082 114.417 99.51 110.482C101.27 107.023 102.304 105.078 103.546 101.402C104.84 97.5688 105.319 95.3168 105.9 91.3128C106.481 87.3089 106.151 77.2469 104.555 68.4443C103.537 62.8337 100.855 54.3195 100.855 54.3195C100.855 54.3195 97.6721 46.5856 95.1381 41.8763C92.8754 37.6712 91.435 35.3986 88.7483 31.4509C86.1621 27.6508 84.7146 25.4924 81.686 22.0344C78.3201 18.1915 76.2603 16.1434 72.2695 12.9543C68.5702 9.99812 66.2619 8.62912 62.1804 6.22821C61.2677 5.69135 59.8263 4.88299 59.8263 4.88299C59.8263 4.88299 60.1166 3.98373 60.4989 3.53778C60.7871 3.20151 61.5051 2.8901 62.1804 2.52888Z" fill="url(#paint2_radial_169_21001)" fill-opacity="0.2"/>
<g clipPath="url(#paint3_diamond_169_21001_clip_path)" data-figma-skip-parse="true"><g transform="matrix(-0.0808808 0.0389396 -0.0155836 -0.0323685 160.381 141.902)"><rect x="0" y="0" width="1772.69" height="5434.31" fill="url(#paint3_diamond_169_21001)" opacity="1" shapeRendering="crispEdges"/><rect x="0" y="0" width="1772.69" height="5434.31" transform="scale(1 -1)" fill="url(#paint3_diamond_169_21001)" opacity="1" shapeRendering="crispEdges"/><rect x="0" y="0" width="1772.69" height="5434.31" transform="scale(-1 1)" fill="url(#paint3_diamond_169_21001)" opacity="1" shapeRendering="crispEdges"/><rect x="0" y="0" width="1772.69" height="5434.31" transform="scale(-1)" fill="url(#paint3_diamond_169_21001)" opacity="1" shapeRendering="crispEdges"/></g></g><path d="M62.1804 2.52888C62.8556 2.16767 73.7247 1.54544 81.0134 2.52888C90.7272 3.83951 96.0904 5.94798 104.891 10.2638C110.553 13.0408 113.719 14.7759 118.679 18.6714C122.989 22.0563 125.069 24.381 128.768 28.4242C131.981 31.9354 133.731 33.9726 136.503 37.8407C139.418 41.9077 140.915 44.4412 143.229 48.7461C145.51 52.9884 146.466 55.2362 148.274 59.7004C149.989 63.9346 151.048 66.0713 152.31 70.4621C153.337 74.0377 153.713 76.3839 154.294 80.008L154.327 80.2149C155.015 84.5021 154.931 86.9476 155 91.3128C155 91.3128 154.717 101.476 153.318 107.792C152.276 112.496 151.577 114.689 149.955 119.226C148.191 124.164 146.957 127.334 144.575 132.006C142.108 136.842 140.065 139.179 137.176 143.776C134.287 148.373 129.105 152.856 129.105 152.856C129.105 152.856 123.355 158.415 119.352 161.6C115.816 164.414 113.874 166.111 109.935 168.326C106.913 170.026 104.876 171.046 101.5 172.5C98.1665 173.935 96.3734 174.392 92.784 175.725C88.8907 177.171 86.7326 178.116 82.6949 179.088C78.0541 180.205 75.356 180.544 70.588 180.769C68.1754 180.884 66.7837 180.844 64.4351 180.776L64.1982 180.769C59.4557 180.634 56.7864 180.443 52.0913 179.761C47.5797 179.105 45.0428 178.651 40.657 177.406C35.9983 176.084 33.4567 174.994 29.0533 173.106L28.8864 173.034C24.7295 171.252 22.2802 170.413 18.461 167.99C15.3777 166.034 13.8354 164.648 11.0624 162.273C8.16993 159.795 4 155.547 4 155.547V154.201C4 154.201 7.47965 154.656 9.71715 154.874C15.6052 155.448 18.9354 155.622 24.8508 155.547C29.4546 155.488 32.0588 155.492 36.6214 154.874C41.0118 154.28 43.4735 153.785 47.7194 152.52C52.7444 151.022 55.4224 149.717 60.1626 147.475C64.1993 145.566 66.4783 144.482 70.2517 142.095C73.9807 139.735 75.8999 138.143 79.3318 135.369C82.7333 132.619 84.7565 131.169 87.7394 127.97C90.3555 125.165 91.6212 123.397 93.7929 120.235C96.2924 116.596 97.5082 114.417 99.51 110.482C101.27 107.023 102.304 105.078 103.546 101.402C104.84 97.5688 105.319 95.3168 105.9 91.3128C106.481 87.3089 106.151 77.2469 104.555 68.4443C103.537 62.8337 100.855 54.3195 100.855 54.3195C100.855 54.3195 97.6721 46.5856 95.1381 41.8763C92.8754 37.6712 91.435 35.3986 88.7483 31.4509C86.1621 27.6508 84.7146 25.4924 81.686 22.0344C78.3201 18.1915 76.2603 16.1434 72.2695 12.9543C68.5702 9.99812 66.2619 8.62912 62.1804 6.22821C61.2677 5.69135 59.8263 4.88299 59.8263 4.88299C59.8263 4.88299 60.1166 3.98373 60.4989 3.53778C60.7871 3.20151 61.5051 2.8901 62.1804 2.52888Z" data-figma-gradient-fill="{&#34;type&#34;:&#34;GRADIENT_DIAMOND&#34;,&#34;stops&#34;:[{&#34;color&#34;:{&#34;r&#34;:0.67692303657531738,&#34;g&#34;:0.51902884244918823,&#34;b&#34;:0.056627094745635986,&#34;a&#34;:0.250},&#34;position&#34;:0.0},{&#34;color&#34;:{&#34;r&#34;:0.0,&#34;g&#34;:0.0,&#34;b&#34;:0.0,&#34;a&#34;:0.0},&#34;position&#34;:1.0}],&#34;stopsVar&#34;:[{&#34;color&#34;:{&#34;r&#34;:0.67692303657531738,&#34;g&#34;:0.51902884244918823,&#34;b&#34;:0.056627094745635986,&#34;a&#34;:0.250},&#34;position&#34;:0.0},{&#34;color&#34;:{&#34;r&#34;:0.0,&#34;g&#34;:0.0,&#34;b&#34;:0.0,&#34;a&#34;:0.0},&#34;position&#34;:1.0}],&#34;transform&#34;:{&#34;m00&#34;:-161.76170349121094,&#34;m01&#34;:-31.167186737060547,&#34;m02&#34;:256.84527587890625,&#34;m10&#34;:77.879119873046875,&#34;m11&#34;:-64.736968994140625,&#34;m12&#34;:135.33094787597656},&#34;opacity&#34;:1.0,&#34;blendMode&#34;:&#34;NORMAL&#34;,&#34;visible&#34;:true}"/>
<g clipPath="url(#paint4_diamond_169_21001_clip_path)" data-figma-skip-parse="true"><g transform="matrix(-0.0860935 0.0215234 -0.00723524 -0.028941 90.0935 185.958)"><rect x="0" y="0" width="1225.98" height="6723.01" fill="url(#paint4_diamond_169_21001)" opacity="1" shapeRendering="crispEdges"/><rect x="0" y="0" width="1225.98" height="6723.01" transform="scale(1 -1)" fill="url(#paint4_diamond_169_21001)" opacity="1" shapeRendering="crispEdges"/><rect x="0" y="0" width="1225.98" height="6723.01" transform="scale(-1 1)" fill="url(#paint4_diamond_169_21001)" opacity="1" shapeRendering="crispEdges"/><rect x="0" y="0" width="1225.98" height="6723.01" transform="scale(-1)" fill="url(#paint4_diamond_169_21001)" opacity="1" shapeRendering="crispEdges"/></g></g><path d="M62.1804 2.52888C62.8556 2.16767 73.7247 1.54544 81.0134 2.52888C90.7272 3.83951 96.0904 5.94798 104.891 10.2638C110.553 13.0408 113.719 14.7759 118.679 18.6714C122.989 22.0563 125.069 24.381 128.768 28.4242C131.981 31.9354 133.731 33.9726 136.503 37.8407C139.418 41.9077 140.915 44.4412 143.229 48.7461C145.51 52.9884 146.466 55.2362 148.274 59.7004C149.989 63.9346 151.048 66.0713 152.31 70.4621C153.337 74.0377 153.713 76.3839 154.294 80.008L154.327 80.2149C155.015 84.5021 154.931 86.9476 155 91.3128C155 91.3128 154.717 101.476 153.318 107.792C152.276 112.496 151.577 114.689 149.955 119.226C148.191 124.164 146.957 127.334 144.575 132.006C142.108 136.842 140.065 139.179 137.176 143.776C134.287 148.373 129.105 152.856 129.105 152.856C129.105 152.856 123.355 158.415 119.352 161.6C115.816 164.414 113.874 166.111 109.935 168.326C106.913 170.026 104.876 171.046 101.5 172.5C98.1665 173.935 96.3734 174.392 92.784 175.725C88.8907 177.171 86.7326 178.116 82.6949 179.088C78.0541 180.205 75.356 180.544 70.588 180.769C68.1754 180.884 66.7837 180.844 64.4351 180.776L64.1982 180.769C59.4557 180.634 56.7864 180.443 52.0913 179.761C47.5797 179.105 45.0428 178.651 40.657 177.406C35.9983 176.084 33.4567 174.994 29.0533 173.106L28.8864 173.034C24.7295 171.252 22.2802 170.413 18.461 167.99C15.3777 166.034 13.8354 164.648 11.0624 162.273C8.16993 159.795 4 155.547 4 155.547V154.201C4 154.201 7.47965 154.656 9.71715 154.874C15.6052 155.448 18.9354 155.622 24.8508 155.547C29.4546 155.488 32.0588 155.492 36.6214 154.874C41.0118 154.28 43.4735 153.785 47.7194 152.52C52.7444 151.022 55.4224 149.717 60.1626 147.475C64.1993 145.566 66.4783 144.482 70.2517 142.095C73.9807 139.735 75.8999 138.143 79.3318 135.369C82.7333 132.619 84.7565 131.169 87.7394 127.97C90.3555 125.165 91.6212 123.397 93.7929 120.235C96.2924 116.596 97.5082 114.417 99.51 110.482C101.27 107.023 102.304 105.078 103.546 101.402C104.84 97.5688 105.319 95.3168 105.9 91.3128C106.481 87.3089 106.151 77.2469 104.555 68.4443C103.537 62.8337 100.855 54.3195 100.855 54.3195C100.855 54.3195 97.6721 46.5856 95.1381 41.8763C92.8754 37.6712 91.435 35.3986 88.7483 31.4509C86.1621 27.6508 84.7146 25.4924 81.686 22.0344C78.3201 18.1915 76.2603 16.1434 72.2695 12.9543C68.5702 9.99812 66.2619 8.62912 62.1804 6.22821C61.2677 5.69135 59.8263 4.88299 59.8263 4.88299C59.8263 4.88299 60.1166 3.98373 60.4989 3.53778C60.7871 3.20151 61.5051 2.8901 62.1804 2.52888Z" data-figma-gradient-fill="{&#34;type&#34;:&#34;GRADIENT_DIAMOND&#34;,&#34;stops&#34;:[{&#34;color&#34;:{&#34;r&#34;:0.67692303657531738,&#34;g&#34;:0.51902884244918823,&#34;b&#34;:0.056627094745635986,&#34;a&#34;:0.250},&#34;position&#34;:0.0},{&#34;color&#34;:{&#34;r&#34;:0.0,&#34;g&#34;:0.0,&#34;b&#34;:0.0,&#34;a&#34;:0.0},&#34;position&#34;:1.0}],&#34;stopsVar&#34;:[{&#34;color&#34;:{&#34;r&#34;:0.67692303657531738,&#34;g&#34;:0.51902884244918823,&#34;b&#34;:0.056627094745635986,&#34;a&#34;:0.250},&#34;position&#34;:0.0},{&#34;color&#34;:{&#34;r&#34;:0.0,&#34;g&#34;:0.0,&#34;b&#34;:0.0,&#34;a&#34;:0.0},&#34;position&#34;:1.0}],&#34;transform&#34;:{&#34;m00&#34;:-172.18707275390625,&#34;m01&#34;:-14.470487594604492,&#34;m02&#34;:183.42231750488281,&#34;m10&#34;:43.046756744384766,&#34;m11&#34;:-57.881961822509766,&#34;m12&#34;:193.37528991699219},&#34;opacity&#34;:1.0,&#34;blendMode&#34;:&#34;NORMAL&#34;,&#34;visible&#34;:true}"/>
</g>
<g id="Vector 17" filter="url(#filter1_di_169_21001)">
<path d="M28.9074 36.9755C28.9074 36.9755 16.1279 35.9666 14.7827 36.9755C14.17 37.435 14.0311 38.5679 14.1099 39.3297C14.1887 40.0914 23.5266 51.7729 23.5266 51.7729C23.5266 51.7729 21.4414 59.5349 21.845 64.5524C21.9299 65.6078 22.1813 67.2428 22.1813 67.2428C22.1813 67.2428 23.4119 67.2761 24.1992 67.2428C30.0966 66.9936 38.3239 61.862 38.3239 61.862C38.3239 61.862 45.4164 66.5607 50.4308 68.588C51.4711 69.0086 53.1212 69.5969 53.1212 69.5969C53.1212 69.5969 53.359 68.1662 53.4575 67.2428C54.1037 61.1846 51.4397 51.7729 51.4397 51.7729C51.4397 51.7729 58.344 45.9032 61.8651 41.3475C62.2667 40.8279 62.874 40.0023 62.874 40.0023C62.48 39.4769 62.2959 39.1526 61.8651 38.6571C60.8563 37.4966 46.0588 36.9755 46.0588 36.9755C46.0588 36.9755 42.6397 27.7925 39.3328 22.5145C38.5785 21.3107 37.315 19.4878 37.315 19.4878C37.315 19.4878 36.0468 21.3078 35.2972 22.5145C32.0389 27.7589 28.9074 36.9755 28.9074 36.9755Z" fill="url(#paint5_radial_169_21001)"/>
</g>
<g id="estrella-1" filter="url(#filter2_di_169_21001)">
<path d="M28.9074 36.9755C28.9074 36.9755 16.1279 35.9666 14.7827 36.9755C14.17 37.435 14.0311 38.5679 14.1099 39.3297C14.1887 40.0914 23.5266 51.7729 23.5266 51.7729C23.5266 51.7729 21.4414 59.5349 21.845 64.5524C21.9299 65.6078 22.1813 67.2428 22.1813 67.2428C22.1813 67.2428 23.4119 67.2761 24.1992 67.2428C30.0966 66.9936 38.3239 61.862 38.3239 61.862C38.3239 61.862 45.4164 66.5607 50.4308 68.588C51.4711 69.0086 53.1212 69.5969 53.1212 69.5969C53.1212 69.5969 53.359 68.1662 53.4575 67.2428C54.1037 61.1846 51.4397 51.7729 51.4397 51.7729C51.4397 51.7729 58.344 45.9032 61.8651 41.3475C62.2667 40.8279 62.874 40.0023 62.874 40.0023C62.48 39.4769 62.2959 39.1526 61.8651 38.6571C60.8563 37.4966 46.0588 36.9755 46.0588 36.9755C46.0588 36.9755 42.6397 27.7925 39.3328 22.5145C38.5785 21.3107 37.315 19.4878 37.315 19.4878C37.315 19.4878 36.0468 21.3078 35.2972 22.5145C32.0389 27.7589 28.9074 36.9755 28.9074 36.9755Z" fill="url(#paint6_radial_169_21001)"/>
</g>
<g id="estrella-3" filter="url(#filter3_di_169_21001)">
<path d="M16.308 86.122C16.308 86.122 10.0897 83.6582 9.26694 83.9423C8.89223 84.0716 8.65208 84.6022 8.57646 84.9855C8.50083 85.3689 11.3936 92.502 11.3936 92.502C11.3936 92.502 9.18325 95.9625 8.62756 98.4697C8.51067 98.9971 8.38936 99.8326 8.38936 99.8326C8.38936 99.8326 8.99775 100.039 9.39523 100.144C12.3727 100.933 17.248 99.7017 17.248 99.7017C17.248 99.7017 20.0748 103.086 22.2686 104.848C22.7238 105.213 23.4576 105.754 23.4576 105.754C23.4576 105.754 23.792 105.094 23.9803 104.659C25.2163 101.807 25.3081 96.8096 25.3081 96.8096C25.3081 96.8096 29.6353 95.0149 32.0778 93.3384C32.3563 93.1472 32.7836 92.8386 32.7836 92.8386C32.6665 92.5218 32.6236 92.3354 32.4836 92.0274C32.1558 91.3063 24.8579 88.7688 24.8579 88.7688C24.8579 88.7688 24.5387 83.7665 23.6865 80.6843C23.4921 79.9813 23.1372 78.8981 23.1372 78.8981C23.1372 78.8981 22.2305 79.5893 21.6747 80.0616C19.2594 82.1142 16.308 86.122 16.308 86.122Z" fill="url(#paint7_radial_169_21001)"/>
</g>
<g id="estrella-2" filter="url(#filter4_di_169_21001)">
<path d="M55.8978 95.2144C55.8978 95.2144 47.4531 96.7073 46.7298 97.5222C46.4003 97.8933 46.4784 98.5843 46.6426 99.0207C46.8069 99.4571 54.6023 104.822 54.6023 104.822C54.6023 104.822 54.4013 109.741 55.4083 112.634C55.6201 113.243 56.026 114.166 56.026 114.166C56.026 114.166 56.8296 113.985 57.3357 113.836C61.1267 112.726 65.7049 108.355 65.7049 108.355C65.7049 108.355 71.0061 109.967 74.5619 110.344C75.2996 110.422 76.458 110.499 76.458 110.499C76.458 110.499 76.3999 109.617 76.3267 109.056C75.8466 105.377 72.7201 100.261 72.7201 100.261C72.7201 100.261 76.3301 95.6707 77.9391 92.4083C78.1226 92.0362 78.3943 91.45 78.3943 91.45C78.0605 91.2045 77.8929 91.0433 77.5397 90.8214C76.7126 90.3017 67.0305 92.4121 67.0305 92.4121C67.0305 92.4121 63.4477 87.5543 60.5177 84.9814C59.8493 84.3946 58.7585 83.5259 58.7585 83.5259C58.7585 83.5259 58.2057 84.8066 57.8982 85.6408C56.562 89.2665 55.8978 95.2144 55.8978 95.2144Z" fill="url(#paint8_radial_169_21001)"/>
</g>
</g>
<defs>
<filter id="filter0_ddii_169_21001" x="0" y="0" width="159" height="188.842" filterUnits="userSpaceOnUse" colorInterpolationFilters="sRGB">
<feFlood floodOpacity="0" result="BackgroundImageFix"/>
<feColorMatrix in="SourceAlpha" type="matrix" values="0 0 0 0 0 0 0 0 0 0 0 0 0 0 0 0 0 0 127 0" result="hardAlpha"/>
<feOffset dy="4"/>
<feGaussianBlur stdDeviation="2"/>
<feComposite in2="hardAlpha" operator="out"/>
<feColorMatrix type="matrix" values="0 0 0 0 0 0 0 0 0 0 0 0 0 0 0 0 0 0 0.25 0"/>
<feBlend mode="normal" in2="BackgroundImageFix" result="effect1_dropShadow_169_21001"/>
<feColorMatrix in="SourceAlpha" type="matrix" values="0 0 0 0 0 0 0 0 0 0 0 0 0 0 0 0 0 0 127 0" result="hardAlpha"/>
<feOffset dx="-1" dy="-1"/>
<feGaussianBlur stdDeviation="0.5"/>
<feComposite in2="hardAlpha" operator="out"/>
<feColorMatrix type="matrix" values="0 0 0 0 0 0 0 0 0 0 0 0 0 0 0 0 0 0 0.25 0"/>
<feBlend mode="normal" in2="effect1_dropShadow_169_21001" result="effect2_dropShadow_169_21001"/>
<feBlend mode="normal" in="SourceGraphic" in2="effect2_dropShadow_169_21001" result="shape"/>
<feColorMatrix in="SourceAlpha" type="matrix" values="0 0 0 0 0 0 0 0 0 0 0 0 0 0 0 0 0 0 127 0" result="hardAlpha"/>
<feOffset dy="-2"/>
<feGaussianBlur stdDeviation="0.5"/>
<feComposite in2="hardAlpha" operator="arithmetic" k2="-1" k3="1"/>
<feColorMatrix type="matrix" values="0 0 0 0 0 0 0 0 0 0 0 0 0 0 0 0 0 0 0.25 0"/>
<feBlend mode="normal" in2="shape" result="effect3_innerShadow_169_21001"/>
<feColorMatrix in="SourceAlpha" type="matrix" values="0 0 0 0 0 0 0 0 0 0 0 0 0 0 0 0 0 0 127 0" result="hardAlpha"/>
<feOffset dy="4"/>
<feGaussianBlur stdDeviation="2"/>
<feComposite in2="hardAlpha" operator="arithmetic" k2="-1" k3="1"/>
<feColorMatrix type="matrix" values="0 0 0 0 0.730769 0 0 0 0 0.1848 0 0 0 0 0.1848 0 0 0 0.25 0"/>
<feBlend mode="normal" in2="effect3_innerShadow_169_21001" result="effect4_innerShadow_169_21001"/>
</filter>
<clipPath id="paint0_diamond_169_21001_clip_path"><path d="M62.1804 2.52888C62.8556 2.16767 73.7247 1.54544 81.0134 2.52888C90.7272 3.83951 96.0904 5.94798 104.891 10.2638C110.553 13.0408 113.719 14.7759 118.679 18.6714C122.989 22.0563 125.069 24.381 128.768 28.4242C131.981 31.9354 133.731 33.9726 136.503 37.8407C139.418 41.9077 140.915 44.4412 143.229 48.7461C145.51 52.9884 146.466 55.2362 148.274 59.7004C149.989 63.9346 151.048 66.0713 152.31 70.4621C153.337 74.0377 153.713 76.3839 154.294 80.008L154.327 80.2149C155.015 84.5021 154.931 86.9476 155 91.3128C155 91.3128 154.717 101.476 153.318 107.792C152.276 112.496 151.577 114.689 149.955 119.226C148.191 124.164 146.957 127.334 144.575 132.006C142.108 136.842 140.065 139.179 137.176 143.776C134.287 148.373 129.105 152.856 129.105 152.856C129.105 152.856 123.355 158.415 119.352 161.6C115.816 164.414 113.874 166.111 109.935 168.326C106.913 170.026 104.876 171.046 101.5 172.5C98.1665 173.935 96.3734 174.392 92.784 175.725C88.8907 177.171 86.7326 178.116 82.6949 179.088C78.0541 180.205 75.356 180.544 70.588 180.769C68.1754 180.884 66.7837 180.844 64.4351 180.776L64.1982 180.769C59.4557 180.634 56.7864 180.443 52.0913 179.761C47.5797 179.105 45.0428 178.651 40.657 177.406C35.9983 176.084 33.4567 174.994 29.0533 173.106L28.8864 173.034C24.7295 171.252 22.2802 170.413 18.461 167.99C15.3777 166.034 13.8354 164.648 11.0624 162.273C8.16993 159.795 4 155.547 4 155.547V154.201C4 154.201 7.47965 154.656 9.71715 154.874C15.6052 155.448 18.9354 155.622 24.8508 155.547C29.4546 155.488 32.0588 155.492 36.6214 154.874C41.0118 154.28 43.4735 153.785 47.7194 152.52C52.7444 151.022 55.4224 149.717 60.1626 147.475C64.1993 145.566 66.4783 144.482 70.2517 142.095C73.9807 139.735 75.8999 138.143 79.3318 135.369C82.7333 132.619 84.7565 131.169 87.7394 127.97C90.3555 125.165 91.6212 123.397 93.7929 120.235C96.2924 116.596 97.5082 114.417 99.51 110.482C101.27 107.023 102.304 105.078 103.546 101.402C104.84 97.5688 105.319 95.3168 105.9 91.3128C106.481 87.3089 106.151 77.2469 104.555 68.4443C103.537 62.8337 100.855 54.3195 100.855 54.3195C100.855 54.3195 97.6721 46.5856 95.1381 41.8763C92.8754 37.6712 91.435 35.3986 88.7483 31.4509C86.1621 27.6508 84.7146 25.4924 81.686 22.0344C78.3201 18.1915 76.2603 16.1434 72.2695 12.9543C68.5702 9.99812 66.2619 8.62912 62.1804 6.22821C61.2677 5.69135 59.8263 4.88299 59.8263 4.88299C59.8263 4.88299 60.1166 3.98373 60.4989 3.53778C60.7871 3.20151 61.5051 2.8901 62.1804 2.52888Z"/></clipPath><clipPath id="paint1_diamond_169_21001_clip_path"><path d="M62.1804 2.52888C62.8556 2.16767 73.7247 1.54544 81.0134 2.52888C90.7272 3.83951 96.0904 5.94798 104.891 10.2638C110.553 13.0408 113.719 14.7759 118.679 18.6714C122.989 22.0563 125.069 24.381 128.768 28.4242C131.981 31.9354 133.731 33.9726 136.503 37.8407C139.418 41.9077 140.915 44.4412 143.229 48.7461C145.51 52.9884 146.466 55.2362 148.274 59.7004C149.989 63.9346 151.048 66.0713 152.31 70.4621C153.337 74.0377 153.713 76.3839 154.294 80.008L154.327 80.2149C155.015 84.5021 154.931 86.9476 155 91.3128C155 91.3128 154.717 101.476 153.318 107.792C152.276 112.496 151.577 114.689 149.955 119.226C148.191 124.164 146.957 127.334 144.575 132.006C142.108 136.842 140.065 139.179 137.176 143.776C134.287 148.373 129.105 152.856 129.105 152.856C129.105 152.856 123.355 158.415 119.352 161.6C115.816 164.414 113.874 166.111 109.935 168.326C106.913 170.026 104.876 171.046 101.5 172.5C98.1665 173.935 96.3734 174.392 92.784 175.725C88.8907 177.171 86.7326 178.116 82.6949 179.088C78.0541 180.205 75.356 180.544 70.588 180.769C68.1754 180.884 66.7837 180.844 64.4351 180.776L64.1982 180.769C59.4557 180.634 56.7864 180.443 52.0913 179.761C47.5797 179.105 45.0428 178.651 40.657 177.406C35.9983 176.084 33.4567 174.994 29.0533 173.106L28.8864 173.034C24.7295 171.252 22.2802 170.413 18.461 167.99C15.3777 166.034 13.8354 164.648 11.0624 162.273C8.16993 159.795 4 155.547 4 155.547V154.201C4 154.201 7.47965 154.656 9.71715 154.874C15.6052 155.448 18.9354 155.622 24.8508 155.547C29.4546 155.488 32.0588 155.492 36.6214 154.874C41.0118 154.28 43.4735 153.785 47.7194 152.52C52.7444 151.022 55.4224 149.717 60.1626 147.475C64.1993 145.566 66.4783 144.482 70.2517 142.095C73.9807 139.735 75.8999 138.143 79.3318 135.369C82.7333 132.619 84.7565 131.169 87.7394 127.97C90.3555 125.165 91.6212 123.397 93.7929 120.235C96.2924 116.596 97.5082 114.417 99.51 110.482C101.27 107.023 102.304 105.078 103.546 101.402C104.84 97.5688 105.319 95.3168 105.9 91.3128C106.481 87.3089 106.151 77.2469 104.555 68.4443C103.537 62.8337 100.855 54.3195 100.855 54.3195C100.855 54.3195 97.6721 46.5856 95.1381 41.8763C92.8754 37.6712 91.435 35.3986 88.7483 31.4509C86.1621 27.6508 84.7146 25.4924 81.686 22.0344C78.3201 18.1915 76.2603 16.1434 72.2695 12.9543C68.5702 9.99812 66.2619 8.62912 62.1804 6.22821C61.2677 5.69135 59.8263 4.88299 59.8263 4.88299C59.8263 4.88299 60.1166 3.98373 60.4989 3.53778C60.7871 3.20151 61.5051 2.8901 62.1804 2.52888Z"/></clipPath><clipPath id="paint3_diamond_169_21001_clip_path"><path d="M62.1804 2.52888C62.8556 2.16767 73.7247 1.54544 81.0134 2.52888C90.7272 3.83951 96.0904 5.94798 104.891 10.2638C110.553 13.0408 113.719 14.7759 118.679 18.6714C122.989 22.0563 125.069 24.381 128.768 28.4242C131.981 31.9354 133.731 33.9726 136.503 37.8407C139.418 41.9077 140.915 44.4412 143.229 48.7461C145.51 52.9884 146.466 55.2362 148.274 59.7004C149.989 63.9346 151.048 66.0713 152.31 70.4621C153.337 74.0377 153.713 76.3839 154.294 80.008L154.327 80.2149C155.015 84.5021 154.931 86.9476 155 91.3128C155 91.3128 154.717 101.476 153.318 107.792C152.276 112.496 151.577 114.689 149.955 119.226C148.191 124.164 146.957 127.334 144.575 132.006C142.108 136.842 140.065 139.179 137.176 143.776C134.287 148.373 129.105 152.856 129.105 152.856C129.105 152.856 123.355 158.415 119.352 161.6C115.816 164.414 113.874 166.111 109.935 168.326C106.913 170.026 104.876 171.046 101.5 172.5C98.1665 173.935 96.3734 174.392 92.784 175.725C88.8907 177.171 86.7326 178.116 82.6949 179.088C78.0541 180.205 75.356 180.544 70.588 180.769C68.1754 180.884 66.7837 180.844 64.4351 180.776L64.1982 180.769C59.4557 180.634 56.7864 180.443 52.0913 179.761C47.5797 179.105 45.0428 178.651 40.657 177.406C35.9983 176.084 33.4567 174.994 29.0533 173.106L28.8864 173.034C24.7295 171.252 22.2802 170.413 18.461 167.99C15.3777 166.034 13.8354 164.648 11.0624 162.273C8.16993 159.795 4 155.547 4 155.547V154.201C4 154.201 7.47965 154.656 9.71715 154.874C15.6052 155.448 18.9354 155.622 24.8508 155.547C29.4546 155.488 32.0588 155.492 36.6214 154.874C41.0118 154.28 43.4735 153.785 47.7194 152.52C52.7444 151.022 55.4224 149.717 60.1626 147.475C64.1993 145.566 66.4783 144.482 70.2517 142.095C73.9807 139.735 75.8999 138.143 79.3318 135.369C82.7333 132.619 84.7565 131.169 87.7394 127.97C90.3555 125.165 91.6212 123.397 93.7929 120.235C96.2924 116.596 97.5082 114.417 99.51 110.482C101.27 107.023 102.304 105.078 103.546 101.402C104.84 97.5688 105.319 95.3168 105.9 91.3128C106.481 87.3089 106.151 77.2469 104.555 68.4443C103.537 62.8337 100.855 54.3195 100.855 54.3195C100.855 54.3195 97.6721 46.5856 95.1381 41.8763C92.8754 37.6712 91.435 35.3986 88.7483 31.4509C86.1621 27.6508 84.7146 25.4924 81.686 22.0344C78.3201 18.1915 76.2603 16.1434 72.2695 12.9543C68.5702 9.99812 66.2619 8.62912 62.1804 6.22821C61.2677 5.69135 59.8263 4.88299 59.8263 4.88299C59.8263 4.88299 60.1166 3.98373 60.4989 3.53778C60.7871 3.20151 61.5051 2.8901 62.1804 2.52888Z"/></clipPath><clipPath id="paint4_diamond_169_21001_clip_path"><path d="M62.1804 2.52888C62.8556 2.16767 73.7247 1.54544 81.0134 2.52888C90.7272 3.83951 96.0904 5.94798 104.891 10.2638C110.553 13.0408 113.719 14.7759 118.679 18.6714C122.989 22.0563 125.069 24.381 128.768 28.4242C131.981 31.9354 133.731 33.9726 136.503 37.8407C139.418 41.9077 140.915 44.4412 143.229 48.7461C145.51 52.9884 146.466 55.2362 148.274 59.7004C149.989 63.9346 151.048 66.0713 152.31 70.4621C153.337 74.0377 153.713 76.3839 154.294 80.008L154.327 80.2149C155.015 84.5021 154.931 86.9476 155 91.3128C155 91.3128 154.717 101.476 153.318 107.792C152.276 112.496 151.577 114.689 149.955 119.226C148.191 124.164 146.957 127.334 144.575 132.006C142.108 136.842 140.065 139.179 137.176 143.776C134.287 148.373 129.105 152.856 129.105 152.856C129.105 152.856 123.355 158.415 119.352 161.6C115.816 164.414 113.874 166.111 109.935 168.326C106.913 170.026 104.876 171.046 101.5 172.5C98.1665 173.935 96.3734 174.392 92.784 175.725C88.8907 177.171 86.7326 178.116 82.6949 179.088C78.0541 180.205 75.356 180.544 70.588 180.769C68.1754 180.884 66.7837 180.844 64.4351 180.776L64.1982 180.769C59.4557 180.634 56.7864 180.443 52.0913 179.761C47.5797 179.105 45.0428 178.651 40.657 177.406C35.9983 176.084 33.4567 174.994 29.0533 173.106L28.8864 173.034C24.7295 171.252 22.2802 170.413 18.461 167.99C15.3777 166.034 13.8354 164.648 11.0624 162.273C8.16993 159.795 4 155.547 4 155.547V154.201C4 154.201 7.47965 154.656 9.71715 154.874C15.6052 155.448 18.9354 155.622 24.8508 155.547C29.4546 155.488 32.0588 155.492 36.6214 154.874C41.0118 154.28 43.4735 153.785 47.7194 152.52C52.7444 151.022 55.4224 149.717 60.1626 147.475C64.1993 145.566 66.4783 144.482 70.2517 142.095C73.9807 139.735 75.8999 138.143 79.3318 135.369C82.7333 132.619 84.7565 131.169 87.7394 127.97C90.3555 125.165 91.6212 123.397 93.7929 120.235C96.2924 116.596 97.5082 114.417 99.51 110.482C101.27 107.023 102.304 105.078 103.546 101.402C104.84 97.5688 105.319 95.3168 105.9 91.3128C106.481 87.3089 106.151 77.2469 104.555 68.4443C103.537 62.8337 100.855 54.3195 100.855 54.3195C100.855 54.3195 97.6721 46.5856 95.1381 41.8763C92.8754 37.6712 91.435 35.3986 88.7483 31.4509C86.1621 27.6508 84.7146 25.4924 81.686 22.0344C78.3201 18.1915 76.2603 16.1434 72.2695 12.9543C68.5702 9.99812 66.2619 8.62912 62.1804 6.22821C61.2677 5.69135 59.8263 4.88299 59.8263 4.88299C59.8263 4.88299 60.1166 3.98373 60.4989 3.53778C60.7871 3.20151 61.5051 2.8901 62.1804 2.52888Z"/></clipPath><filter id="filter1_di_169_21001" x="10.0898" y="18.4878" width="56.7842" height="59.1091" filterUnits="userSpaceOnUse" colorInterpolationFilters="sRGB">
<feFlood floodOpacity="0" result="BackgroundImageFix"/>
<feColorMatrix in="SourceAlpha" type="matrix" values="0 0 0 0 0 0 0 0 0 0 0 0 0 0 0 0 0 0 127 0" result="hardAlpha"/>
<feOffset dy="4"/>
<feGaussianBlur stdDeviation="2"/>
<feComposite in2="hardAlpha" operator="out"/>
<feColorMatrix type="matrix" values="0 0 0 0 0 0 0 0 0 0 0 0 0 0 0 0 0 0 0.25 0"/>
<feBlend mode="normal" in2="BackgroundImageFix" result="effect1_dropShadow_169_21001"/>
<feBlend mode="normal" in="SourceGraphic" in2="effect1_dropShadow_169_21001" result="shape"/>
<feColorMatrix in="SourceAlpha" type="matrix" values="0 0 0 0 0 0 0 0 0 0 0 0 0 0 0 0 0 0 127 0" result="hardAlpha"/>
<feOffset dx="0.2" dy="-2"/>
<feGaussianBlur stdDeviation="0.5"/>
<feComposite in2="hardAlpha" operator="arithmetic" k2="-1" k3="1"/>
<feColorMatrix type="matrix" values="0 0 0 0 0 0 0 0 0 0 0 0 0 0 0 0 0 0 0.15 0"/>
<feBlend mode="normal" in2="shape" result="effect2_innerShadow_169_21001"/>
</filter>
<filter id="filter2_di_169_21001" x="10.0898" y="18.4878" width="56.7842" height="59.1091" filterUnits="userSpaceOnUse" colorInterpolationFilters="sRGB">
<feFlood floodOpacity="0" result="BackgroundImageFix"/>
<feColorMatrix in="SourceAlpha" type="matrix" values="0 0 0 0 0 0 0 0 0 0 0 0 0 0 0 0 0 0 127 0" result="hardAlpha"/>
<feOffset dy="4"/>
<feGaussianBlur stdDeviation="2"/>
<feComposite in2="hardAlpha" operator="out"/>
<feColorMatrix type="matrix" values="0 0 0 0 0 0 0 0 0 0 0 0 0 0 0 0 0 0 0.25 0"/>
<feBlend mode="normal" in2="BackgroundImageFix" result="effect1_dropShadow_169_21001"/>
<feBlend mode="normal" in="SourceGraphic" in2="effect1_dropShadow_169_21001" result="shape"/>
<feColorMatrix in="SourceAlpha" type="matrix" values="0 0 0 0 0 0 0 0 0 0 0 0 0 0 0 0 0 0 127 0" result="hardAlpha"/>
<feOffset dx="0.2" dy="-2"/>
<feGaussianBlur stdDeviation="0.5"/>
<feComposite in2="hardAlpha" operator="arithmetic" k2="-1" k3="1"/>
<feColorMatrix type="matrix" values="0 0 0 0 0 0 0 0 0 0 0 0 0 0 0 0 0 0 0.15 0"/>
<feBlend mode="normal" in2="shape" result="effect2_innerShadow_169_21001"/>
</filter>
<filter id="filter3_di_169_21001" x="4.38965" y="77.8982" width="32.3936" height="35.8562" filterUnits="userSpaceOnUse" colorInterpolationFilters="sRGB">
<feFlood floodOpacity="0" result="BackgroundImageFix"/>
<feColorMatrix in="SourceAlpha" type="matrix" values="0 0 0 0 0 0 0 0 0 0 0 0 0 0 0 0 0 0 127 0" result="hardAlpha"/>
<feOffset dy="4"/>
<feGaussianBlur stdDeviation="2"/>
<feComposite in2="hardAlpha" operator="out"/>
<feColorMatrix type="matrix" values="0 0 0 0 0 0 0 0 0 0 0 0 0 0 0 0 0 0 0.25 0"/>
<feBlend mode="normal" in2="BackgroundImageFix" result="effect1_dropShadow_169_21001"/>
<feBlend mode="normal" in="SourceGraphic" in2="effect1_dropShadow_169_21001" result="shape"/>
<feColorMatrix in="SourceAlpha" type="matrix" values="0 0 0 0 0 0 0 0 0 0 0 0 0 0 0 0 0 0 127 0" result="hardAlpha"/>
<feOffset dx="0.2" dy="-2"/>
<feGaussianBlur stdDeviation="0.5"/>
<feComposite in2="hardAlpha" operator="arithmetic" k2="-1" k3="1"/>
<feColorMatrix type="matrix" values="0 0 0 0 0 0 0 0 0 0 0 0 0 0 0 0 0 0 0.15 0"/>
<feBlend mode="normal" in2="shape" result="effect2_innerShadow_169_21001"/>
</filter>
<filter id="filter4_di_169_21001" x="42.501" y="82.5259" width="39.8936" height="39.6401" filterUnits="userSpaceOnUse" colorInterpolationFilters="sRGB">
<feFlood floodOpacity="0" result="BackgroundImageFix"/>
<feColorMatrix in="SourceAlpha" type="matrix" values="0 0 0 0 0 0 0 0 0 0 0 0 0 0 0 0 0 0 127 0" result="hardAlpha"/>
<feOffset dy="4"/>
<feGaussianBlur stdDeviation="2"/>
<feComposite in2="hardAlpha" operator="out"/>
<feColorMatrix type="matrix" values="0 0 0 0 0 0 0 0 0 0 0 0 0 0 0 0 0 0 0.25 0"/>
<feBlend mode="normal" in2="BackgroundImageFix" result="effect1_dropShadow_169_21001"/>
<feBlend mode="normal" in="SourceGraphic" in2="effect1_dropShadow_169_21001" result="shape"/>
<feColorMatrix in="SourceAlpha" type="matrix" values="0 0 0 0 0 0 0 0 0 0 0 0 0 0 0 0 0 0 127 0" result="hardAlpha"/>
<feOffset dx="0.2" dy="-2"/>
<feGaussianBlur stdDeviation="0.5"/>
<feComposite in2="hardAlpha" operator="arithmetic" k2="-1" k3="1"/>
<feColorMatrix type="matrix" values="0 0 0 0 0 0 0 0 0 0 0 0 0 0 0 0 0 0 0.15 0"/>
<feBlend mode="normal" in2="shape" result="effect2_innerShadow_169_21001"/>
</filter>
<linearGradient id="paint0_diamond_169_21001" x1="0" y1="0" x2="500" y2="500" gradientUnits="userSpaceOnUse">
<stop stopColor="#9F8319"/>
<stop offset="1" stopColor="#E8BE01"/>
</linearGradient>
<linearGradient id="paint1_diamond_169_21001" x1="0" y1="0" x2="500" y2="500" gradientUnits="userSpaceOnUse">
<stop stopColor="#C49F15"/>
<stop offset="1" stopColor="#E8BE01" stop-opacity="0.5"/>
</linearGradient>
<radialGradient id="paint2_radial_169_21001" cx="0" cy="0" r="1" gradientUnits="userSpaceOnUse" gradientTransform="translate(90.4298 146.274) rotate(-51.0524) scale(115.024 97.1173)">
<stop stop-opacity="0"/>
<stop offset="1" stopColor="#A4831A"/>
</radialGradient>
<linearGradient id="paint3_diamond_169_21001" x1="0" y1="0" x2="500" y2="500" gradientUnits="userSpaceOnUse">
<stop stopColor="#AD840E" stop-opacity="0.25"/>
<stop offset="1" stop-opacity="0"/>
</linearGradient>
<linearGradient id="paint4_diamond_169_21001" x1="0" y1="0" x2="500" y2="500" gradientUnits="userSpaceOnUse">
<stop stopColor="#AD840E" stop-opacity="0.25"/>
<stop offset="1" stop-opacity="0"/>
</linearGradient>
<radialGradient id="paint5_radial_169_21001" cx="0" cy="0" r="1" gradientUnits="userSpaceOnUse" gradientTransform="translate(38.4819 44.5424) rotate(130.297) scale(63.7149 38.5126)">
<stop stopColor="#F5EAB9"/>
<stop offset="1" stopColor="#DBC732"/>
</radialGradient>
<radialGradient id="paint6_radial_169_21001" cx="0" cy="0" r="1" gradientUnits="userSpaceOnUse" gradientTransform="translate(38.4819 44.5424) rotate(130.297) scale(63.7149 38.5126)">
<stop stopColor="#F5EAB9"/>
<stop offset="1" stopColor="#DBC732"/>
</radialGradient>
<radialGradient id="paint7_radial_169_21001" cx="0" cy="0" r="1" gradientTransform="matrix(-27.8722 17.3204 -10.8854 -16.67 19.9394 91.2867)" gradientUnits="userSpaceOnUse">
<stop stopColor="#EEDD93"/>
<stop offset="1" stopColor="#DBC732"/>
</radialGradient>
<radialGradient id="paint8_radial_169_21001" cx="0" cy="0" r="1" gradientTransform="matrix(-19.5315 35.3962 -22.7641 -9.89217 63.2359 98.1132)" gradientUnits="userSpaceOnUse">
<stop stopColor="#EEDD93"/>
<stop offset="1" stopColor="#DBC732"/>
</radialGradient>
</defs>
</svg>
