<svg width="96" height="109" viewBox="0 0 96 109" fill="none" xmlns="http://www.w3.org/2000/svg">
<g id="PERRITO">
<g id="Group 24">
<g id="Vector 14" filter="url(#filter0_dd_219_18)">
<path d="M63 17.5652L60 23.5652C60 23.5652 65.1088 26.1167 67.5 27.5652C71.2863 29.8589 73.1738 32.1653 75 34.0652C77.0621 36.2106 78.9889 38.7876 81 42.0652C83.3985 45.9741 86 52.5652 86 52.5652C86 52.5652 86.5511 49.8086 87 48.0652C87.3544 46.6886 87.6456 45.9418 88 44.5652C88.4489 42.8218 88.6095 41.8226 89 40.0652C89.3905 38.3078 89.6272 37.3264 90 35.5652C90.4123 33.6171 90.7136 32.5358 91 30.5652C91.3942 27.8531 91.4099 26.3044 91.5 23.5652C91.577 21.2233 91.7179 19.8982 91.5 17.5652C91.297 15.3916 90.9602 14.1723 90.5 12.0652C90.1048 10.2554 89.8738 9.19856 89 7.5652C87.7608 5.24887 86.9317 3.55916 84.5 2.5652C83.0428 1.96955 82.0682 1.92782 80.5 2.0652C79.0839 2.18925 78.3134 2.52139 77 3.0652C75.5455 3.66743 74.7918 4.1655 73.5 5.0652C72.2486 5.93677 70.5 7.5652 70.5 7.5652C70.5 7.5652 67.9227 10.1932 66.5 12.0652C64.9595 14.0922 63 17.5652 63 17.5652Z" fill="url(#paint0_radial_219_18)"/>
</g>
<path id="Vector 15" d="M68.5 20.0651C67.1083 22.1969 65 25.5651 65 25.5651C65 25.5651 67.8637 27.2297 69.5 28.5651C71.2115 29.9618 72.4379 31.003 74 32.5651C75.7574 34.3224 76.4061 35.1582 78 37.0651C79.5286 38.8938 81.5 42.0651 81.5 42.0651C81.5 42.0651 82.9775 40.5768 83.5 39.5652C84.5489 37.5346 85 36.5653 85.5 34.0652C86 31.5651 86.2296 29.5398 86.5 26.5652C86.7298 24.0372 86.5953 22.6092 86.5 20.0651C86.4039 17.4986 86.6217 16.3327 86 14.0652C85.4915 12.2105 85.0318 10.876 84 9.56508C83.2267 8.58262 82.7316 7.78047 81.5 7.56508C80.2835 7.35233 78.5 8.56508 78.5 8.56508C78.5 8.56508 76.2859 10.3052 75 11.5651C73.5174 13.0177 72.7627 13.9177 71.5 15.5651C70.2151 17.2414 69.6546 18.2965 68.5 20.0651Z" fill="url(#paint1_radial_219_18)"/>
</g>
<g id="Group 25">
<g id="Vector 14_2" filter="url(#filter1_dd_219_18)">
<path d="M32.0585 17.5652L35 23.5652C35 23.5652 29.9908 26.1167 27.6462 27.5652C23.9337 29.8589 22.083 32.1653 20.2924 34.0652C18.2705 36.2106 16.3813 38.7876 14.4094 42.0652C12.0577 45.9741 9.50682 52.5652 9.50682 52.5652C9.50682 52.5652 8.96642 49.8086 8.52632 48.0652C8.17879 46.6886 7.89333 45.9418 7.54581 44.5652C7.10571 42.8218 6.94821 41.8226 6.5653 40.0652C6.18239 38.3078 5.95028 37.3264 5.58479 35.5652C5.18052 33.6171 4.88515 32.5358 4.60429 30.5652C4.21774 27.8531 4.20233 26.3044 4.11403 23.5652C4.03854 21.2233 3.90041 19.8982 4.11403 17.5652C4.31306 15.3916 4.64334 14.1723 5.09454 12.0652C5.48207 10.2554 5.7085 9.19856 6.5653 7.5652C7.78037 5.24887 8.5933 3.55916 10.9776 2.5652C12.4064 1.96955 13.3619 1.92782 14.8996 2.0652C16.2881 2.18925 17.0436 2.52139 18.3314 3.0652C19.7575 3.66743 20.4965 4.1655 21.7632 5.0652C22.9902 5.93677 24.7047 7.5652 24.7047 7.5652C24.7047 7.5652 27.2317 10.1932 28.6267 12.0652C30.1372 14.0922 32.0585 17.5652 32.0585 17.5652Z" fill="url(#paint2_radial_219_18)"/>
<path d="M32.0585 17.5652L35 23.5652C35 23.5652 29.9908 26.1167 27.6462 27.5652C23.9337 29.8589 22.083 32.1653 20.2924 34.0652C18.2705 36.2106 16.3813 38.7876 14.4094 42.0652C12.0577 45.9741 9.50682 52.5652 9.50682 52.5652C9.50682 52.5652 8.96642 49.8086 8.52632 48.0652C8.17879 46.6886 7.89333 45.9418 7.54581 44.5652C7.10571 42.8218 6.94821 41.8226 6.5653 40.0652C6.18239 38.3078 5.95028 37.3264 5.58479 35.5652C5.18052 33.6171 4.88515 32.5358 4.60429 30.5652C4.21774 27.8531 4.20233 26.3044 4.11403 23.5652C4.03854 21.2233 3.90041 19.8982 4.11403 17.5652C4.31306 15.3916 4.64334 14.1723 5.09454 12.0652C5.48207 10.2554 5.7085 9.19856 6.5653 7.5652C7.78037 5.24887 8.5933 3.55916 10.9776 2.5652C12.4064 1.96955 13.3619 1.92782 14.8996 2.0652C16.2881 2.18925 17.0436 2.52139 18.3314 3.0652C19.7575 3.66743 20.4965 4.1655 21.7632 5.0652C22.9902 5.93677 24.7047 7.5652 24.7047 7.5652C24.7047 7.5652 27.2317 10.1932 28.6267 12.0652C30.1372 14.0922 32.0585 17.5652 32.0585 17.5652Z" fill="url(#paint3_radial_219_18)"/>
</g>
<path id="Vector 15_2" d="M26.6659 20.0651C28.0305 22.1969 30.0977 25.5651 30.0977 25.5651C30.0977 25.5651 27.2898 27.2297 25.6854 28.5651C24.0072 29.9618 22.8047 31.003 21.2731 32.5651C19.55 34.3224 18.9139 35.1582 17.3511 37.0651C15.8523 38.8938 13.9193 42.0651 13.9193 42.0651C13.9193 42.0651 12.4706 40.5768 11.9583 39.5652C10.9299 37.5346 10.4875 36.5653 9.99727 34.0652C9.50701 31.5651 9.28192 29.5398 9.01676 26.5652C8.79141 24.0372 8.92334 22.6092 9.01676 20.0651C9.111 17.4986 8.89739 16.3327 9.50701 14.0652C10.0056 12.2105 10.4563 10.876 11.468 9.56508C12.2262 8.58262 12.7117 7.78047 13.9193 7.56508C15.1121 7.35233 16.8608 8.56508 16.8608 8.56508C16.8608 8.56508 19.0318 10.3052 20.2926 11.5651C21.7463 13.0177 22.4862 13.9177 23.7244 15.5651C24.9842 17.2414 25.5338 18.2965 26.6659 20.0651Z" fill="url(#paint4_radial_219_18)"/>
</g>
<g id="Vector 7" filter="url(#filter2_d_219_18)">
<path d="M34.8997 23.7874C28.2955 26.082 25.4662 29.3028 20.3994 34.2874C17.4401 37.1987 15.5914 39.2618 13.3997 42.7874C11.2745 46.2061 10.64 48.4578 9.3997 52.2874C8.40748 55.3511 7.97864 57.1195 7.3997 60.2874C6.4143 65.6794 5.42675 68.8932 6.3997 74.2874C6.87112 76.9011 7.30983 78.3655 8.3997 80.7874C9.84424 83.9975 11.1482 85.5815 13.3997 88.2874C15.3425 90.6224 16.5522 91.8597 18.8997 93.7874C20.7417 95.3 21.8776 96.0256 23.8997 97.2874C26.3456 98.8136 27.707 99.7572 30.3997 100.787C32.4226 101.561 33.6524 101.818 35.7241 102.251L35.8997 102.287C39.5513 103.05 41.6732 103.115 45.3997 103.287C48.3255 103.422 49.9829 103.554 52.8997 103.287C55.2653 103.071 56.569 102.747 58.8997 102.287C61.4557 101.784 62.975 101.74 65.3997 100.787C67.9245 99.7954 69.0843 99.2007 71.3997 97.7874C73.5728 96.461 74.8985 95.3612 76.8997 93.7874C79.2874 91.9097 80.5131 90.6681 82.3997 88.2874C84.5211 85.6104 85.5562 83.9278 86.8997 80.7874L86.9103 80.7626C87.9474 78.3384 88.4014 77.2772 88.8997 74.2874C89.3997 71.2874 88.8997 69.1069 88.8997 65.7874L87.8997 60.2874C87.8997 60.2874 86.8919 55.3511 85.8997 52.2874C84.6594 48.4578 83.9708 46.2392 81.8997 42.7874C79.8286 39.3356 78.3436 37.7143 75.3997 34.7874C70.4689 29.8851 67.4696 26.0638 60.8997 23.7874C57.7147 22.6838 56.6955 22.2874 52.3997 22.2874C48.1039 22.2874 44.9 21.7874 41.3997 22.2874C37.8994 22.7874 37.3605 22.9324 34.8997 23.7874Z" fill="url(#paint5_radial_219_18)"/>
</g>
<path id="Vector 13" d="M40.8994 77.7874C40.8994 77.7874 39.8999 76.0972 39.8994 74.7874C39.899 73.7874 47.8994 68.7874 47.8994 68.7874C47.8994 68.7874 54.3994 72.7874 55.3994 74.7874C55.9517 75.8919 54.8994 77.7874 54.8994 77.7874C54.8994 77.7874 54.0679 79.0758 53.3994 79.7874C52.5434 80.6986 52.0317 81.2572 50.8994 81.7874C50.3402 82.0492 50.0032 82.158 49.3994 82.2874C48.2538 82.5328 47.545 82.5328 46.3994 82.2874C45.7956 82.158 45.4586 82.0492 44.8994 81.7874C43.7671 81.2572 43.2555 80.6986 42.3994 79.7874C41.731 79.0758 40.8994 77.7874 40.8994 77.7874Z" fill="url(#paint6_radial_219_18)"/>
<g id="Vector 8">
<path d="M35.0319 23.6226L35 23.5652C35 23.5652 31.1958 25.1364 29 26.5652C26.6021 28.1254 23.3994 31.2874 23.3994 31.2874C23.3994 31.2874 18.1533 35.9698 15.5 39.5652C13.7302 41.9634 12.2826 44.3974 11.5 46.0652C10.3399 48.5375 9.9237 50.9979 8.89941 54.2874C7.47624 58.8578 6.39941 66.2874 6.39941 66.2874C6.39941 66.2874 9.92191 63.3496 12.3994 61.7874C14.0999 60.7151 15.019 59.9983 16.8994 59.2874C18.4055 58.7179 19.7283 58.255 20.8994 58.2874C23.2498 58.3523 24.4205 58.2411 26.8994 58.7874C28.1054 59.0531 29.1773 59.1095 30.3994 59.2874C32.1492 59.542 33.2554 59.4381 34.8994 58.7874C36.2032 58.2713 36.7754 57.7707 37.8854 56.7996L37.8994 56.7874C38.3994 56.3499 39.6227 54.5998 40.3994 53.2874C41.2491 51.8516 41.5128 50.7233 41.8994 49.2874C42.1089 48.5093 41.8994 44.8258 41.8994 42.2874C41.8994 39.7489 40.8994 35.7874 40.3994 34.2874C39.8994 32.7874 39.2821 31.6803 38.8994 30.7874C38.5184 29.8982 37.5087 28.0808 35.0319 23.6226Z" fill="url(#paint7_radial_219_18)"/>
<path d="M35.0319 23.6226L35 23.5652C35 23.5652 31.1958 25.1364 29 26.5652C26.6021 28.1254 23.3994 31.2874 23.3994 31.2874C23.3994 31.2874 18.1533 35.9698 15.5 39.5652C13.7302 41.9634 12.2826 44.3974 11.5 46.0652C10.3399 48.5375 9.9237 50.9979 8.89941 54.2874C7.47624 58.8578 6.39941 66.2874 6.39941 66.2874C6.39941 66.2874 9.92191 63.3496 12.3994 61.7874C14.0999 60.7151 15.019 59.9983 16.8994 59.2874C18.4055 58.7179 19.7283 58.255 20.8994 58.2874C23.2498 58.3523 24.4205 58.2411 26.8994 58.7874C28.1054 59.0531 29.1773 59.1095 30.3994 59.2874C32.1492 59.542 33.2554 59.4381 34.8994 58.7874C36.2032 58.2713 36.7754 57.7707 37.8854 56.7996L37.8994 56.7874C38.3994 56.3499 39.6227 54.5998 40.3994 53.2874C41.2491 51.8516 41.5128 50.7233 41.8994 49.2874C42.1089 48.5093 41.8994 44.8258 41.8994 42.2874C41.8994 39.7489 40.8994 35.7874 40.3994 34.2874C39.8994 32.7874 39.2821 31.6803 38.8994 30.7874C38.5184 29.8982 37.5087 28.0808 35.0319 23.6226Z" fill="url(#paint8_radial_219_18)"/>
</g>
<path id="Vector 9" d="M56.8996 31.2874L60.3996 23.2874C60.3996 23.2874 66.6431 26.0308 71.3996 30.7874C75.3996 34.7874 77.6087 36.2233 80.5 40.5652C83.7331 45.4204 85.2115 50.2396 86.3999 54.2874C88.4702 61.3386 88.8994 66.2874 88.8994 66.2874L80.8996 59.7874L76.8996 58.2874H73.8996H67.3996L62.8996 58.7874L59.8996 58.2874L56.8996 56.2874L54.3996 52.7874L53.3996 48.7874V42.2874L54.3996 38.2874L56.8996 31.2874Z" fill="url(#paint9_radial_219_18)"/>
<path id="Ellipse 12" opacity="0.5" d="M38.8994 50.2874C38.8994 52.4965 37.3847 54.7874 34.8994 54.7874C32.4141 54.7874 30.3994 52.4965 30.3994 50.2874C30.3994 48.0782 32.4141 46.2874 34.8994 46.2874C37.3847 46.2874 38.8994 48.0782 38.8994 50.2874Z" fill="black"/>
<path id="ojo-start" d="M57.0003 50.1968C57.0003 52.5359 58.515 54.9615 61.0003 54.9615C63.4856 54.9615 66 52.5359 66 50.1968C66 48.5802 64.3703 46.6122 62.7168 46.1968C61.7415 45.9518 60.1829 45.9176 59.2168 46.1966C57.7002 46.6346 57.0003 47.8576 57.0003 50.1968Z" fill="url(#paint10_radial_219_18)"/>
<path id="Ellipse 14" d="M39.3994 50.6311C39.3994 52.9169 37.8846 55.2874 35.3993 55.2874C32.9139 55.2874 30.3994 52.5732 30.3994 50.2874C30.3994 49.3216 30.8351 48.4741 31.3994 47.7874C31.7582 47.3507 32.3745 47.0459 32.8994 46.7874C33.8886 46.3001 34.6315 46.2874 35.3993 46.2874C37.8846 46.2874 39.3994 48.3453 39.3994 50.6311Z" fill="url(#paint11_radial_219_18)"/>
<path id="Ellipse 15" d="M55.8994 61.7874C55.8994 63.7252 55.3994 64.7874 53.3994 66.2874C52.0713 66.8433 49.2435 67.2874 47.5439 67.2874C45.1697 67.2874 42.8994 66.7874 41.8994 66.2874C39.3994 64.7874 39.3994 63.2887 39.3994 61.7874C39.3994 60.0556 39.8994 58.2874 42.8994 56.7874C44.6805 55.8968 45.8813 55.7874 47.8994 55.7874C49.9294 55.7874 51.6773 55.8763 53.3994 57.2874C54.6198 58.2874 55.8994 60.0633 55.8994 61.7874Z" fill="url(#paint12_radial_219_18)"/>
<path id="Vector 12" d="M33.399 71.2875C32.3517 70.112 31.3978 67.7875 31.3986 67.2875C31.3992 66.8969 31.1823 67.1123 31.399 66.7874C31.7239 66.3 32.3978 66.2877 32.8986 66.7875C33.3988 67.2867 33.7033 67.8953 33.8987 68.2858L33.8994 68.2873C34.4855 69.4587 34.6881 70.0129 35.3994 70.7873C35.8757 71.3058 35.7828 71.4469 36.399 71.7874C37.3193 72.296 37.8685 72.5778 38.899 72.7874C40.047 73.0209 40.7687 73.0957 41.899 72.7874C43.2574 72.4169 44.899 70.7874 44.899 70.7874C44.899 70.7874 45.5913 70.0565 45.899 69.2873C46.189 68.5622 46.399 67.2874 46.399 67.2874H49.399C49.399 67.2874 49.6089 68.5622 49.899 69.2873C50.2066 70.0565 50.899 70.7874 50.899 70.7874L52.399 72.2874C52.399 72.2874 54.2112 72.7874 55.399 72.7874C56.5867 72.7874 57.286 72.7022 58.399 72.2874C59.4658 71.8897 60.1177 71.6156 60.899 70.7874C61.382 70.2753 62.8994 67.7874 62.8994 67.7874C62.8994 67.7874 63.4859 66.4337 64.3994 67.2874C64.7184 67.5855 64.6895 68.5622 64.3994 69.2874C64.0917 70.0565 63.4992 70.7159 62.8994 71.2874C61.596 72.5292 61.0096 72.9825 59.3994 73.7875C57.9591 74.5076 56.5867 74.7874 55.399 74.7874C54.2112 74.7874 53.4795 74.7805 52.399 74.2874C51.5108 73.882 51.0893 73.4778 50.399 72.7874C49.7086 72.097 49.3834 71.6351 48.899 70.7874C48.6823 70.4083 48.399 69.7874 48.399 69.7874L47.899 69.2874L47.399 69.7874C47.399 69.7874 47.1288 70.4162 46.899 70.7874C46.3176 71.7266 45.786 72.1292 44.899 72.7874C43.847 73.5679 43.1476 73.8915 41.899 74.2874C40.7668 74.6464 38.7272 74.5012 36.8994 73.7875C35.0803 73.0773 34.5164 72.5418 33.399 71.2875Z" fill="url(#paint13_radial_219_18)" stroke="black"/>
<path id="ojo-end" d="M57 49.7026C57 52.0417 58 55.0001 61 55.0001C64.5 54.5001 66 52.0417 66 49.7026C66 48.086 64.0984 51.6558 62.5 52.0057C61.5463 52.2145 60.944 52.2552 60 52.0059C58.5719 51.6289 57 47.3634 57 49.7026Z" fill="url(#paint14_radial_219_18)"/>
</g>
<defs>
<filter id="filter0_dd_219_18" x="56" y="0" width="39.6162" height="58.5652" filterUnits="userSpaceOnUse" colorInterpolationFilters="sRGB">
<feFlood floodOpacity="0" result="BackgroundImageFix"/>
<feColorMatrix in="SourceAlpha" type="matrix" values="0 0 0 0 0 0 0 0 0 0 0 0 0 0 0 0 0 0 127 0" result="hardAlpha"/>
<feOffset/>
<feGaussianBlur stdDeviation="1"/>
<feComposite in2="hardAlpha" operator="out"/>
<feColorMatrix type="matrix" values="0 0 0 0 0 0 0 0 0 0 0 0 0 0 0 0 0 0 0.2 0"/>
<feBlend mode="normal" in2="BackgroundImageFix" result="effect1_dropShadow_219_18"/>
<feColorMatrix in="SourceAlpha" type="matrix" values="0 0 0 0 0 0 0 0 0 0 0 0 0 0 0 0 0 0 127 0" result="hardAlpha"/>
<feOffset dy="2"/>
<feGaussianBlur stdDeviation="2"/>
<feComposite in2="hardAlpha" operator="out"/>
<feColorMatrix type="matrix" values="0 0 0 0 0.890196 0 0 0 0 0.478431 0 0 0 0 0.0862745 0 0 0 0.3 0"/>
<feBlend mode="normal" in2="effect1_dropShadow_219_18" result="effect2_dropShadow_219_18"/>
<feBlend mode="normal" in="SourceGraphic" in2="effect2_dropShadow_219_18" result="shape"/>
</filter>
<filter id="filter1_dd_219_18" x="0" y="0" width="39" height="58.5652" filterUnits="userSpaceOnUse" colorInterpolationFilters="sRGB">
<feFlood floodOpacity="0" result="BackgroundImageFix"/>
<feColorMatrix in="SourceAlpha" type="matrix" values="0 0 0 0 0 0 0 0 0 0 0 0 0 0 0 0 0 0 127 0" result="hardAlpha"/>
<feOffset/>
<feGaussianBlur stdDeviation="1"/>
<feComposite in2="hardAlpha" operator="out"/>
<feColorMatrix type="matrix" values="0 0 0 0 0 0 0 0 0 0 0 0 0 0 0 0 0 0 0.2 0"/>
<feBlend mode="normal" in2="BackgroundImageFix" result="effect1_dropShadow_219_18"/>
<feColorMatrix in="SourceAlpha" type="matrix" values="0 0 0 0 0 0 0 0 0 0 0 0 0 0 0 0 0 0 127 0" result="hardAlpha"/>
<feOffset dy="2"/>
<feGaussianBlur stdDeviation="2"/>
<feComposite in2="hardAlpha" operator="out"/>
<feColorMatrix type="matrix" values="0 0 0 0 0.890196 0 0 0 0 0.478431 0 0 0 0 0.0862745 0 0 0 0.3 0"/>
<feBlend mode="normal" in2="effect1_dropShadow_219_18" result="effect2_dropShadow_219_18"/>
<feBlend mode="normal" in="SourceGraphic" in2="effect2_dropShadow_219_18" result="shape"/>
</filter>
<filter id="filter2_d_219_18" x="2" y="19.0652" width="91.1221" height="89.3767" filterUnits="userSpaceOnUse" colorInterpolationFilters="sRGB">
<feFlood floodOpacity="0" result="BackgroundImageFix"/>
<feColorMatrix in="SourceAlpha" type="matrix" values="0 0 0 0 0 0 0 0 0 0 0 0 0 0 0 0 0 0 127 0" result="hardAlpha"/>
<feOffset dy="1"/>
<feGaussianBlur stdDeviation="2"/>
<feComposite in2="hardAlpha" operator="out"/>
<feColorMatrix type="matrix" values="0 0 0 0 0 0 0 0 0 0 0 0 0 0 0 0 0 0 0.25 0"/>
<feBlend mode="normal" in2="BackgroundImageFix" result="effect1_dropShadow_219_18"/>
<feBlend mode="normal" in="SourceGraphic" in2="effect1_dropShadow_219_18" result="shape"/>
</filter>
<radialGradient id="paint0_radial_219_18" cx="0" cy="0" r="1" gradientUnits="userSpaceOnUse" gradientTransform="translate(76 15.5652) rotate(127.482) scale(38.1624 31.1828)">
<stop stopColor="#E27915"/>
<stop offset="0.450907" stopColor="#FDB454"/>
<stop offset="0.93654" stopColor="#FFB858"/>
</radialGradient>
<radialGradient id="paint1_radial_219_18" cx="0" cy="0" r="1" gradientUnits="userSpaceOnUse" gradientTransform="translate(75.8134 24.8026) rotate(90) scale(17.2625 10.8134)">
<stop stopColor="#EECAAA"/>
<stop offset="0.422877" stopColor="#EEBC90"/>
<stop offset="1" stopColor="#D99C69"/>
</radialGradient>
<radialGradient id="paint2_radial_219_18" cx="0" cy="0" r="1" gradientUnits="userSpaceOnUse" gradientTransform="translate(10 32) rotate(44.4438) scale(36.4177 27.7522)">
<stop stopColor="#E27915"/>
<stop offset="0.450907" stopColor="#FDB454"/>
<stop offset="0.93654" stopColor="#FFB858"/>
</radialGradient>
<radialGradient id="paint3_radial_219_18" cx="0" cy="0" r="1" gradientTransform="matrix(22.7698 30.2835 24.2625 -18.9753 19.3119 15.5652)" gradientUnits="userSpaceOnUse">
<stop offset="0.00643931" stopColor="#E27915"/>
<stop offset="0.450907" stopColor="#FDB454"/>
<stop offset="0.93654" stopColor="#FFB858"/>
</radialGradient>
<radialGradient id="paint4_radial_219_18" cx="0" cy="0" r="1" gradientUnits="userSpaceOnUse" gradientTransform="translate(19.4951 24.8026) rotate(90) scale(17.2625 10.6026)">
<stop stopColor="#EECAAA"/>
<stop offset="0.422877" stopColor="#EEBC90"/>
<stop offset="1" stopColor="#D99C69"/>
</radialGradient>
<radialGradient id="paint5_radial_219_18" cx="0" cy="0" r="1" gradientUnits="userSpaceOnUse" gradientTransform="translate(27.5 37.5652) rotate(56.1254) scale(86.1177 76.5136)">
<stop offset="0.0364311" stopColor="#FDFDFD"/>
<stop offset="0.450506" stopColor="#FAFAFA"/>
<stop offset="0.834873" stopColor="#E5E5E5"/>
</radialGradient>
<radialGradient id="paint6_radial_219_18" cx="0" cy="0" r="1" gradientUnits="userSpaceOnUse" gradientTransform="translate(43 75.0652) rotate(37.304) scale(13.2004 15.156)">
<stop offset="0.139423" stopColor="#F74F27"/>
<stop offset="1" stopColor="#B7310D"/>
</radialGradient>
<radialGradient id="paint7_radial_219_18" cx="0" cy="0" r="1" gradientUnits="userSpaceOnUse" gradientTransform="translate(42.3994 56.7874) rotate(-160.942) scale(29.0947 20.5522)">
<stop stopColor="#E3882B"/>
<stop offset="0.575292" stopColor="#FBB360"/>
<stop offset="1" stopColor="#FDB664"/>
</radialGradient>
<radialGradient id="paint8_radial_219_18" cx="0" cy="0" r="1" gradientTransform="matrix(-35 -33.5 27.5522 -29.129 53.5 74.5)" gradientUnits="userSpaceOnUse">
<stop offset="0.149938" stopColor="#E3882B"/>
<stop offset="0.369598" stopColor="#E79034"/>
<stop offset="0.841905" stopColor="#F3A44D"/>
<stop offset="1" stopColor="#FDB664"/>
</radialGradient>
<radialGradient id="paint9_radial_219_18" cx="0" cy="0" r="1" gradientUnits="userSpaceOnUse" gradientTransform="translate(77 53.5) rotate(-159.734) scale(34.6446 28.8705)">
<stop offset="0.149938" stopColor="#E3882B"/>
<stop offset="0.369598" stopColor="#E79034"/>
<stop offset="0.841905" stopColor="#F3A44D"/>
<stop offset="1" stopColor="#FDB664"/>
</radialGradient>
<radialGradient id="paint10_radial_219_18" cx="0" cy="0" r="1" gradientUnits="userSpaceOnUse" gradientTransform="translate(58.9541 47.3667) rotate(74.8258) scale(6.73472 6.58121)">
<stop stopColor="#666666"/>
<stop offset="0.75" stopColor="#111111"/>
<stop offset="1"/>
</radialGradient>
<radialGradient id="paint11_radial_219_18" cx="0" cy="0" r="1" gradientTransform="matrix(-1.76291 6.35196 -6.35196 -1.68345 36.6623 48.9354)" gradientUnits="userSpaceOnUse">
<stop stopColor="#666666"/>
<stop offset="0.75" stopColor="#111111"/>
<stop offset="1"/>
</radialGradient>
<radialGradient id="paint12_radial_219_18" cx="0" cy="0" r="1" gradientUnits="userSpaceOnUse" gradientTransform="translate(45.8994 59.2874) rotate(60.6823) scale(10.8167 10.3478)">
<stop stopColor="#666666"/>
<stop offset="0.407116" stopColor="#222222"/>
<stop offset="1"/>
</radialGradient>
<radialGradient id="paint13_radial_219_18" cx="0" cy="0" r="1" gradientTransform="matrix(10.5928 6.56086 -18.0449 3.52474 44.3994 69.2221)" gradientUnits="userSpaceOnUse">
<stop stopColor="#222222"/>
<stop offset="0.407116" stopColor="#222222"/>
<stop offset="1"/>
</radialGradient>
<radialGradient id="paint14_radial_219_18" cx="0" cy="0" r="1" gradientUnits="userSpaceOnUse" gradientTransform="translate(58.9541 46.8726) rotate(74.8258) scale(6.73473 6.58121)">
<stop stopColor="#666666"/>
<stop offset="0.75" stopColor="#111111"/>
<stop offset="1"/>
</radialGradient>
</defs>
</svg>
